{"glyphs":{"0":{"ha":1017,"x_min":160,"x_max":857,"o":"m 412 46 q 402 56 402 46 q 400 707 401 382 q 405 715 400 712 q 759 918 756 918 q 768 909 768 918 l 770 256 q 765 249 769 252 q 412 46 414 46 m 597 586 l 597 805 l 419 702 l 419 624 l 473 655 l 475 655 q 597 586 478 655 m 541 517 l 610 557 l 475 635 l 419 603 l 419 589 l 541 517 m 551 422 l 620 463 l 619 541 l 551 502 l 551 422 m 532 422 l 532 502 l 419 567 l 419 488 l 532 422 m 420 248 l 598 351 l 598 429 l 543 397 l 541 397 q 539 398 540 397 q 538 398 538 398 q 420 467 537 399 l 420 248 m 420 71 l 742 257 l 608 335 l 420 227 l 420 71 m 751 273 l 749 892 l 615 815 l 616 575 l 635 564 q 637 561 636 562 q 637 559 637 559 q 637 558 637 559 q 638 457 637 558 q 633 449 638 452 l 616 439 l 616 351 l 751 273 m 324 -104 q 320 -104 321 -104 q 167 -14 319 -103 q 162 -7 162 -12 l 160 847 q 164 854 161 852 q 692 1158 690 1158 q 851 1067 695 1158 l 852 1066 q 857 207 855 1061 q 852 199 857 201 q 324 -104 327 -104 m 315 -79 l 313 752 l 178 830 l 180 -1 l 315 -79 m 322 768 l 827 1059 l 692 1138 l 187 846 l 322 768 m 334 -79 l 839 212 l 836 1044 l 331 752 l 334 -79 z "},"1":{"ha":1017,"x_min":160,"x_max":857,"o":"m 325 -104 l 322 -104 l 320 -104 l 167 -14 q 162 -7 163 -12 l 162 94 q 167 102 163 99 l 380 225 l 379 679 q 322 648 325 648 l 320 648 l 165 738 q 160 745 161 741 l 160 847 q 165 854 161 851 q 475 1031 472 1031 q 555 986 477 1031 q 633 941 633 941 l 634 940 q 635 939 635 940 l 635 938 l 636 938 l 636 937 l 637 935 l 639 374 q 695 406 692 406 q 852 315 698 406 l 854 314 l 855 313 l 856 311 l 857 311 l 857 309 l 857 207 q 853 199 857 201 q 325 -104 328 -104 m 639 197 l 829 307 l 695 385 l 639 353 l 639 197 m 313 673 l 313 751 l 178 830 l 179 751 l 313 673 m 322 768 l 609 933 l 475 1012 l 188 846 l 322 768 m 315 -79 l 315 -1 l 180 78 l 181 -1 l 315 -79 m 324 16 l 524 131 l 389 209 l 190 94 l 324 16 m 533 147 l 532 767 l 397 690 l 399 225 l 533 147 m 334 -79 l 839 212 l 839 291 l 634 173 l 632 172 q 621 181 621 172 l 618 918 l 332 751 l 332 673 l 460 747 q 541 792 538 792 q 550 783 550 792 l 552 130 l 551 130 q 547 123 551 125 l 334 -1 l 334 -79 z "},"2":{"ha":1017,"x_min":160,"x_max":858,"o":"m 325 -104 l 323 -104 l 168 -14 q 163 -6 163 -12 l 161 471 q 166 478 162 475 l 598 728 l 597 805 q 325 648 326 648 q 321 648 324 648 l 165 738 q 161 746 161 741 l 160 846 l 161 847 q 165 854 161 852 q 693 1158 690 1158 q 852 1067 696 1158 q 854 1065 852 1067 q 855 1061 855 1063 q 857 583 855 822 q 852 575 857 578 l 420 326 l 420 248 q 695 406 693 406 q 815 337 698 406 q 855 314 854 315 q 856 313 855 314 q 857 312 856 313 q 858 207 857 307 q 853 199 858 202 q 325 -104 328 -104 m 421 71 l 830 307 l 695 386 l 420 227 l 421 71 m 313 673 l 313 752 l 179 830 l 179 751 l 313 673 m 323 768 l 828 1059 l 693 1138 l 188 846 l 323 768 m 315 -79 l 315 376 l 180 454 l 181 -1 l 315 -79 m 323 392 l 742 633 l 607 711 l 189 470 l 323 392 m 751 649 l 750 893 l 616 816 l 616 728 l 751 649 m 334 -79 l 840 212 l 839 292 q 412 46 414 46 q 408 47 410 46 q 403 56 403 50 l 402 331 q 406 339 402 336 l 838 589 l 837 1044 l 332 752 l 332 673 q 760 918 758 918 q 768 909 768 918 l 769 633 q 764 625 768 628 l 333 376 l 334 -79 z "},"3":{"ha":1017,"x_min":160,"x_max":857,"o":"m 325 -104 l 322 -104 l 322 -104 q 320 -103 321 -104 l 167 -14 q 162 -6 163 -12 l 162 95 q 167 102 163 100 l 598 351 l 598 429 l 328 273 l 326 272 q 319 273 321 272 l 319 273 l 166 361 q 161 370 161 365 l 161 471 l 161 471 q 165 478 161 475 l 597 727 l 597 805 q 325 648 326 648 q 322 648 323 648 l 319 648 l 165 738 q 160 746 161 741 l 160 847 q 165 854 161 852 q 693 1158 690 1158 q 773 1113 695 1158 q 852 1067 851 1067 l 852 1065 l 853 1065 l 854 1064 l 855 1061 l 857 207 q 853 199 857 202 q 325 -104 327 -104 m 313 673 l 313 752 l 178 830 l 178 751 l 313 673 m 322 768 l 827 1059 l 693 1138 l 188 846 l 322 768 m 314 297 l 314 376 l 180 454 l 180 375 l 314 297 m 323 392 l 741 633 l 606 711 l 189 470 l 323 392 m 750 649 l 749 893 l 616 816 l 616 727 l 750 649 m 315 -79 l 315 0 l 180 78 l 181 -1 l 315 -79 m 324 16 l 742 257 l 608 335 l 190 94 l 324 16 m 751 273 l 751 517 l 616 439 l 617 351 l 751 273 m 334 -79 l 839 212 l 837 1044 l 332 752 l 332 673 q 759 918 756 918 q 768 909 768 918 l 769 633 l 768 632 q 764 625 768 627 l 332 376 q 333 297 332 328 q 760 542 758 542 q 764 541 762 542 q 769 533 769 538 l 770 256 q 765 249 769 252 l 334 0 l 334 -79 z "},"4":{"ha":1017,"x_min":160,"x_max":858,"o":"m 761 148 q 758 149 758 148 q 604 238 757 149 q 599 245 600 241 l 599 429 l 326 272 q 319 273 319 272 l 166 362 q 161 370 162 365 l 160 847 q 165 854 161 852 q 257 906 254 906 q 416 815 258 906 l 416 814 q 417 814 416 814 q 417 812 417 813 q 419 809 418 810 l 420 625 l 597 728 l 597 1099 q 602 1106 597 1104 q 693 1158 690 1158 q 850 1067 696 1158 q 854 1065 853 1066 q 858 208 855 1063 q 853 199 858 202 q 761 148 764 148 m 759 1020 l 827 1059 l 693 1138 l 625 1098 l 759 1020 m 751 649 l 749 1004 l 615 1082 l 616 727 l 751 649 m 420 448 l 741 633 l 607 711 l 420 603 l 420 448 m 315 297 l 313 752 l 179 830 l 180 375 l 315 297 m 322 768 l 391 808 l 257 886 l 188 846 l 322 768 m 752 173 l 751 517 l 617 439 l 618 251 l 752 173 m 770 172 l 840 212 l 837 1044 l 768 1004 l 769 632 q 768 627 769 629 q 590 524 766 626 q 411 422 413 422 q 401 431 402 422 l 401 791 l 332 752 l 333 297 q 760 542 758 542 q 770 533 769 542 l 770 172 z "},"5":{"ha":1017,"x_min":160,"x_max":857,"o":"m 324 -104 l 322 -104 l 322 -104 q 320 -103 321 -104 l 167 -14 q 162 -6 163 -12 l 162 95 q 167 102 163 100 l 598 351 l 598 429 l 328 273 l 326 272 q 319 273 321 272 l 319 273 l 166 361 q 161 370 161 365 l 160 847 q 165 854 161 852 q 693 1158 690 1158 q 773 1113 695 1158 q 851 1067 851 1067 l 852 1066 l 852 1065 l 854 1064 l 854 1061 l 855 1061 l 855 960 q 850 951 855 954 l 419 702 l 419 625 q 694 782 691 782 q 852 692 696 782 l 852 690 l 854 690 l 854 689 l 854 689 l 855 687 l 856 684 l 857 207 q 852 199 857 202 q 324 -104 327 -104 m 420 448 l 829 684 l 694 762 l 419 603 l 420 448 m 314 297 l 313 752 l 178 830 l 180 375 l 314 297 m 322 768 l 827 1059 l 693 1138 l 188 846 l 322 768 m 315 -79 l 315 0 l 180 78 l 181 -1 l 315 -79 m 324 16 l 742 257 l 608 335 l 190 94 l 324 16 m 751 273 l 751 517 l 616 439 l 617 351 l 751 273 m 334 -79 l 839 212 l 838 667 l 413 422 q 406 423 408 422 q 401 431 401 427 l 400 707 q 405 715 401 713 l 837 964 l 837 1044 l 332 752 l 332 297 l 603 453 l 680 498 q 760 542 758 542 q 764 541 762 542 q 769 533 769 538 l 770 256 q 765 249 769 252 l 334 0 l 334 -79 z "},"6":{"ha":1017,"x_min":160,"x_max":858,"o":"m 325 -104 l 323 -104 l 168 -14 q 163 -6 163 -12 l 160 846 q 165 854 160 852 q 693 1158 690 1158 q 773 1113 696 1158 q 852 1067 851 1067 q 853 1065 853 1066 q 854 1064 854 1065 q 856 960 855 1064 q 851 951 855 954 l 419 702 l 419 625 q 694 782 692 782 q 774 736 696 782 q 853 691 852 691 q 854 689 854 690 q 856 686 855 688 q 857 685 856 685 l 858 207 q 853 199 858 202 q 325 -104 328 -104 m 420 448 l 829 684 l 694 762 l 420 603 l 420 448 m 315 -79 l 313 752 l 179 830 l 181 -1 l 315 -79 m 323 768 l 827 1059 l 693 1138 l 188 846 l 323 768 m 334 -79 l 840 212 l 838 667 q 411 422 413 422 q 401 431 402 422 l 401 707 q 406 715 401 713 l 837 964 l 837 1044 l 332 752 l 334 -79 m 412 46 q 403 56 403 46 l 401 331 q 406 339 402 336 q 760 542 758 542 q 769 533 769 542 l 770 256 l 770 256 q 769 252 770 253 q 590 148 766 250 q 412 46 414 46 m 420 248 l 599 351 l 599 429 l 420 326 l 420 248 m 421 71 l 743 257 l 608 335 l 420 227 l 421 71 m 751 273 l 751 517 l 617 439 l 617 351 l 751 273 z "},"7":{"ha":1017,"x_min":160,"x_max":857,"o":"m 761 148 l 758 148 l 604 238 q 599 245 599 241 l 597 805 q 322 648 325 648 q 320 649 321 648 q 317 649 319 649 l 165 738 q 160 746 160 741 l 160 847 q 164 854 161 852 q 692 1158 690 1158 q 773 1113 695 1158 q 852 1066 851 1067 q 854 1065 853 1065 l 855 1060 l 857 208 q 852 199 857 202 q 761 148 764 148 m 313 673 l 313 752 l 178 830 l 178 751 l 313 673 m 322 768 l 827 1059 l 692 1138 l 187 846 l 322 768 m 751 173 l 749 893 l 616 815 l 617 251 l 751 173 m 770 172 l 839 212 l 836 1044 l 331 752 l 332 673 q 759 918 756 918 q 768 909 768 918 l 770 172 z "},"8":{"ha":1017,"x_min":160,"x_max":858,"o":"m 412 46 q 403 56 403 46 l 401 331 q 406 339 402 336 q 760 543 757 543 q 769 533 769 543 l 770 256 l 770 256 q 766 249 770 252 q 412 46 414 46 m 420 248 l 599 351 l 599 429 l 420 326 l 420 248 m 421 71 l 743 257 l 608 335 l 420 227 l 421 71 m 751 273 l 751 517 l 617 439 l 617 351 l 751 273 m 411 422 q 401 431 401 422 l 401 707 q 406 715 401 713 q 759 918 756 918 q 768 909 768 918 l 769 633 q 764 625 768 628 q 411 422 413 422 m 751 649 l 750 893 l 616 816 l 616 728 l 751 649 m 420 448 l 741 633 l 607 711 l 419 603 l 420 448 m 419 625 l 597 728 l 597 805 l 419 702 l 419 625 m 325 -104 l 322 -104 q 321 -103 322 -104 q 167 -14 320 -103 q 163 -6 163 -12 l 160 847 q 165 854 161 852 q 693 1158 690 1158 q 774 1112 696 1158 q 854 1064 852 1067 q 858 207 855 1064 q 853 199 857 202 q 325 -104 328 -104 m 315 -79 l 313 752 l 178 830 l 181 -1 l 315 -79 m 322 768 l 827 1059 l 693 1138 l 188 846 l 322 768 m 334 -79 l 839 212 l 837 1044 l 332 752 l 334 -79 z "},"9":{"ha":1017,"x_min":160,"x_max":857,"o":"m 761 148 l 758 148 l 604 238 q 599 245 599 241 l 598 429 l 326 272 q 165 362 321 272 q 161 370 161 365 l 160 847 q 164 854 160 852 q 692 1158 690 1158 q 773 1113 695 1158 q 852 1066 851 1067 q 854 1065 853 1065 q 857 208 855 1060 q 852 199 857 202 q 761 148 764 148 m 314 297 l 313 752 l 178 830 l 180 375 l 314 297 m 322 768 l 827 1059 l 692 1138 l 187 846 l 322 768 m 751 173 l 751 517 l 616 439 l 617 251 l 751 173 m 770 172 l 839 212 l 836 1044 l 331 752 l 332 297 q 760 542 758 542 q 769 533 768 542 l 770 172 m 410 422 q 401 432 402 422 q 400 707 401 608 q 405 715 401 713 q 759 918 755 918 q 768 909 768 918 l 769 633 q 590 525 768 627 q 410 422 413 422 m 419 625 l 597 727 l 597 805 l 419 702 l 419 625 m 420 448 l 741 633 l 606 711 l 419 603 l 420 448 m 750 649 l 749 893 l 616 815 l 616 727 l 750 649 z "},"\u0000":{"ha":1017,"x_min":160,"x_max":857,"o":"m 450 68 q 443 71 446 68 q 440 77 440 73 q 577 395 440 79 q 586 401 580 401 q 593 398 590 401 l 730 241 l 730 241 q 731 239 731 240 l 732 237 l 732 232 l 730 229 l 730 229 q 590 148 729 228 q 450 68 452 68 m 679 271 l 588 374 l 572 336 q 679 271 576 331 m 469 99 l 705 235 l 570 313 l 559 307 l 469 99 m 325 -104 l 322 -104 l 167 -14 q 163 -7 163 -12 l 160 847 q 165 854 161 852 q 693 1158 690 1158 q 773 1113 696 1158 q 852 1067 851 1067 l 852 1066 l 853 1065 l 854 1064 l 855 1061 l 857 207 q 853 199 857 202 q 325 -104 327 -104 m 315 -79 l 313 752 l 178 830 l 181 -1 l 315 -79 m 322 768 l 827 1059 l 693 1138 l 188 846 l 322 768 m 334 -79 l 839 212 l 837 1044 l 332 752 l 334 -79 m 587 564 q 578 566 581 564 q 439 729 439 726 q 443 737 439 734 l 461 747 q 721 897 718 897 q 727 893 724 897 q 730 886 730 890 q 593 569 730 884 q 587 564 591 564 m 583 589 l 701 865 l 473 733 l 468 720 l 583 589 m 412 161 l 410 161 q 402 171 402 164 q 401 591 401 381 q 410 601 401 601 q 417 597 414 601 l 541 457 q 541 455 541 456 l 542 455 l 542 449 l 541 448 l 420 167 q 412 161 417 161 m 489 488 l 419 567 l 420 528 l 489 488 m 420 215 l 521 448 l 420 507 l 420 215 m 760 363 q 753 366 757 363 q 629 512 629 509 q 751 797 629 514 q 760 803 753 803 q 766 800 764 803 q 770 372 768 797 q 760 363 768 363 m 751 397 l 750 749 l 648 514 l 751 397 z "},"\u001d":{"ha":1017,"x_min":160,"x_max":857,"o":"m 450 68 q 443 71 446 68 q 440 77 440 73 q 577 395 440 79 q 586 401 580 401 q 593 398 590 401 l 730 241 l 730 241 q 731 239 731 240 l 732 237 l 732 232 l 730 229 l 730 229 q 590 148 729 228 q 450 68 452 68 m 679 271 l 588 374 l 572 336 q 679 271 576 331 m 469 99 l 705 235 l 570 313 l 559 307 l 469 99 m 325 -104 l 322 -104 l 167 -14 q 163 -7 163 -12 l 160 847 q 165 854 161 852 q 693 1158 690 1158 q 773 1113 696 1158 q 852 1067 851 1067 l 852 1066 l 853 1065 l 854 1064 l 855 1061 l 857 207 q 853 199 857 202 q 325 -104 327 -104 m 315 -79 l 313 752 l 178 830 l 181 -1 l 315 -79 m 322 768 l 827 1059 l 693 1138 l 188 846 l 322 768 m 334 -79 l 839 212 l 837 1044 l 332 752 l 334 -79 m 587 564 q 578 566 581 564 q 439 729 439 726 q 443 737 439 734 l 461 747 q 721 897 718 897 q 727 893 724 897 q 730 886 730 890 q 593 569 730 884 q 587 564 591 564 m 583 589 l 701 865 l 473 733 l 468 720 l 583 589 m 412 161 l 410 161 q 402 171 402 164 q 401 591 401 381 q 410 601 401 601 q 417 597 414 601 l 541 457 q 541 455 541 456 l 542 455 l 542 449 l 541 448 l 420 167 q 412 161 417 161 m 489 488 l 419 567 l 420 528 l 489 488 m 420 215 l 521 448 l 420 507 l 420 215 m 760 363 q 753 366 757 363 q 629 512 629 509 q 751 797 629 514 q 760 803 753 803 q 766 800 764 803 q 770 372 768 797 q 760 363 768 363 m 751 397 l 750 749 l 648 514 l 751 397 z "}," ":{"ha":1017,"x_min":0,"x_max":0,"o":""}," ":{"ha":1017,"x_min":0,"x_max":0,"o":""},"!":{"ha":1017,"x_min":378,"x_max":640,"o":"m 543 21 l 541 21 l 385 111 q 381 119 381 114 l 380 220 q 385 227 381 225 l 436 257 l 385 287 q 380 294 380 290 l 378 972 q 427 1005 381 979 q 475 1031 473 1031 q 555 986 477 1031 q 635 939 634 940 q 639 256 637 934 q 635 248 639 251 l 583 218 l 636 188 l 636 187 q 638 184 637 186 q 640 182 638 182 l 640 81 q 635 73 640 75 q 543 21 545 21 m 551 222 l 621 262 l 618 918 l 549 878 l 551 222 m 541 893 l 609 933 l 475 1011 l 406 972 l 541 893 m 533 222 l 531 878 l 397 956 l 399 300 l 533 222 m 534 46 l 533 125 l 399 203 l 399 125 l 534 46 m 543 141 l 611 181 l 565 208 q 543 197 545 197 q 454 246 540 197 l 408 220 l 543 141 m 552 46 l 621 86 l 621 165 l 551 125 l 552 46 z "},"\"":{"ha":578,"x_min":73,"x_max":507,"o":"m 235 723 q 233 724 234 723 l 231 724 l 78 813 q 73 821 73 816 l 73 922 l 73 922 q 77 930 73 927 q 170 981 167 981 q 248 937 172 981 l 248 1023 q 252 1030 248 1028 q 344 1082 341 1082 q 502 992 347 1082 l 503 991 l 503 991 l 503 990 l 504 990 l 504 989 l 505 989 l 506 985 l 507 884 q 502 876 507 878 l 414 825 q 408 824 412 824 l 408 825 l 406 825 l 332 868 l 332 783 q 328 775 332 778 q 235 723 238 723 m 245 749 l 313 788 l 313 867 l 244 827 l 245 749 m 419 849 l 488 889 l 488 968 l 419 928 l 419 849 m 410 944 l 479 984 l 344 1062 l 275 1022 l 410 944 m 401 849 l 400 928 l 266 1006 l 267 928 l 401 849 m 235 844 l 304 883 l 170 961 l 100 922 l 235 844 m 226 749 l 226 827 l 92 905 l 92 827 l 226 749 z "},"$":{"ha":1017,"x_min":160,"x_max":858,"o":"m 325 -104 l 322 -104 l 168 -14 q 163 -7 163 -12 l 162 94 l 163 94 q 167 102 163 99 l 599 351 l 598 429 q 326 272 327 272 q 323 271 325 271 q 320 273 321 271 l 166 361 q 161 370 161 364 l 160 847 q 165 854 161 852 l 378 977 l 378 1097 l 378 1098 q 382 1105 378 1103 q 475 1157 472 1157 q 583 1095 477 1157 q 693 1158 690 1158 q 774 1112 696 1158 l 852 1067 l 853 1065 l 853 1065 q 854 1064 854 1065 q 854 1063 854 1064 l 855 1061 l 856 959 q 851 951 855 954 l 419 702 l 419 625 q 694 782 692 782 q 774 736 696 782 q 852 690 852 691 l 854 690 l 854 689 l 855 688 l 856 685 l 857 684 l 858 207 q 853 199 858 201 l 640 76 l 640 -44 q 635 -52 640 -50 l 546 -104 q 541 -103 542 -104 l 538 -102 l 435 -43 q 325 -104 328 -104 m 420 448 l 829 684 l 694 762 l 420 603 l 420 448 m 637 949 l 827 1059 l 693 1138 l 602 1084 l 632 1067 q 637 1059 637 1064 l 637 949 m 541 1019 l 609 1059 l 475 1137 l 406 1097 l 541 1019 m 531 899 l 531 1003 l 397 1081 l 397 977 l 531 899 m 315 297 l 313 752 l 179 830 l 180 375 l 315 297 m 322 768 l 522 883 l 388 962 l 188 846 l 322 768 m 315 -79 l 315 -1 l 181 78 l 181 -1 l 315 -79 m 325 16 l 743 257 l 608 335 l 190 94 l 325 16 m 751 273 l 751 517 l 617 439 l 617 351 l 751 273 m 534 -79 l 534 15 l 454 -32 l 534 -79 m 334 -79 q 543 40 541 40 q 552 31 552 40 l 553 -79 l 621 -39 l 621 81 q 626 89 621 86 l 840 212 l 838 667 l 415 423 l 413 422 q 401 431 401 422 l 401 707 q 406 715 401 713 l 837 964 l 837 1044 l 630 924 q 618 933 618 924 l 618 1043 l 549 1003 l 550 882 l 549 880 l 549 878 q 332 752 545 875 l 333 297 l 680 496 q 760 542 758 542 q 769 533 769 542 l 770 257 l 770 256 q 766 249 770 252 l 334 -1 l 334 -79 z "},"%":{"ha":1017,"x_min":145,"x_max":872,"o":"m 410 547 q 401 557 401 547 l 401 707 q 406 715 401 712 q 473 754 407 715 q 541 792 538 792 q 550 783 550 792 l 551 631 q 546 624 550 627 q 410 547 412 547 m 419 572 l 523 632 l 419 692 l 419 572 m 532 648 l 532 766 l 429 708 l 532 648 m 380 -92 l 306 -78 l 150 12 q 145 19 145 15 q 311 403 145 22 l 165 487 q 161 495 161 490 l 160 846 q 165 854 161 851 q 475 1031 472 1031 q 561 983 477 1031 l 629 1139 l 629 1139 q 631 1143 631 1141 q 639 1145 635 1144 l 715 1130 l 867 1041 q 869 1040 869 1041 q 871 1037 870 1038 q 872 1034 871 1036 q 707 650 871 1029 l 853 565 l 854 565 l 855 562 q 858 207 857 562 q 853 199 857 201 q 542 21 545 21 l 538 22 l 456 70 l 389 -86 q 380 -92 386 -92 m 812 1052 l 707 1113 l 688 1116 l 793 1055 l 812 1052 m 637 717 l 779 1042 l 642 1122 l 577 973 q 633 940 633 941 q 634 940 633 940 q 634 939 634 940 q 635 938 635 939 q 637 936 636 937 l 637 717 m 322 768 l 609 933 l 475 1011 l 188 846 l 322 768 m 314 422 l 313 751 l 178 829 l 180 500 l 314 422 m 303 -56 l 557 530 l 328 398 l 166 24 l 303 -56 m 534 46 l 533 247 l 464 87 l 534 46 m 614 433 l 829 558 l 700 633 l 614 433 m 375 -73 l 534 295 q 542 300 536 300 q 549 297 547 300 q 552 46 551 294 l 839 212 l 838 542 q 595 403 599 404 l 595 402 q 594 403 594 402 q 588 406 590 403 q 585 412 585 408 q 850 1026 717 720 l 795 1036 q 635 666 635 666 q 627 663 631 663 q 621 667 623 665 q 618 918 619 669 l 332 751 l 332 422 q 576 562 573 562 q 585 553 585 562 q 321 -62 585 551 l 375 -73 m 630 172 q 621 181 621 172 l 621 332 q 625 340 621 337 q 760 416 758 416 q 770 407 770 416 l 770 256 l 770 256 q 766 249 770 251 q 630 172 632 172 m 751 273 l 751 391 l 649 332 l 751 273 m 639 197 l 742 256 l 639 317 l 639 197 z "},"'":{"ha":578,"x_min":160,"x_max":418,"o":"m 322 774 l 319 774 l 165 864 q 160 871 160 867 l 160 973 q 164 980 160 977 q 256 1031 253 1031 q 336 986 258 1031 q 415 941 414 941 q 416 940 416 941 l 416 940 l 418 935 l 418 833 q 414 825 418 828 q 322 774 325 774 m 332 799 l 400 839 l 400 918 l 331 878 l 332 799 m 322 894 l 391 934 l 256 1012 l 187 972 l 322 894 m 313 799 l 313 878 l 178 956 l 178 877 l 313 799 z "},"(":{"ha":1017,"x_min":160,"x_max":857,"o":"m 568 37 q 441 106 565 37 l 318 177 l 165 266 q 161 274 161 269 l 160 568 q 282 781 160 570 l 404 991 l 407 995 l 408 995 q 692 1158 689 1158 q 850 1067 694 1158 l 851 1067 l 852 1065 q 852 1065 852 1065 q 853 1064 852 1065 l 854 1061 l 854 960 q 850 951 854 954 l 608 812 l 418 484 l 419 284 l 450 267 q 694 406 692 406 q 774 360 696 406 q 852 315 852 315 l 854 314 l 854 313 l 855 312 l 856 309 l 857 308 l 857 208 q 852 199 857 202 q 568 37 570 37 m 568 56 l 838 212 l 838 292 q 604 157 606 157 q 406 269 601 157 q 401 277 401 272 l 400 486 q 497 657 400 488 q 597 827 595 825 l 836 965 l 836 1044 l 572 891 l 331 475 l 332 191 l 568 56 m 319 490 l 552 895 l 415 974 l 182 569 l 319 490 m 565 909 l 827 1059 l 692 1138 l 431 987 l 565 909 m 313 201 l 313 471 l 178 550 l 179 279 l 313 201 m 604 177 l 829 307 l 694 385 l 469 256 l 604 177 z "},")":{"ha":1017,"x_min":160,"x_max":857,"o":"m 325 -104 q 321 -103 322 -104 q 163 -6 163 -13 l 162 95 q 167 102 163 100 l 408 241 l 598 570 l 597 770 l 566 787 q 321 648 324 648 q 165 738 320 648 q 161 746 161 741 l 160 847 q 165 854 161 852 q 450 1017 447 1017 q 699 877 452 1017 q 856 782 855 785 l 857 488 q 734 272 857 485 q 609 58 612 60 q 325 -104 327 -104 m 324 16 l 550 146 l 415 224 l 190 94 l 324 16 m 565 159 l 747 475 l 610 555 l 428 238 l 565 159 m 751 494 l 751 682 l 616 759 l 616 573 l 751 494 m 315 -79 l 315 0 l 181 78 l 181 -1 l 315 -79 m 334 -79 l 598 73 l 838 490 l 838 774 l 602 909 l 332 752 l 332 673 q 566 807 564 807 q 764 696 568 807 q 769 688 768 693 l 770 479 q 672 308 770 476 q 573 138 575 139 l 334 0 l 334 -79 m 322 768 l 584 919 l 449 998 l 188 846 l 322 768 m 313 673 l 313 752 l 178 830 l 179 751 l 313 673 z "},"*":{"ha":578,"x_min":63,"x_max":515,"o":"m 288 574 q 222 611 286 574 l 221 611 l 68 700 q 64 709 64 703 q 138 839 64 711 l 68 880 q 63 888 63 882 q 127 1001 126 1000 q 135 1004 129 1002 l 138 1003 l 138 1002 l 209 962 l 283 1089 l 283 1090 q 289 1094 283 1091 q 510 968 294 1094 q 512 967 511 968 q 513 966 513 967 q 515 960 513 966 q 440 829 514 958 l 511 789 q 515 780 515 786 q 452 669 515 778 q 445 665 450 665 q 370 707 441 665 l 296 579 q 288 574 293 574 m 362 873 l 431 992 l 294 1072 l 225 953 l 362 873 m 222 812 l 275 902 l 138 982 l 85 891 l 222 812 m 222 632 l 292 751 l 154 830 l 85 711 l 222 632 m 285 596 l 358 724 q 366 728 361 728 q 441 687 368 728 l 493 777 l 423 817 q 418 825 418 820 q 493 957 418 827 l 447 983 q 372 855 374 856 q 371 853 371 854 q 363 852 368 852 l 362 852 l 361 852 l 290 893 l 239 803 l 309 762 q 311 761 310 761 q 313 753 312 761 l 239 623 l 285 596 z "},"+":{"ha":1017,"x_min":160,"x_max":856,"o":"m 542 147 l 539 147 q 538 148 539 148 q 384 237 537 149 q 380 245 380 240 l 379 303 l 326 272 q 319 273 321 272 l 165 362 q 161 370 161 365 l 160 470 q 165 478 160 475 l 378 602 l 378 848 q 382 855 378 852 q 475 907 472 907 q 633 816 477 907 l 633 816 q 634 815 633 815 q 635 813 634 814 q 636 811 635 812 q 637 751 637 809 q 693 782 690 782 q 774 736 696 782 q 854 688 852 690 q 856 583 855 684 q 851 575 856 578 l 637 452 l 638 207 q 633 199 638 201 q 542 147 545 147 m 637 574 l 828 684 l 693 762 l 637 729 l 637 574 m 540 769 l 609 808 l 474 887 l 406 847 l 540 769 m 532 524 l 531 753 l 396 831 l 397 602 l 532 524 m 313 297 l 313 376 l 179 454 l 179 375 l 313 297 m 323 392 l 522 507 l 388 585 l 188 470 l 323 392 m 532 172 l 532 391 l 398 314 l 398 250 l 532 172 m 551 172 l 620 212 l 619 457 q 624 465 619 463 l 838 589 l 837 668 q 628 549 631 549 q 618 557 619 549 l 618 793 l 549 753 l 550 507 q 545 499 549 502 l 332 376 l 332 297 q 541 416 538 416 q 550 407 550 416 l 551 172 z "},",":{"ha":578,"x_min":160,"x_max":419,"o":"m 323 -204 l 320 -204 l 318 -203 l 165 -115 q 161 -106 161 -111 l 160 95 q 165 102 161 100 q 256 154 254 154 q 338 109 259 154 l 415 63 q 416 62 416 63 q 416 62 416 62 q 417 61 416 61 l 418 60 l 418 56 l 419 -144 q 414 -153 419 -150 q 323 -204 326 -204 m 313 -179 l 313 0 l 178 78 l 179 -101 l 313 -179 m 322 16 l 391 56 l 256 134 l 188 94 l 322 16 m 332 -179 l 401 -140 l 400 40 l 332 0 l 332 -179 z "},"-":{"ha":1017,"x_min":161,"x_max":857,"o":"m 323 271 l 321 271 l 166 361 q 161 369 161 364 l 161 471 q 165 477 161 475 q 694 781 692 781 q 774 736 696 781 l 852 690 l 854 690 l 854 689 l 855 688 l 856 683 l 857 583 q 852 574 857 578 q 323 271 326 271 m 314 296 l 314 375 l 179 454 l 180 374 l 314 296 m 323 391 l 828 683 l 694 761 l 189 469 l 323 391 m 332 296 l 838 588 l 838 667 l 332 375 l 332 296 z "},"­":{"ha":1017,"x_min":161,"x_max":857,"o":"m 323 271 l 321 271 l 166 361 q 161 369 161 364 l 161 471 q 165 477 161 475 q 694 781 692 781 q 774 736 696 781 l 852 690 l 854 690 l 854 689 l 855 688 l 856 683 l 857 583 q 852 574 857 578 q 323 271 326 271 m 314 296 l 314 375 l 179 454 l 180 374 l 314 296 m 323 391 l 828 683 l 694 761 l 189 469 l 323 391 m 332 296 l 838 588 l 838 667 l 332 375 l 332 296 z "},".":{"ha":578,"x_min":160,"x_max":418,"o":"m 322 -104 q 320 -104 321 -104 l 317 -103 l 165 -14 q 160 -6 160 -12 l 160 95 q 164 102 160 100 q 256 154 254 154 q 337 109 259 154 q 415 63 414 64 l 415 62 l 416 62 l 417 60 l 417 60 l 418 60 l 418 57 l 418 -45 q 414 -52 418 -50 q 322 -104 325 -104 m 313 -79 l 313 0 l 178 78 l 178 -1 l 313 -79 m 322 16 l 391 56 l 256 134 l 187 94 l 322 16 m 332 -79 l 400 -39 l 400 40 l 331 0 l 332 -79 z "},"/":{"ha":1017,"x_min":145,"x_max":872,"o":"m 380 -92 l 306 -78 l 150 12 q 145 19 145 15 l 629 1139 q 630 1140 629 1139 q 630 1141 630 1141 q 631 1143 631 1142 l 634 1144 l 639 1145 l 676 1138 q 715 1130 713 1131 l 868 1040 l 869 1040 q 871 1038 870 1039 l 871 1037 l 871 1037 l 872 1033 l 871 1029 l 389 -86 q 380 -92 386 -92 m 812 1052 l 707 1113 l 688 1116 l 793 1055 l 812 1052 m 303 -56 l 778 1042 l 641 1122 l 166 24 l 303 -56 m 374 -73 l 850 1026 l 795 1036 l 320 -62 l 374 -73 z "},":":{"ha":578,"x_min":160,"x_max":419,"o":"m 322 523 l 319 523 l 165 613 q 160 621 160 616 l 160 722 q 164 729 160 726 q 256 781 254 781 q 337 735 259 781 q 415 690 414 690 q 416 689 416 690 q 416 688 416 689 l 417 687 q 418 686 418 687 l 418 684 l 418 583 q 414 574 418 577 q 322 523 325 523 m 332 548 l 400 588 l 400 667 l 331 627 l 332 548 m 322 643 l 391 683 l 256 761 l 187 721 l 322 643 m 313 548 l 313 627 l 178 705 l 178 626 l 313 548 m 323 272 q 321 273 321 272 l 318 273 l 165 362 q 161 370 161 365 l 161 471 q 165 479 161 476 q 257 530 254 530 q 337 485 260 530 q 416 439 415 439 l 416 439 l 417 438 l 418 436 l 418 436 l 419 433 l 419 332 q 415 323 419 326 q 323 272 326 272 m 313 297 l 313 376 l 179 454 l 179 376 l 313 297 m 323 392 l 391 432 l 257 510 l 188 471 l 323 392 m 332 297 l 401 337 l 401 416 l 332 376 l 332 297 z "},";":{"ha":578,"x_min":159,"x_max":419,"o":"m 323 172 l 319 173 l 165 262 q 161 271 161 265 l 160 472 q 165 479 161 477 q 256 531 254 531 q 414 440 259 531 q 416 439 415 439 q 417 437 416 438 q 418 434 417 436 l 419 232 q 414 224 419 227 q 323 172 325 172 m 313 197 l 313 377 l 178 455 l 179 276 l 313 197 m 322 393 l 391 433 l 256 511 l 187 471 l 322 393 m 332 197 l 401 237 l 400 416 l 331 377 l 332 197 m 321 524 l 319 524 q 317 524 318 524 l 164 614 q 159 621 159 616 l 159 722 q 163 730 160 727 q 256 781 253 781 q 336 736 258 781 q 415 689 414 691 q 417 688 416 688 q 418 686 417 686 l 418 583 q 414 575 418 578 q 321 524 325 524 m 331 549 l 399 588 l 399 667 l 330 627 l 331 549 m 321 644 l 390 683 l 256 762 l 186 722 l 321 644 m 313 549 l 312 627 l 178 706 l 178 627 l 313 549 z "},"=":{"ha":1017,"x_min":161,"x_max":857,"o":"m 324 146 q 322 146 323 146 l 320 146 q 319 147 320 147 l 167 236 q 162 244 162 239 l 162 345 q 166 352 162 350 l 282 419 l 166 487 q 161 494 161 490 l 161 595 l 161 595 q 165 603 161 600 q 694 907 690 907 q 852 817 696 907 q 852 816 852 816 l 852 815 l 854 814 l 854 814 l 855 813 l 855 812 q 856 810 856 812 l 857 708 q 852 700 857 703 l 736 633 l 852 566 q 853 565 853 566 l 856 562 l 857 557 l 857 458 q 852 450 857 452 q 324 146 326 146 m 332 422 l 838 713 l 838 793 l 332 501 l 332 422 m 323 517 l 828 808 l 694 887 l 189 595 l 323 517 m 314 422 l 314 501 l 179 579 l 180 500 l 314 422 m 315 172 l 315 250 l 180 328 l 180 250 l 315 172 m 324 266 l 829 557 l 718 623 q 323 397 326 397 l 319 397 l 319 398 l 300 408 l 189 344 l 324 266 m 333 171 l 838 463 l 838 542 l 333 250 l 333 171 z "},"?":{"ha":1017,"x_min":160,"x_max":857,"o":"m 543 22 l 540 22 q 538 22 540 22 l 538 23 l 385 112 q 380 119 380 115 l 380 221 q 385 228 381 225 l 436 257 l 385 287 q 380 295 380 290 l 380 428 q 323 397 326 397 q 320 398 321 397 q 318 398 319 398 l 165 487 q 161 495 161 490 l 160 847 q 165 854 161 852 q 693 1158 690 1158 q 773 1113 695 1158 q 852 1066 851 1067 q 853 1065 852 1065 q 857 583 855 1059 q 852 575 856 578 l 638 452 l 639 256 q 634 249 639 252 l 583 219 l 636 189 l 637 186 q 640 81 639 186 q 635 73 639 76 q 543 22 546 22 m 314 422 l 313 752 l 178 830 l 179 500 l 314 422 m 322 768 l 827 1059 l 692 1138 l 187 846 l 322 768 m 533 222 l 532 502 l 419 568 l 420 456 q 415 448 419 451 l 398 439 l 399 300 l 533 222 m 541 517 l 741 633 l 606 711 l 419 603 l 419 589 l 541 517 m 750 649 l 749 893 l 616 816 l 616 727 l 750 649 m 419 625 l 597 727 l 597 805 l 419 702 l 419 625 m 534 47 l 533 125 l 399 204 l 399 125 l 534 47 m 552 47 l 621 86 l 621 165 l 551 125 l 552 47 m 543 142 l 611 182 l 565 209 q 542 197 545 197 q 540 197 541 197 q 538 198 539 198 q 454 247 538 198 l 408 220 l 543 142 m 551 222 l 621 262 l 620 457 q 625 465 620 463 l 838 589 l 837 1044 l 332 752 q 332 422 332 536 l 401 462 l 400 707 q 405 715 401 713 q 759 918 756 918 q 768 909 768 918 q 769 633 769 771 q 764 625 768 627 l 551 502 l 551 222 z "},"@":{"ha":1017,"x_min":160,"x_max":857,"o":"m 637 686 l 637 589 l 751 524 l 749 893 l 616 816 l 616 701 q 634 691 633 691 q 634 690 634 690 q 637 686 635 690 m 638 448 l 741 508 l 637 568 l 638 448 m 334 -79 l 839 213 l 839 292 q 412 46 414 46 q 402 56 402 46 q 400 707 401 382 q 406 716 401 713 q 759 918 755 918 q 768 909 768 918 l 769 507 q 764 500 768 503 l 631 423 q 620 433 620 423 l 619 667 l 550 627 l 551 298 l 838 463 l 837 1044 l 332 752 l 334 -79 m 322 768 l 827 1060 l 693 1138 l 188 846 l 322 768 m 315 -79 l 313 752 l 178 830 l 181 -1 l 315 -79 m 420 248 l 500 295 l 420 342 l 420 248 m 533 298 l 532 627 l 419 693 l 420 363 l 533 298 m 597 711 l 597 805 l 517 759 l 597 711 m 541 644 l 610 683 l 498 748 l 429 708 l 541 644 m 420 72 l 829 308 l 718 372 q 542 273 544 273 q 519 284 540 273 l 420 227 l 420 72 m 324 -104 l 321 -104 l 167 -14 q 162 -6 163 -12 l 160 847 q 165 854 161 852 q 693 1158 690 1158 q 773 1113 695 1158 q 852 1067 851 1067 q 853 1064 852 1066 q 855 1060 854 1062 l 857 458 q 852 450 857 453 l 736 383 l 854 315 q 855 314 854 314 q 856 312 855 313 q 857 311 856 311 q 857 208 857 310 q 852 199 857 202 q 324 -104 327 -104 z "},"A":{"ha":1017,"x_min":160,"x_max":857,"o":"m 410 422 q 406 424 408 422 q 401 432 401 427 l 401 708 q 405 715 401 713 q 759 919 755 919 q 768 909 767 919 l 769 633 q 764 625 768 628 q 410 422 413 422 m 419 625 l 597 728 l 597 805 l 419 703 l 419 625 m 420 448 l 741 633 l 607 711 l 419 604 l 420 448 m 750 650 l 749 893 l 616 816 l 616 728 l 750 650 m 325 -104 l 321 -104 q 321 -103 321 -103 l 167 -14 q 163 -6 163 -12 l 160 847 q 165 854 161 852 q 693 1158 690 1158 q 774 1113 696 1158 l 852 1067 l 853 1066 l 855 1061 l 857 208 q 853 199 857 202 l 764 148 l 759 148 l 604 238 q 599 246 599 241 l 598 429 l 420 326 l 421 -45 q 416 -52 421 -50 q 325 -104 327 -104 m 315 -79 l 313 752 l 178 831 l 181 -1 l 315 -79 m 322 768 l 827 1060 l 693 1138 l 188 846 l 322 768 m 751 173 l 751 517 l 616 439 l 617 252 l 751 173 m 334 -79 l 403 -39 l 401 332 q 406 340 401 337 q 760 543 758 543 q 769 533 769 543 l 770 173 l 839 213 l 837 1044 l 332 752 l 334 -79 z "},"B":{"ha":1017,"x_min":160,"x_max":858,"o":"m 325 -104 q 323 -104 323 -104 l 321 -104 l 168 -14 q 163 -6 163 -12 l 160 847 l 161 847 q 165 854 161 852 q 693 1158 690 1158 q 774 1113 696 1158 l 852 1067 l 853 1066 l 853 1065 l 854 1065 l 855 1061 l 857 728 q 753 605 857 726 l 853 547 l 854 546 l 856 543 l 857 539 l 858 208 q 853 199 858 202 q 325 -104 328 -104 m 703 548 l 814 549 l 741 591 l 703 548 m 315 -79 l 313 752 l 179 831 l 181 -1 l 315 -79 m 323 768 l 828 1060 l 693 1138 l 188 846 l 323 768 m 334 -79 l 840 213 l 838 530 l 683 530 q 674 539 674 530 q 838 732 674 542 l 837 1044 l 332 752 q 334 -79 332 336 m 412 47 q 403 56 403 47 l 402 332 q 406 340 402 337 l 571 435 q 761 436 574 436 q 770 427 770 436 l 770 256 q 766 250 770 252 q 412 47 414 47 m 420 249 l 599 351 l 599 417 l 578 417 l 420 326 l 420 249 m 421 72 l 743 258 l 608 336 l 420 227 l 421 72 m 752 273 l 751 418 l 617 417 l 617 351 l 752 273 m 411 422 q 401 432 401 422 l 401 708 q 406 715 401 713 q 760 919 757 919 q 768 909 768 919 l 769 740 l 768 736 l 767 734 l 582 521 q 497 471 581 519 q 411 422 413 422 m 420 448 l 557 527 l 422 605 l 420 604 l 420 448 m 751 755 l 750 893 l 631 825 l 751 755 m 573 538 l 745 737 l 613 814 l 600 807 l 437 618 l 573 538 m 420 627 l 551 779 l 419 703 l 420 627 z "},"C":{"ha":1017,"x_min":160,"x_max":858,"o":"m 325 -104 q 323 -104 323 -104 l 321 -104 l 321 -103 l 320 -103 l 168 -14 q 163 -6 163 -12 l 160 846 l 161 847 q 165 854 161 852 q 693 1158 690 1158 q 851 1068 696 1158 l 852 1067 l 852 1067 l 852 1066 l 853 1066 l 853 1065 l 854 1065 l 855 1062 l 856 834 q 851 826 856 829 q 762 775 763 775 q 758 774 761 774 l 758 775 l 756 775 l 651 836 l 419 703 l 420 248 l 599 351 l 599 472 q 602 478 599 475 q 648 505 602 479 q 695 531 693 531 q 775 486 698 531 q 854 439 853 440 l 854 439 l 855 438 l 856 438 l 857 435 l 857 434 l 858 208 q 853 199 858 202 q 325 -104 328 -104 m 761 393 l 829 433 l 695 511 l 626 471 l 761 393 m 752 273 l 751 377 l 617 455 l 617 351 l 752 273 m 421 72 l 743 257 l 608 336 l 420 227 l 421 72 m 750 800 l 750 893 l 669 847 l 750 800 m 315 -79 l 313 752 l 179 830 l 181 -1 l 315 -79 m 323 768 l 828 1060 l 693 1138 l 188 846 l 323 768 m 334 -79 l 840 213 l 839 417 l 770 377 l 770 256 q 766 250 770 252 q 414 46 415 47 q 412 46 413 46 q 408 47 410 46 q 403 56 403 50 l 401 707 q 406 715 401 713 q 759 918 757 918 q 764 917 762 918 q 768 909 768 914 l 769 800 l 838 840 l 837 1044 l 332 752 q 334 -79 332 336 z "},"D":{"ha":1017,"x_min":160,"x_max":857,"o":"m 412 46 q 408 47 410 46 q 403 56 403 50 l 401 707 q 406 715 401 713 q 566 807 564 807 q 764 696 568 807 q 769 688 769 693 l 770 477 q 769 476 769 477 q 672 308 769 475 q 573 138 576 140 q 412 46 414 46 m 420 262 l 598 570 l 597 770 l 566 787 l 419 702 l 420 262 m 421 71 l 550 146 l 420 221 l 421 71 m 565 159 l 747 475 l 610 555 l 428 238 l 565 159 m 751 494 l 750 682 l 616 759 l 616 572 l 751 494 m 325 -104 q 321 -104 323 -104 q 167 -14 319 -103 q 160 846 160 -10 q 165 854 161 852 q 447 1017 446 1017 q 450 1017 448 1017 q 699 876 452 1017 q 853 786 852 787 q 855 784 854 785 q 857 488 856 783 q 734 272 857 485 q 609 58 611 60 q 325 -104 327 -104 m 315 -79 l 313 752 l 178 830 l 181 -1 l 315 -79 m 322 768 l 584 919 l 449 997 l 188 846 l 322 768 m 334 -79 l 598 73 l 838 490 l 838 774 l 602 908 l 332 752 l 334 -79 z "},"E":{"ha":1017,"x_min":160,"x_max":858,"o":"m 325 -104 l 322 -104 l 167 -14 q 163 -7 163 -12 l 160 847 q 165 854 161 852 q 693 1158 690 1158 q 773 1113 696 1158 q 852 1067 851 1067 l 853 1065 l 853 1065 q 854 1064 854 1065 q 854 1063 854 1064 l 855 1061 l 855 959 q 851 951 855 954 l 419 702 l 419 625 q 694 782 692 782 q 774 736 696 782 q 853 690 852 691 q 854 690 854 690 l 854 689 l 854 689 l 854 688 l 855 688 l 856 684 q 857 583 857 684 q 852 575 857 578 l 420 326 l 420 248 q 695 406 692 406 q 777 360 698 406 l 854 315 l 855 313 l 855 313 l 856 313 l 857 311 l 857 309 l 858 207 q 853 199 857 202 q 325 -104 328 -104 m 421 71 l 829 307 l 695 386 l 420 227 l 421 71 m 420 448 l 829 684 l 694 762 l 419 603 l 420 448 m 315 -79 l 313 752 l 178 830 l 181 -1 l 315 -79 m 322 768 l 827 1059 l 693 1138 l 188 846 l 322 768 m 334 -79 l 839 212 l 839 292 q 412 46 414 46 q 403 56 403 46 l 401 331 q 406 339 402 336 l 838 589 l 838 667 q 411 422 413 422 q 401 431 401 422 l 401 707 q 406 715 401 713 l 837 964 l 837 1044 l 332 752 l 334 -79 z "},"F":{"ha":1017,"x_min":160,"x_max":857,"o":"m 325 -104 l 321 -104 l 168 -15 q 163 -7 163 -12 l 160 846 q 165 854 161 851 q 693 1158 690 1158 q 850 1067 696 1158 l 852 1066 l 853 1065 l 853 1065 l 854 1065 l 855 1062 l 856 959 q 851 951 855 954 l 419 702 l 419 624 q 694 781 692 781 q 774 736 696 781 q 852 690 852 691 l 853 690 l 853 690 q 854 689 854 689 q 855 688 854 688 q 855 688 855 688 l 856 684 l 857 684 l 857 583 q 852 575 857 578 l 420 326 l 421 -45 q 416 -53 421 -50 q 325 -104 328 -104 m 420 447 l 829 683 l 694 762 l 420 603 l 420 447 m 315 -79 l 313 751 l 179 830 l 181 -1 l 315 -79 m 322 768 l 827 1059 l 693 1137 l 188 846 l 322 768 m 334 -79 l 403 -40 l 401 331 q 406 339 402 336 l 838 588 l 838 667 q 411 422 413 422 q 401 431 402 422 l 401 707 q 406 715 401 712 l 837 964 l 837 1043 l 332 751 l 334 -79 z "},"G":{"ha":1017,"x_min":160,"x_max":857,"o":"m 324 -104 l 321 -104 l 167 -15 q 162 -7 163 -12 l 160 846 q 165 854 161 851 q 692 1158 690 1158 q 773 1112 695 1158 l 851 1067 l 852 1066 l 852 1066 l 853 1065 q 854 1064 853 1064 l 854 1063 q 854 1061 854 1063 l 854 1060 q 855 959 855 1060 q 850 951 855 954 l 419 702 l 420 248 l 598 351 l 598 429 l 587 422 l 583 422 l 428 513 q 423 521 423 515 l 422 621 q 423 622 423 621 q 427 629 423 627 q 694 781 691 781 q 774 736 696 781 q 852 690 852 691 l 853 690 q 854 689 854 690 l 854 688 l 855 688 l 855 687 l 856 684 l 857 207 q 852 199 857 201 q 324 -104 328 -104 m 576 448 l 576 527 l 441 605 l 441 526 l 576 448 m 585 543 l 828 683 l 694 762 l 450 621 l 585 543 m 420 71 l 742 257 l 608 335 l 420 227 l 420 71 m 751 273 l 751 517 l 616 439 l 616 351 l 751 273 m 315 -79 l 313 751 l 178 830 l 180 -1 l 315 -79 m 322 768 l 827 1059 l 692 1137 l 187 846 l 322 768 m 334 -79 l 839 212 l 838 667 l 594 527 q 595 448 594 479 q 760 542 758 542 q 769 532 769 542 l 770 256 q 765 249 769 251 l 414 46 q 402 55 402 46 l 400 707 q 405 715 401 712 l 837 964 l 836 1043 l 331 751 q 334 -79 333 336 z "},"H":{"ha":1017,"x_min":160,"x_max":858,"o":"m 325 -104 l 322 -104 l 321 -104 l 320 -104 l 168 -15 q 163 -7 163 -12 l 160 846 q 165 854 161 851 q 257 905 254 905 q 337 860 259 905 q 415 814 415 815 l 416 814 l 416 813 l 418 812 l 418 808 l 419 808 l 419 624 l 597 727 l 597 1099 q 601 1106 597 1103 q 693 1158 690 1158 q 774 1112 696 1158 l 852 1066 l 853 1065 l 853 1065 l 855 1062 l 858 207 q 853 199 857 201 l 764 147 q 758 148 759 147 q 757 149 757 148 l 604 237 q 599 245 599 240 l 598 429 l 420 326 l 421 -45 q 416 -53 421 -50 q 325 -104 328 -104 m 759 1019 l 827 1059 l 693 1137 l 624 1098 l 759 1019 m 751 649 l 749 1004 l 615 1082 l 616 727 l 751 649 m 420 447 l 741 633 l 607 711 l 420 603 l 420 447 m 315 -79 l 313 751 l 178 830 l 181 -1 l 315 -79 m 322 768 l 391 808 l 256 886 l 188 846 l 322 768 m 752 172 l 751 517 l 617 439 l 617 251 l 752 172 m 334 -79 l 403 -40 l 401 331 q 406 339 402 336 q 760 542 758 542 q 769 532 769 542 l 770 172 l 839 212 l 837 1043 l 768 1004 l 769 632 q 764 625 768 627 q 413 422 414 422 q 411 422 412 422 q 401 431 401 422 l 400 791 l 332 751 l 334 -79 z "},"I":{"ha":1017,"x_min":160,"x_max":857,"o":"m 324 -104 l 321 -104 l 167 -15 q 162 -7 162 -12 l 162 94 q 167 102 163 99 l 380 225 l 379 679 l 327 648 q 325 648 326 648 l 319 648 q 319 648 319 648 l 317 648 l 317 649 l 165 738 q 160 745 160 741 l 160 846 q 164 854 161 851 q 692 1158 690 1158 q 773 1112 695 1158 l 851 1067 l 852 1066 l 852 1066 l 853 1065 q 854 1064 853 1064 l 854 1063 q 854 1061 854 1063 l 854 1060 q 855 959 855 1060 q 850 951 855 954 l 637 828 l 638 374 q 695 406 692 406 q 775 360 697 406 q 854 315 853 315 l 854 314 l 856 312 l 857 309 l 857 307 l 857 207 q 852 199 857 201 q 324 -104 328 -104 m 639 197 l 829 307 l 695 385 l 638 353 l 639 197 m 313 673 l 313 751 l 178 830 l 178 751 l 313 673 m 322 768 l 827 1059 l 692 1137 l 187 846 l 322 768 m 315 -79 l 315 -1 l 180 77 l 180 -1 l 315 -79 m 324 16 l 524 131 l 389 209 l 190 94 l 324 16 m 533 146 l 531 767 l 397 689 l 399 225 l 533 146 m 334 -79 l 839 212 l 839 291 l 634 173 q 629 172 633 172 q 621 181 621 172 l 618 833 q 623 841 618 838 l 837 964 l 836 1043 l 331 751 l 332 673 l 383 703 q 541 792 538 792 q 550 783 549 792 l 551 130 q 547 123 551 125 l 334 -1 l 334 -79 z "},"J":{"ha":1017,"x_min":160,"x_max":856,"o":"m 323 -104 l 319 -104 l 319 -103 l 165 -14 q 161 -6 161 -12 l 160 296 q 165 302 161 300 q 256 354 254 354 q 337 309 259 354 q 415 263 415 264 l 416 263 q 416 262 416 263 l 417 262 l 418 260 l 418 258 l 419 258 l 419 248 l 597 351 l 595 1049 q 600 1056 596 1053 q 691 1107 688 1107 q 772 1062 694 1107 q 850 1017 850 1017 l 851 1017 l 851 1016 l 852 1016 l 852 1014 l 853 1014 l 853 1013 l 854 1010 l 856 208 q 852 199 856 202 q 323 -104 326 -104 m 758 970 l 826 1010 l 692 1088 l 623 1048 l 758 970 m 750 273 l 748 954 l 614 1032 l 616 351 l 750 273 m 420 72 l 741 257 l 606 335 l 419 227 l 420 72 m 314 -79 l 313 201 l 179 279 l 180 -1 l 314 -79 m 322 216 l 391 256 l 257 334 l 188 294 l 322 216 m 332 -79 l 838 212 l 836 994 l 766 954 l 768 256 q 764 249 768 252 q 410 46 413 46 q 406 47 408 46 q 401 56 401 50 l 401 240 l 332 201 l 332 -79 z "},"K":{"ha":1017,"x_min":160,"x_max":874,"o":"m 325 -104 l 322 -104 q 321 -104 322 -104 l 320 -103 l 167 -14 q 163 -6 163 -12 l 160 847 q 165 854 161 852 q 256 906 254 906 q 337 861 259 906 l 415 815 l 415 814 l 416 814 l 416 813 l 418 812 l 418 808 l 419 655 l 629 1140 l 629 1140 l 631 1142 l 634 1144 l 634 1145 l 639 1145 l 715 1130 l 867 1041 l 869 1040 l 869 1040 l 871 1038 l 871 1037 l 872 1034 l 872 1034 q 871 1030 872 1031 l 648 514 l 872 259 q 874 254 874 257 q 800 150 874 250 l 800 150 q 798 149 800 149 l 797 147 l 795 147 l 795 146 l 788 147 q 711 193 788 148 q 633 239 634 237 l 511 378 l 420 326 l 421 -45 q 416 -53 421 -50 q 325 -104 328 -104 m 812 1052 l 707 1114 l 688 1117 l 793 1056 l 812 1052 m 557 532 l 779 1043 l 642 1122 l 420 612 l 557 532 m 420 448 l 543 519 l 419 591 l 420 448 m 315 -79 l 313 752 l 178 830 l 181 -1 l 315 -79 m 322 768 l 391 808 l 256 886 l 188 846 l 322 768 m 749 192 l 560 407 l 527 387 l 646 252 l 749 192 m 334 -79 l 403 -39 l 401 331 q 406 339 401 336 l 557 427 q 564 428 560 428 q 792 170 566 427 l 853 253 q 629 512 629 509 q 850 1026 629 514 l 795 1036 l 570 515 l 569 513 l 569 513 l 568 513 l 568 512 l 413 422 q 406 424 408 422 q 401 431 401 427 l 400 791 l 332 752 l 334 -79 z "},"L":{"ha":1017,"x_min":160,"x_max":858,"o":"m 325 -104 q 323 -104 323 -104 l 321 -104 l 321 -103 l 320 -103 l 168 -14 q 163 -6 163 -12 l 160 847 l 161 847 q 162 851 161 849 q 209 880 163 853 q 257 906 255 906 q 337 861 260 906 q 416 815 415 816 l 416 814 l 416 814 l 416 814 l 417 814 l 418 812 l 418 812 l 418 812 q 419 810 418 810 l 419 809 q 420 249 419 529 q 695 406 693 406 q 775 361 698 406 q 854 315 853 315 l 854 315 l 854 314 l 855 314 l 855 313 l 856 313 l 857 310 l 858 208 q 853 199 858 202 q 325 -104 328 -104 m 421 72 l 830 308 l 695 386 l 420 227 l 421 72 m 315 -79 l 313 752 l 179 830 l 181 -1 l 315 -79 m 323 768 l 391 808 l 257 886 l 188 846 l 323 768 m 334 -79 l 840 213 l 839 292 q 412 47 414 47 q 403 56 403 47 l 401 792 l 332 752 l 334 -79 z "},"M":{"ha":1017,"x_min":160,"x_max":857,"o":"m 325 -104 q 321 -104 321 -104 l 320 -104 l 167 -14 q 162 -7 163 -12 l 160 846 q 165 854 161 851 q 693 1158 690 1158 q 774 1112 695 1158 l 852 1067 l 852 1066 l 852 1066 l 852 1065 l 853 1065 l 854 1064 l 855 1060 l 857 207 q 853 199 857 201 q 763 148 764 148 q 761 147 762 147 l 758 148 l 639 217 l 640 81 q 635 73 639 76 q 545 21 546 22 q 543 21 544 21 q 540 21 541 21 q 538 22 539 22 l 420 91 l 421 -45 q 416 -53 421 -50 q 325 -104 328 -104 m 315 -79 l 313 751 l 178 830 l 181 -1 l 315 -79 m 322 768 l 827 1059 l 693 1137 l 188 846 l 322 768 m 534 47 l 532 767 l 419 702 l 420 112 l 534 47 m 751 172 l 749 892 l 637 828 l 639 238 l 751 172 m 334 -79 l 403 -40 l 401 707 q 405 715 401 712 q 541 792 538 792 q 550 783 550 792 l 552 47 l 621 86 l 621 233 l 618 833 q 623 841 618 838 q 759 918 756 918 q 768 909 768 918 l 770 172 l 839 212 l 837 1044 l 332 751 l 334 -79 z "},"N":{"ha":1017,"x_min":160,"x_max":858,"o":"m 325 -104 q 321 -104 322 -104 l 320 -104 l 168 -14 q 163 -7 163 -12 l 160 846 q 165 854 161 851 q 257 905 254 905 q 337 861 259 905 l 414 815 l 415 815 l 417 813 l 598 576 l 597 1099 q 602 1106 597 1103 q 693 1158 690 1158 q 774 1112 696 1158 l 852 1067 l 853 1065 l 853 1065 q 854 1063 854 1065 l 855 1061 l 858 207 q 853 199 858 201 l 764 148 l 762 147 l 760 147 l 760 148 q 680 193 758 148 q 601 240 602 238 l 420 476 l 421 -45 q 417 -53 421 -50 q 325 -104 328 -104 m 759 1020 l 827 1059 l 693 1137 l 625 1098 l 759 1020 m 751 376 l 749 1004 l 615 1082 l 616 553 l 751 376 m 315 -79 l 313 751 l 179 830 l 181 -1 l 315 -79 m 322 768 l 391 808 l 257 886 l 188 846 l 322 768 m 726 188 l 420 587 l 420 507 l 614 252 l 726 188 m 334 -79 l 403 -40 l 401 614 q 411 624 401 624 q 418 621 415 624 l 764 169 l 840 212 l 837 1044 l 768 1004 l 770 349 q 764 340 770 343 l 756 341 q 408 795 753 345 l 332 751 q 334 -79 332 336 z "},"O":{"ha":1017,"x_min":160,"x_max":857,"o":"m 324 -104 q 321 -104 321 -104 l 320 -104 l 167 -14 q 162 -7 163 -12 l 160 846 q 165 854 161 851 q 693 1158 690 1158 q 773 1112 695 1158 l 851 1067 l 852 1067 l 852 1066 l 852 1066 l 852 1065 l 853 1065 l 854 1064 l 854 1063 q 855 1061 854 1061 q 855 1060 855 1061 l 857 207 q 852 199 857 201 q 324 -104 328 -104 m 315 -79 l 313 751 l 178 830 l 181 -1 l 315 -79 m 322 768 l 827 1059 l 693 1137 l 188 846 l 322 768 m 334 -79 l 839 212 l 837 1044 l 332 751 l 334 -79 m 412 46 q 402 55 402 46 l 400 707 q 405 715 401 712 q 759 918 755 918 q 768 909 768 918 l 770 256 q 765 249 769 252 q 412 46 414 46 m 420 248 l 598 351 l 597 805 l 419 702 l 420 248 m 420 71 l 742 257 l 608 335 l 420 227 l 420 71 m 751 273 l 749 892 l 616 815 l 617 351 l 751 273 z "},"P":{"ha":1017,"x_min":160,"x_max":857,"o":"m 325 -104 l 322 -104 l 321 -104 l 320 -104 l 168 -14 q 163 -7 163 -12 l 160 847 q 165 854 161 851 q 693 1158 690 1158 q 774 1112 696 1158 l 852 1067 l 853 1065 q 854 1065 853 1065 l 855 1061 l 857 583 q 852 575 857 578 l 420 326 l 421 -45 q 416 -53 421 -50 q 325 -104 328 -104 m 315 -79 l 313 751 l 179 830 l 181 -1 l 315 -79 m 322 768 l 827 1059 l 693 1137 l 188 846 l 322 768 m 334 -79 l 403 -40 l 401 331 q 406 339 402 336 l 838 589 l 837 1044 l 332 751 l 334 -79 m 411 422 q 401 431 401 422 l 401 707 q 406 715 401 712 q 759 918 756 918 q 768 909 768 918 l 769 632 q 764 625 768 627 q 411 422 413 422 m 419 624 l 597 727 l 597 805 l 419 702 l 419 624 m 420 448 l 741 633 l 607 711 l 420 603 l 420 448 m 751 649 l 750 892 l 616 815 l 616 727 l 751 649 z "},"Q":{"ha":1017,"x_min":160,"x_max":876,"o":"m 325 -104 l 322 -104 q 321 -103 322 -104 q 167 -14 320 -103 q 163 -7 163 -12 l 160 847 q 165 854 161 852 q 693 1158 690 1158 q 773 1113 696 1158 q 851 1067 851 1067 q 853 1065 852 1066 q 855 1061 854 1063 l 857 557 l 856 483 l 770 334 l 871 275 q 872 275 871 275 q 876 271 873 275 q 875 265 876 266 l 875 264 l 813 157 q 806 152 810 152 q 699 211 803 152 l 612 62 q 469 -22 612 60 q 325 -104 327 -104 m 315 -79 l 313 752 l 178 830 l 181 -1 l 315 -79 m 322 768 l 827 1059 l 693 1138 l 188 846 l 322 768 m 334 -79 l 598 73 l 688 228 q 695 233 690 233 q 802 174 697 233 l 854 264 l 752 322 q 747 330 747 325 q 838 490 747 332 l 837 1044 l 332 752 l 334 -79 m 412 46 q 403 56 403 46 l 401 707 q 406 715 401 713 q 759 918 758 918 q 768 909 767 918 l 770 478 l 769 478 l 769 477 q 701 358 703 361 l 700 358 q 698 356 699 357 q 694 356 696 356 q 691 357 692 357 q 589 415 690 357 l 536 325 l 638 267 q 643 258 643 264 q 609 198 643 256 q 574 139 575 140 q 494 92 573 138 q 412 46 414 46 m 538 467 l 598 570 l 597 805 l 419 702 l 420 513 q 425 521 422 517 q 434 526 427 526 q 538 467 437 525 m 420 262 l 467 343 l 420 371 l 420 262 m 421 71 l 550 146 l 420 221 l 421 71 m 565 159 l 621 256 l 519 313 q 515 321 515 316 q 573 425 515 323 l 436 504 l 420 476 l 420 392 l 485 355 q 489 347 489 352 q 428 238 489 343 l 565 159 m 692 378 l 747 475 l 610 555 l 555 458 l 692 378 m 751 494 l 750 893 l 616 815 l 616 572 l 751 494 z "},"R":{"ha":1017,"x_min":160,"x_max":875,"o":"m 325 -104 l 322 -104 q 321 -103 322 -104 q 168 -14 320 -103 q 163 -6 163 -12 l 160 847 q 165 854 161 852 q 693 1158 690 1158 q 773 1113 696 1158 q 852 1067 851 1067 l 852 1067 l 854 1064 q 857 583 855 1064 q 852 575 857 578 l 682 477 q 875 254 874 257 q 873 248 875 250 l 800 150 l 800 150 q 798 148 800 149 q 795 147 797 147 l 795 146 q 790 148 792 147 q 711 193 788 148 q 633 239 634 237 l 511 378 l 420 326 l 421 -45 q 416 -53 421 -50 q 325 -104 328 -104 m 315 -79 l 313 752 l 179 830 l 181 -1 l 315 -79 m 322 768 l 827 1060 l 693 1138 l 188 846 l 322 768 m 749 192 l 560 407 l 527 387 l 646 252 l 749 192 m 334 -79 l 403 -39 l 401 332 q 406 339 402 336 l 557 427 q 564 428 561 428 q 792 170 566 427 l 853 253 q 658 479 658 477 q 663 487 658 484 l 838 589 l 837 1044 l 332 752 l 334 -79 m 411 422 q 401 431 401 422 l 401 707 q 406 715 401 713 q 759 918 758 918 q 768 909 768 918 l 769 633 q 764 625 768 628 q 411 422 413 422 m 419 625 l 597 728 l 597 805 l 419 702 l 419 625 m 420 448 l 741 633 l 607 711 l 420 603 l 420 448 m 751 649 l 750 893 l 616 816 l 616 728 l 751 649 z "},"S":{"ha":1017,"x_min":160,"x_max":857,"o":"m 324 -104 l 321 -104 l 167 -14 q 162 -7 162 -12 l 162 94 q 167 102 163 99 l 598 351 l 598 429 q 323 271 326 271 q 165 361 321 271 q 161 370 161 364 l 160 846 q 164 854 161 851 q 692 1158 690 1158 q 851 1067 695 1158 l 852 1067 q 852 1066 852 1066 q 853 1065 852 1065 l 854 1060 q 855 959 855 1060 q 850 951 855 954 l 419 702 l 419 624 q 694 781 691 781 q 774 736 696 781 q 852 690 852 691 l 853 690 l 854 688 q 857 207 856 688 q 852 199 857 201 q 324 -104 328 -104 m 420 448 l 828 684 l 694 762 l 419 603 l 420 448 m 314 297 l 313 751 l 178 830 l 180 375 l 314 297 m 322 768 l 827 1059 l 692 1137 l 187 846 l 322 768 m 315 -79 l 315 -1 l 180 78 l 180 -1 l 315 -79 m 324 16 l 742 257 l 608 335 l 190 94 l 324 16 m 751 273 l 751 517 l 616 439 l 616 351 l 751 273 m 334 -79 l 839 212 l 838 667 q 410 422 413 422 q 401 431 402 422 q 400 707 401 608 q 405 715 401 712 l 837 964 l 836 1044 l 331 751 q 332 296 332 524 q 760 542 757 542 q 769 532 769 542 l 770 256 q 765 249 769 252 l 334 -1 l 334 -79 z "},"T":{"ha":1017,"x_min":160,"x_max":855,"o":"m 543 22 q 539 22 540 22 q 385 112 538 23 q 380 119 381 115 l 379 679 q 325 648 326 648 q 323 648 324 648 l 318 649 l 165 738 q 161 746 161 741 l 160 847 q 165 854 161 852 q 693 1158 690 1158 q 773 1113 696 1158 q 851 1067 851 1067 q 853 1065 852 1066 q 855 1061 854 1063 l 855 960 q 851 951 855 954 l 637 828 l 640 81 q 635 73 640 76 q 543 22 545 22 m 313 673 l 313 752 l 178 830 l 179 751 l 313 673 m 322 768 l 827 1059 l 693 1138 l 188 846 l 322 768 m 534 47 l 532 767 l 397 690 l 399 125 l 534 47 m 552 47 l 621 86 l 619 833 q 623 842 619 838 l 837 964 l 837 1044 l 332 752 l 332 673 q 541 792 538 792 q 550 783 550 792 l 552 47 z "},"U":{"ha":1017,"x_min":160,"x_max":857,"o":"m 325 -104 l 322 -104 l 167 -14 q 162 -6 163 -12 l 160 847 q 165 854 161 852 q 256 906 254 906 q 414 815 259 906 l 416 814 l 416 814 l 416 814 l 416 813 l 418 812 l 418 808 l 420 248 l 599 351 l 596 1099 l 597 1099 q 601 1106 597 1103 q 693 1158 690 1158 q 774 1112 696 1158 l 852 1067 l 852 1066 l 852 1066 l 852 1065 l 853 1065 l 854 1064 l 854 1063 l 854 1063 q 855 1061 854 1061 l 857 207 q 853 199 857 202 q 325 -104 327 -104 m 759 1020 l 827 1059 l 693 1138 l 624 1098 l 759 1020 m 751 273 l 749 1004 l 615 1082 l 617 351 l 751 273 m 420 71 l 743 257 l 608 335 l 420 227 l 420 71 m 315 -79 l 313 752 l 178 830 l 181 -1 l 315 -79 m 322 768 l 391 808 l 256 886 l 188 846 l 322 768 m 334 -79 l 839 212 l 837 1044 l 768 1004 l 770 256 q 765 249 769 252 q 412 46 414 46 q 407 47 409 46 q 402 56 403 50 l 400 791 l 332 752 l 334 -79 z "},"V":{"ha":1017,"x_min":160,"x_max":857,"o":"m 587 26 l 319 177 l 166 266 q 162 274 162 269 l 160 846 q 165 854 160 852 q 257 906 254 906 l 262 905 q 415 815 414 816 q 417 814 416 814 q 417 812 417 813 q 418 811 418 811 l 418 809 l 419 809 l 420 284 l 430 279 l 598 570 l 597 1099 q 602 1106 597 1103 q 693 1158 690 1158 q 774 1112 696 1158 q 852 1066 852 1067 q 853 1065 853 1066 q 854 1064 854 1065 q 857 487 855 1064 q 595 31 857 485 q 587 26 591 26 m 759 1020 l 828 1059 l 693 1138 l 625 1098 l 759 1020 m 751 494 l 749 1004 l 615 1082 l 616 572 l 751 494 m 583 190 l 748 475 l 611 555 l 446 269 l 583 190 m 315 201 l 313 752 l 179 830 l 180 279 l 315 201 m 323 768 l 391 808 l 257 886 l 188 846 l 323 768 m 583 47 l 838 490 l 837 1044 l 768 1004 l 770 477 q 681 323 769 475 q 592 170 593 171 q 587 168 590 168 q 407 269 584 168 q 402 277 402 271 l 401 791 l 332 752 l 333 190 l 583 47 z "},"W":{"ha":1017,"x_min":160,"x_max":857,"o":"m 325 -104 q 321 -104 321 -104 q 167 -14 320 -103 q 162 -7 163 -12 l 160 847 q 165 854 161 852 q 256 906 254 906 q 378 836 259 906 l 378 972 q 382 980 379 977 q 475 1031 472 1031 q 597 962 477 1031 l 596 1099 q 601 1106 597 1103 q 693 1158 690 1158 q 852 1067 694 1158 q 852 1066 852 1066 q 853 1064 852 1065 q 855 1061 854 1063 l 857 207 q 853 199 857 202 q 325 -104 327 -104 m 758 1020 l 827 1059 l 693 1138 l 624 1098 l 758 1020 m 751 273 l 749 1004 l 615 1082 l 615 951 q 633 941 633 941 q 634 939 633 941 q 637 936 635 938 l 638 338 l 751 273 m 639 197 l 742 257 l 639 317 l 639 197 m 541 894 l 609 933 l 475 1012 l 406 972 l 541 894 m 533 147 l 531 878 l 397 956 l 397 825 q 416 814 416 814 q 417 812 416 813 q 420 213 418 810 l 533 147 m 420 71 l 524 131 l 420 191 l 420 71 m 315 -79 l 313 752 l 178 830 l 181 -1 l 315 -79 m 322 768 l 391 808 l 256 886 l 188 846 l 322 768 m 334 -79 l 839 212 l 837 1044 l 768 1004 l 770 256 q 765 249 769 252 q 630 172 632 172 q 621 181 621 172 l 618 918 l 549 878 l 552 131 q 547 123 551 126 q 412 46 414 46 q 402 56 403 46 l 400 791 l 332 752 l 334 -79 z "},"X":{"ha":1017,"x_min":143,"x_max":874,"o":"m 380 -92 l 305 -78 l 150 12 q 145 20 145 15 q 369 539 145 22 l 144 795 l 143 798 l 143 802 l 144 806 l 217 903 q 224 907 220 907 q 304 862 227 907 q 383 816 382 817 l 385 815 l 454 736 l 628 1139 l 629 1139 l 629 1140 q 630 1142 629 1141 q 631 1142 631 1142 q 633 1144 631 1143 l 634 1144 l 634 1145 l 638 1145 l 675 1138 q 714 1130 713 1131 l 867 1041 l 867 1040 l 868 1040 l 870 1038 l 871 1038 l 871 1034 l 871 1029 l 648 514 l 871 259 q 874 254 873 256 q 836 199 874 250 l 800 150 q 797 148 798 148 q 796 148 797 148 q 794 146 795 147 l 788 147 l 632 238 l 563 317 l 389 -86 q 380 -92 385 -92 m 811 1052 l 706 1113 l 688 1116 l 793 1055 l 811 1052 m 582 589 l 778 1043 l 641 1122 l 467 720 l 582 589 m 302 724 l 364 806 l 227 886 l 165 803 l 302 724 m 488 488 l 299 704 l 196 764 l 385 548 l 488 488 m 303 -56 l 521 448 l 384 528 l 166 24 l 303 -56 m 748 192 l 588 374 l 571 336 l 645 252 l 748 192 m 374 -72 l 552 338 l 576 395 q 585 401 579 401 q 592 398 589 401 l 791 170 l 853 252 q 628 512 628 509 q 849 1026 628 514 l 795 1036 l 593 569 q 583 564 591 564 l 582 564 q 581 565 582 564 q 378 794 579 565 l 317 711 l 539 458 q 540 457 540 458 l 541 454 q 542 452 541 453 l 541 448 l 320 -62 l 374 -72 z "},"Y":{"ha":1017,"x_min":160,"x_max":857,"o":"m 543 22 l 541 22 l 538 22 l 538 23 l 538 23 l 385 112 q 380 120 380 115 l 380 303 l 328 273 l 326 272 q 319 273 321 272 l 319 273 l 319 273 l 166 362 q 161 370 161 365 l 160 847 q 165 854 161 852 q 256 906 254 906 q 337 861 259 906 l 415 814 l 416 814 l 416 813 l 417 813 l 418 812 l 418 809 l 419 625 l 597 728 l 596 1099 l 597 1099 l 597 1101 q 597 1103 597 1102 q 599 1105 598 1104 q 646 1132 600 1105 q 693 1158 691 1158 q 773 1113 695 1158 q 851 1067 851 1067 l 852 1066 l 852 1065 l 853 1065 l 854 1064 l 854 1061 l 855 1060 l 857 583 q 852 575 857 578 l 638 452 l 640 81 q 635 73 639 76 q 543 22 545 22 m 758 1020 l 827 1060 l 693 1138 l 624 1098 l 758 1020 m 750 649 l 749 1004 l 615 1082 l 616 728 l 750 649 m 420 448 l 741 633 l 607 711 l 419 603 l 420 448 m 314 297 l 313 752 l 178 830 l 180 375 l 314 297 m 322 768 l 391 808 l 256 886 l 188 846 l 322 768 m 534 47 l 532 391 l 399 313 l 399 125 l 534 47 m 552 47 l 621 87 l 620 457 q 625 465 620 463 l 838 589 l 837 1044 l 768 1004 l 769 633 l 768 629 q 590 525 766 627 q 410 422 413 422 q 401 431 401 422 l 400 791 l 332 752 l 332 297 l 537 415 q 542 416 539 416 q 551 407 551 416 l 552 47 z "},"Z":{"ha":1017,"x_min":160,"x_max":858,"o":"m 325 -104 l 322 -104 l 168 -14 q 163 -7 163 -12 l 162 94 l 163 95 l 163 97 l 452 721 l 325 648 l 320 648 q 319 648 320 648 l 318 649 l 165 738 q 161 746 161 741 l 160 847 q 165 854 161 852 q 693 1158 690 1158 q 773 1113 696 1158 q 852 1067 851 1067 l 853 1065 q 854 1065 853 1065 l 855 1061 l 856 1009 q 854 956 856 957 l 566 332 q 695 406 692 406 q 776 360 698 406 l 854 314 l 855 313 q 856 313 855 313 l 857 311 l 857 307 l 858 207 q 853 199 858 202 q 325 -104 328 -104 m 453 90 l 830 307 l 695 386 l 552 303 l 453 90 m 313 673 l 313 752 l 179 830 l 179 751 l 313 673 m 322 768 l 827 1059 l 693 1138 l 188 846 l 322 768 m 315 -79 l 315 0 l 181 78 l 181 -1 l 315 -79 m 320 18 l 718 874 l 480 737 l 184 98 l 320 18 m 334 -79 l 839 212 l 839 292 l 435 58 l 430 58 l 430 59 l 429 59 q 424 67 424 62 q 837 961 424 69 l 837 1044 l 332 752 l 332 673 l 469 751 l 602 829 q 739 906 736 906 q 744 903 741 906 q 747 897 747 901 q 334 3 747 895 l 334 -79 z "},"[":{"ha":1017,"x_min":160,"x_max":858,"o":"m 325 -104 l 321 -104 l 321 -103 l 320 -103 l 168 -14 q 163 -6 163 -12 l 160 847 q 165 854 161 852 q 693 1158 690 1158 q 850 1067 696 1158 q 853 1065 852 1067 q 855 1061 854 1064 l 856 960 q 851 951 855 954 l 419 703 l 420 248 q 695 406 692 406 q 854 315 698 406 l 854 315 q 856 313 855 313 l 856 312 q 858 208 857 312 q 853 199 857 202 q 325 -104 328 -104 m 421 72 l 830 308 l 695 386 l 420 227 l 421 72 m 315 -79 l 313 752 l 178 830 l 181 -1 l 315 -79 m 322 768 l 827 1060 l 693 1138 l 188 846 l 322 768 m 334 -79 l 839 213 l 839 292 q 412 47 414 46 q 403 56 403 47 l 401 707 q 406 715 401 713 l 837 965 l 837 1044 l 332 752 l 334 -79 z "},"\\":{"ha":1017,"x_min":143,"x_max":874,"o":"m 793 146 l 789 146 q 788 147 789 147 l 711 192 q 632 238 633 237 l 145 793 l 143 798 l 143 802 l 144 805 l 217 903 q 224 907 220 907 q 306 861 227 907 l 383 816 l 383 815 l 384 815 q 385 814 385 815 l 871 259 q 874 253 873 256 q 836 199 874 250 l 800 150 l 799 149 l 795 146 l 793 146 l 793 146 m 302 723 l 364 806 l 227 885 l 166 802 l 302 723 m 748 191 l 299 703 l 197 764 l 646 251 l 748 191 m 792 170 l 853 252 l 378 793 l 317 711 l 792 170 z "},"]":{"ha":1017,"x_min":160,"x_max":857,"o":"m 324 -104 l 321 -104 l 320 -103 l 167 -14 q 162 -6 162 -12 l 162 95 q 167 102 163 100 l 598 351 l 597 805 q 325 648 326 648 q 322 648 323 648 q 319 649 320 648 l 317 649 l 165 738 q 160 746 160 741 l 160 847 q 164 854 161 852 q 692 1158 690 1158 q 773 1113 695 1158 q 852 1067 851 1067 l 852 1066 l 854 1062 l 854 1061 l 855 1060 l 857 208 q 852 199 857 202 q 324 -104 327 -104 m 313 673 l 313 752 l 178 830 l 178 751 l 313 673 m 322 768 l 827 1060 l 692 1138 l 187 846 l 322 768 m 315 -79 l 315 0 l 180 78 l 180 -1 l 315 -79 m 324 16 l 742 257 l 608 336 l 190 94 l 324 16 m 751 273 l 749 893 l 616 816 l 616 351 l 751 273 m 334 -79 l 839 213 l 836 1044 l 331 752 l 332 673 l 678 873 q 759 918 757 918 q 763 917 761 918 q 768 909 768 914 l 770 256 q 765 250 769 252 l 334 0 l 334 -79 z "},"^":{"ha":1017,"x_min":143,"x_max":875,"o":"m 368 458 q 333 477 365 458 l 301 495 l 148 584 q 143 593 143 587 q 283 838 143 595 l 424 1080 q 431 1084 427 1084 q 435 1084 434 1084 q 436 1083 435 1084 l 437 1082 q 870 834 654 959 l 871 833 l 871 833 q 873 831 872 832 q 873 830 873 831 l 873 829 l 874 829 l 875 827 q 873 823 875 825 l 812 715 q 804 711 809 711 q 589 832 801 711 l 376 463 q 368 458 372 458 m 302 515 l 572 983 l 435 1063 l 165 595 l 302 515 m 364 480 l 577 849 q 585 854 580 854 q 800 732 587 854 l 852 823 l 588 974 l 318 507 l 364 480 z "},"_":{"ha":1017,"x_min":160,"x_max":856,"o":"m 323 -104 l 319 -104 l 165 -15 q 161 -7 161 -12 l 160 94 l 161 94 q 165 102 161 99 q 693 406 690 406 q 851 315 696 406 l 852 314 l 852 314 l 852 313 l 853 313 l 853 313 l 854 312 l 855 308 l 856 207 q 851 199 856 201 q 323 -104 326 -104 m 313 -79 l 313 -1 l 179 77 l 179 -1 l 313 -79 m 323 16 l 828 307 l 693 385 l 188 94 l 323 16 m 332 -79 l 838 212 l 837 291 l 332 -1 l 332 -79 z "},"a":{"ha":1017,"x_min":160,"x_max":857,"o":"m 410 422 q 406 424 408 422 q 401 432 401 427 l 401 708 q 405 715 401 713 q 759 919 755 919 q 768 909 767 919 l 769 633 q 764 625 768 628 q 410 422 413 422 m 419 625 l 597 728 l 597 805 l 419 703 l 419 625 m 420 448 l 741 633 l 607 711 l 419 604 l 420 448 m 750 650 l 749 893 l 616 816 l 616 728 l 750 650 m 325 -104 l 321 -104 q 321 -103 321 -103 l 167 -14 q 163 -6 163 -12 l 160 847 q 165 854 161 852 q 693 1158 690 1158 q 774 1113 696 1158 l 852 1067 l 853 1066 l 855 1061 l 857 208 q 853 199 857 202 l 764 148 l 759 148 l 604 238 q 599 246 599 241 l 598 429 l 420 326 l 421 -45 q 416 -52 421 -50 q 325 -104 327 -104 m 315 -79 l 313 752 l 178 831 l 181 -1 l 315 -79 m 322 768 l 827 1060 l 693 1138 l 188 846 l 322 768 m 751 173 l 751 517 l 616 439 l 617 252 l 751 173 m 334 -79 l 403 -39 l 401 332 q 406 340 401 337 q 760 543 758 543 q 769 533 769 543 l 770 173 l 839 213 l 837 1044 l 332 752 l 334 -79 z "},"b":{"ha":1017,"x_min":160,"x_max":858,"o":"m 325 -104 q 323 -104 323 -104 l 321 -104 l 168 -14 q 163 -6 163 -12 l 160 847 l 161 847 q 165 854 161 852 q 693 1158 690 1158 q 774 1113 696 1158 l 852 1067 l 853 1066 l 853 1065 l 854 1065 l 855 1061 l 857 728 q 753 605 857 726 l 853 547 l 854 546 l 856 543 l 857 539 l 858 208 q 853 199 858 202 q 325 -104 328 -104 m 703 548 l 814 549 l 741 591 l 703 548 m 315 -79 l 313 752 l 179 831 l 181 -1 l 315 -79 m 323 768 l 828 1060 l 693 1138 l 188 846 l 323 768 m 334 -79 l 840 213 l 838 530 l 683 530 q 674 539 674 530 q 838 732 674 542 l 837 1044 l 332 752 q 334 -79 332 336 m 412 47 q 403 56 403 47 l 402 332 q 406 340 402 337 l 571 435 q 761 436 574 436 q 770 427 770 436 l 770 256 q 766 250 770 252 q 412 47 414 47 m 420 249 l 599 351 l 599 417 l 578 417 l 420 326 l 420 249 m 421 72 l 743 258 l 608 336 l 420 227 l 421 72 m 752 273 l 751 418 l 617 417 l 617 351 l 752 273 m 411 422 q 401 432 401 422 l 401 708 q 406 715 401 713 q 760 919 757 919 q 768 909 768 919 l 769 740 l 768 736 l 767 734 l 582 521 q 497 471 581 519 q 411 422 413 422 m 420 448 l 557 527 l 422 605 l 420 604 l 420 448 m 751 755 l 750 893 l 631 825 l 751 755 m 573 538 l 745 737 l 613 814 l 600 807 l 437 618 l 573 538 m 420 627 l 551 779 l 419 703 l 420 627 z "},"c":{"ha":1017,"x_min":160,"x_max":858,"o":"m 325 -104 q 323 -104 323 -104 l 321 -104 l 321 -103 l 320 -103 l 168 -14 q 163 -6 163 -12 l 160 846 l 161 847 q 165 854 161 852 q 693 1158 690 1158 q 851 1068 696 1158 l 852 1067 l 852 1067 l 852 1066 l 853 1066 l 853 1065 l 854 1065 l 855 1062 l 856 834 q 851 826 856 829 q 762 775 763 775 q 758 774 761 774 l 758 775 l 756 775 l 651 836 l 419 703 l 420 248 l 599 351 l 599 472 q 602 478 599 475 q 648 505 602 479 q 695 531 693 531 q 775 486 698 531 q 854 439 853 440 l 854 439 l 855 438 l 856 438 l 857 435 l 857 434 l 858 208 q 853 199 858 202 q 325 -104 328 -104 m 761 393 l 829 433 l 695 511 l 626 471 l 761 393 m 752 273 l 751 377 l 617 455 l 617 351 l 752 273 m 421 72 l 743 257 l 608 336 l 420 227 l 421 72 m 750 800 l 750 893 l 669 847 l 750 800 m 315 -79 l 313 752 l 179 830 l 181 -1 l 315 -79 m 323 768 l 828 1060 l 693 1138 l 188 846 l 323 768 m 334 -79 l 840 213 l 839 417 l 770 377 l 770 256 q 766 250 770 252 q 414 46 415 47 q 412 46 413 46 q 408 47 410 46 q 403 56 403 50 l 401 707 q 406 715 401 713 q 759 918 757 918 q 764 917 762 918 q 768 909 768 914 l 769 800 l 838 840 l 837 1044 l 332 752 q 334 -79 332 336 z "},"d":{"ha":1017,"x_min":160,"x_max":857,"o":"m 412 46 q 408 47 410 46 q 403 56 403 50 l 401 707 q 406 715 401 713 q 566 807 564 807 q 764 696 568 807 q 769 688 769 693 l 770 477 q 769 476 769 477 q 672 308 769 475 q 573 138 576 140 q 412 46 414 46 m 420 262 l 598 570 l 597 770 l 566 787 l 419 702 l 420 262 m 421 71 l 550 146 l 420 221 l 421 71 m 565 159 l 747 475 l 610 555 l 428 238 l 565 159 m 751 494 l 750 682 l 616 759 l 616 572 l 751 494 m 325 -104 q 321 -104 323 -104 q 167 -14 319 -103 q 160 846 160 -10 q 165 854 161 852 q 447 1017 446 1017 q 450 1017 448 1017 q 699 876 452 1017 q 853 786 852 787 q 855 784 854 785 q 857 488 856 783 q 734 272 857 485 q 609 58 611 60 q 325 -104 327 -104 m 315 -79 l 313 752 l 178 830 l 181 -1 l 315 -79 m 322 768 l 584 919 l 449 997 l 188 846 l 322 768 m 334 -79 l 598 73 l 838 490 l 838 774 l 602 908 l 332 752 l 334 -79 z "},"e":{"ha":1017,"x_min":160,"x_max":858,"o":"m 325 -104 l 322 -104 l 167 -14 q 163 -7 163 -12 l 160 847 q 165 854 161 852 q 693 1158 690 1158 q 773 1113 696 1158 q 852 1067 851 1067 l 853 1065 l 853 1065 q 854 1064 854 1065 q 854 1063 854 1064 l 855 1061 l 855 959 q 851 951 855 954 l 419 702 l 419 625 q 694 782 692 782 q 774 736 696 782 q 853 690 852 691 q 854 690 854 690 l 854 689 l 854 689 l 854 688 l 855 688 l 856 684 q 857 583 857 684 q 852 575 857 578 l 420 326 l 420 248 q 695 406 692 406 q 777 360 698 406 l 854 315 l 855 313 l 855 313 l 856 313 l 857 311 l 857 309 l 858 207 q 853 199 857 202 q 325 -104 328 -104 m 421 71 l 829 307 l 695 386 l 420 227 l 421 71 m 420 448 l 829 684 l 694 762 l 419 603 l 420 448 m 315 -79 l 313 752 l 178 830 l 181 -1 l 315 -79 m 322 768 l 827 1059 l 693 1138 l 188 846 l 322 768 m 334 -79 l 839 212 l 839 292 q 412 46 414 46 q 403 56 403 46 l 401 331 q 406 339 402 336 l 838 589 l 838 667 q 411 422 413 422 q 401 431 401 422 l 401 707 q 406 715 401 713 l 837 964 l 837 1044 l 332 752 l 334 -79 z "},"f":{"ha":1017,"x_min":160,"x_max":857,"o":"m 325 -104 l 321 -104 l 168 -15 q 163 -7 163 -12 l 160 846 q 165 854 161 851 q 693 1158 690 1158 q 850 1067 696 1158 l 852 1066 l 853 1065 l 853 1065 l 854 1065 l 855 1062 l 856 959 q 851 951 855 954 l 419 702 l 419 624 q 694 781 692 781 q 774 736 696 781 q 852 690 852 691 l 853 690 l 853 690 q 854 689 854 689 q 855 688 854 688 q 855 688 855 688 l 856 684 l 857 684 l 857 583 q 852 575 857 578 l 420 326 l 421 -45 q 416 -53 421 -50 q 325 -104 328 -104 m 420 447 l 829 683 l 694 762 l 420 603 l 420 447 m 315 -79 l 313 751 l 179 830 l 181 -1 l 315 -79 m 322 768 l 827 1059 l 693 1137 l 188 846 l 322 768 m 334 -79 l 403 -40 l 401 331 q 406 339 402 336 l 838 588 l 838 667 q 411 422 413 422 q 401 431 402 422 l 401 707 q 406 715 401 712 l 837 964 l 837 1043 l 332 751 l 334 -79 z "},"g":{"ha":1017,"x_min":160,"x_max":857,"o":"m 324 -104 l 321 -104 l 167 -15 q 162 -7 163 -12 l 160 846 q 165 854 161 851 q 692 1158 690 1158 q 773 1112 695 1158 l 851 1067 l 852 1066 l 852 1066 l 853 1065 q 854 1064 853 1064 l 854 1063 q 854 1061 854 1063 l 854 1060 q 855 959 855 1060 q 850 951 855 954 l 419 702 l 420 248 l 598 351 l 598 429 l 587 422 l 583 422 l 428 513 q 423 521 423 515 l 422 621 q 423 622 423 621 q 427 629 423 627 q 694 781 691 781 q 774 736 696 781 q 852 690 852 691 l 853 690 q 854 689 854 690 l 854 688 l 855 688 l 855 687 l 856 684 l 857 207 q 852 199 857 201 q 324 -104 328 -104 m 576 448 l 576 527 l 441 605 l 441 526 l 576 448 m 585 543 l 828 683 l 694 762 l 450 621 l 585 543 m 420 71 l 742 257 l 608 335 l 420 227 l 420 71 m 751 273 l 751 517 l 616 439 l 616 351 l 751 273 m 315 -79 l 313 751 l 178 830 l 180 -1 l 315 -79 m 322 768 l 827 1059 l 692 1137 l 187 846 l 322 768 m 334 -79 l 839 212 l 838 667 l 594 527 q 595 448 594 479 q 760 542 758 542 q 769 532 769 542 l 770 256 q 765 249 769 251 l 414 46 q 402 55 402 46 l 400 707 q 405 715 401 712 l 837 964 l 836 1043 l 331 751 q 334 -79 333 336 z "},"h":{"ha":1017,"x_min":160,"x_max":858,"o":"m 325 -104 l 322 -104 l 321 -104 l 320 -104 l 168 -15 q 163 -7 163 -12 l 160 846 q 165 854 161 851 q 257 905 254 905 q 337 860 259 905 q 415 814 415 815 l 416 814 l 416 813 l 418 812 l 418 808 l 419 808 l 419 624 l 597 727 l 597 1099 q 601 1106 597 1103 q 693 1158 690 1158 q 774 1112 696 1158 l 852 1066 l 853 1065 l 853 1065 l 855 1062 l 858 207 q 853 199 857 201 l 764 147 q 758 148 759 147 q 757 149 757 148 l 604 237 q 599 245 599 240 l 598 429 l 420 326 l 421 -45 q 416 -53 421 -50 q 325 -104 328 -104 m 759 1019 l 827 1059 l 693 1137 l 624 1098 l 759 1019 m 751 649 l 749 1004 l 615 1082 l 616 727 l 751 649 m 420 447 l 741 633 l 607 711 l 420 603 l 420 447 m 315 -79 l 313 751 l 178 830 l 181 -1 l 315 -79 m 322 768 l 391 808 l 256 886 l 188 846 l 322 768 m 752 172 l 751 517 l 617 439 l 617 251 l 752 172 m 334 -79 l 403 -40 l 401 331 q 406 339 402 336 q 760 542 758 542 q 769 532 769 542 l 770 172 l 839 212 l 837 1043 l 768 1004 l 769 632 q 764 625 768 627 q 413 422 414 422 q 411 422 412 422 q 401 431 401 422 l 400 791 l 332 751 l 334 -79 z "},"i":{"ha":1017,"x_min":160,"x_max":857,"o":"m 324 -104 l 321 -104 l 167 -15 q 162 -7 162 -12 l 162 94 q 167 102 163 99 l 380 225 l 379 679 l 327 648 q 325 648 326 648 l 319 648 q 319 648 319 648 l 317 648 l 317 649 l 165 738 q 160 745 160 741 l 160 846 q 164 854 161 851 q 692 1158 690 1158 q 773 1112 695 1158 l 851 1067 l 852 1066 l 852 1066 l 853 1065 q 854 1064 853 1064 l 854 1063 q 854 1061 854 1063 l 854 1060 q 855 959 855 1060 q 850 951 855 954 l 637 828 l 638 374 q 695 406 692 406 q 775 360 697 406 q 854 315 853 315 l 854 314 l 856 312 l 857 309 l 857 307 l 857 207 q 852 199 857 201 q 324 -104 328 -104 m 639 197 l 829 307 l 695 385 l 638 353 l 639 197 m 313 673 l 313 751 l 178 830 l 178 751 l 313 673 m 322 768 l 827 1059 l 692 1137 l 187 846 l 322 768 m 315 -79 l 315 -1 l 180 77 l 180 -1 l 315 -79 m 324 16 l 524 131 l 389 209 l 190 94 l 324 16 m 533 146 l 531 767 l 397 689 l 399 225 l 533 146 m 334 -79 l 839 212 l 839 291 l 634 173 q 629 172 633 172 q 621 181 621 172 l 618 833 q 623 841 618 838 l 837 964 l 836 1043 l 331 751 l 332 673 l 383 703 q 541 792 538 792 q 550 783 549 792 l 551 130 q 547 123 551 125 l 334 -1 l 334 -79 z "},"j":{"ha":1017,"x_min":160,"x_max":856,"o":"m 323 -104 l 319 -104 l 319 -103 l 165 -14 q 161 -6 161 -12 l 160 296 q 165 302 161 300 q 256 354 254 354 q 337 309 259 354 q 415 263 415 264 l 416 263 q 416 262 416 263 l 417 262 l 418 260 l 418 258 l 419 258 l 419 248 l 597 351 l 595 1049 q 600 1056 596 1053 q 691 1107 688 1107 q 772 1062 694 1107 q 850 1017 850 1017 l 851 1017 l 851 1016 l 852 1016 l 852 1014 l 853 1014 l 853 1013 l 854 1010 l 856 208 q 852 199 856 202 q 323 -104 326 -104 m 758 970 l 826 1010 l 692 1088 l 623 1048 l 758 970 m 750 273 l 748 954 l 614 1032 l 616 351 l 750 273 m 420 72 l 741 257 l 606 335 l 419 227 l 420 72 m 314 -79 l 313 201 l 179 279 l 180 -1 l 314 -79 m 322 216 l 391 256 l 257 334 l 188 294 l 322 216 m 332 -79 l 838 212 l 836 994 l 766 954 l 768 256 q 764 249 768 252 q 410 46 413 46 q 406 47 408 46 q 401 56 401 50 l 401 240 l 332 201 l 332 -79 z "},"k":{"ha":1017,"x_min":160,"x_max":874,"o":"m 325 -104 l 322 -104 q 321 -104 322 -104 l 320 -103 l 167 -14 q 163 -6 163 -12 l 160 847 q 165 854 161 852 q 256 906 254 906 q 337 861 259 906 l 415 815 l 415 814 l 416 814 l 416 813 l 418 812 l 418 808 l 419 655 l 629 1140 l 629 1140 l 631 1142 l 634 1144 l 634 1145 l 639 1145 l 715 1130 l 867 1041 l 869 1040 l 869 1040 l 871 1038 l 871 1037 l 872 1034 l 872 1034 q 871 1030 872 1031 l 648 514 l 872 259 q 874 254 874 257 q 800 150 874 250 l 800 150 q 798 149 800 149 l 797 147 l 795 147 l 795 146 l 788 147 q 711 193 788 148 q 633 239 634 237 l 511 378 l 420 326 l 421 -45 q 416 -53 421 -50 q 325 -104 328 -104 m 812 1052 l 707 1114 l 688 1117 l 793 1056 l 812 1052 m 557 532 l 779 1043 l 642 1122 l 420 612 l 557 532 m 420 448 l 543 519 l 419 591 l 420 448 m 315 -79 l 313 752 l 178 830 l 181 -1 l 315 -79 m 322 768 l 391 808 l 256 886 l 188 846 l 322 768 m 749 192 l 560 407 l 527 387 l 646 252 l 749 192 m 334 -79 l 403 -39 l 401 331 q 406 339 401 336 l 557 427 q 564 428 560 428 q 792 170 566 427 l 853 253 q 629 512 629 509 q 850 1026 629 514 l 795 1036 l 570 515 l 569 513 l 569 513 l 568 513 l 568 512 l 413 422 q 406 424 408 422 q 401 431 401 427 l 400 791 l 332 752 l 334 -79 z "},"l":{"ha":1017,"x_min":160,"x_max":858,"o":"m 325 -104 q 323 -104 323 -104 l 321 -104 l 321 -103 l 320 -103 l 168 -14 q 163 -6 163 -12 l 160 847 l 161 847 q 162 851 161 849 q 209 880 163 853 q 257 906 255 906 q 337 861 260 906 q 416 815 415 816 l 416 814 l 416 814 l 416 814 l 417 814 l 418 812 l 418 812 l 418 812 q 419 810 418 810 l 419 809 q 420 249 419 529 q 695 406 693 406 q 775 361 698 406 q 854 315 853 315 l 854 315 l 854 314 l 855 314 l 855 313 l 856 313 l 857 310 l 858 208 q 853 199 858 202 q 325 -104 328 -104 m 421 72 l 830 308 l 695 386 l 420 227 l 421 72 m 315 -79 l 313 752 l 179 830 l 181 -1 l 315 -79 m 323 768 l 391 808 l 257 886 l 188 846 l 323 768 m 334 -79 l 840 213 l 839 292 q 412 47 414 47 q 403 56 403 47 l 401 792 l 332 752 l 334 -79 z "},"m":{"ha":1017,"x_min":160,"x_max":857,"o":"m 325 -104 q 321 -104 321 -104 l 320 -104 l 167 -14 q 162 -7 163 -12 l 160 846 q 165 854 161 851 q 693 1158 690 1158 q 774 1112 695 1158 l 852 1067 l 852 1066 l 852 1066 l 852 1065 l 853 1065 l 854 1064 l 855 1060 l 857 207 q 853 199 857 201 q 763 148 764 148 q 761 147 762 147 l 758 148 l 639 217 l 640 81 q 635 73 639 76 q 545 21 546 22 q 543 21 544 21 q 540 21 541 21 q 538 22 539 22 l 420 91 l 421 -45 q 416 -53 421 -50 q 325 -104 328 -104 m 315 -79 l 313 751 l 178 830 l 181 -1 l 315 -79 m 322 768 l 827 1059 l 693 1137 l 188 846 l 322 768 m 534 47 l 532 767 l 419 702 l 420 112 l 534 47 m 751 172 l 749 892 l 637 828 l 639 238 l 751 172 m 334 -79 l 403 -40 l 401 707 q 405 715 401 712 q 541 792 538 792 q 550 783 550 792 l 552 47 l 621 86 l 621 233 l 618 833 q 623 841 618 838 q 759 918 756 918 q 768 909 768 918 l 770 172 l 839 212 l 837 1044 l 332 751 l 334 -79 z "},"n":{"ha":1017,"x_min":160,"x_max":858,"o":"m 325 -104 q 321 -104 322 -104 l 320 -104 l 168 -14 q 163 -7 163 -12 l 160 846 q 165 854 161 851 q 257 905 254 905 q 337 861 259 905 l 414 815 l 415 815 l 417 813 l 598 576 l 597 1099 q 602 1106 597 1103 q 693 1158 690 1158 q 774 1112 696 1158 l 852 1067 l 853 1065 l 853 1065 q 854 1063 854 1065 l 855 1061 l 858 207 q 853 199 858 201 l 764 148 l 762 147 l 760 147 l 760 148 q 680 193 758 148 q 601 240 602 238 l 420 476 l 421 -45 q 417 -53 421 -50 q 325 -104 328 -104 m 759 1020 l 827 1059 l 693 1137 l 625 1098 l 759 1020 m 751 376 l 749 1004 l 615 1082 l 616 553 l 751 376 m 315 -79 l 313 751 l 179 830 l 181 -1 l 315 -79 m 322 768 l 391 808 l 257 886 l 188 846 l 322 768 m 726 188 l 420 587 l 420 507 l 614 252 l 726 188 m 334 -79 l 403 -40 l 401 614 q 411 624 401 624 q 418 621 415 624 l 764 169 l 840 212 l 837 1044 l 768 1004 l 770 349 q 764 340 770 343 l 756 341 q 408 795 753 345 l 332 751 q 334 -79 332 336 z "},"o":{"ha":1017,"x_min":160,"x_max":857,"o":"m 324 -104 q 321 -104 321 -104 l 320 -104 l 167 -14 q 162 -7 163 -12 l 160 846 q 165 854 161 851 q 693 1158 690 1158 q 773 1112 695 1158 l 851 1067 l 852 1067 l 852 1066 l 852 1066 l 852 1065 l 853 1065 l 854 1064 l 854 1063 q 855 1061 854 1061 q 855 1060 855 1061 l 857 207 q 852 199 857 201 q 324 -104 328 -104 m 315 -79 l 313 751 l 178 830 l 181 -1 l 315 -79 m 322 768 l 827 1059 l 693 1137 l 188 846 l 322 768 m 334 -79 l 839 212 l 837 1044 l 332 751 l 334 -79 m 412 46 q 402 55 402 46 l 400 707 q 405 715 401 712 q 759 918 755 918 q 768 909 768 918 l 770 256 q 765 249 769 252 q 412 46 414 46 m 420 248 l 598 351 l 597 805 l 419 702 l 420 248 m 420 71 l 742 257 l 608 335 l 420 227 l 420 71 m 751 273 l 749 892 l 616 815 l 617 351 l 751 273 z "},"p":{"ha":1017,"x_min":160,"x_max":857,"o":"m 325 -104 l 322 -104 l 321 -104 l 320 -104 l 168 -14 q 163 -7 163 -12 l 160 847 q 165 854 161 851 q 693 1158 690 1158 q 774 1112 696 1158 l 852 1067 l 853 1065 q 854 1065 853 1065 l 855 1061 l 857 583 q 852 575 857 578 l 420 326 l 421 -45 q 416 -53 421 -50 q 325 -104 328 -104 m 315 -79 l 313 751 l 179 830 l 181 -1 l 315 -79 m 322 768 l 827 1059 l 693 1137 l 188 846 l 322 768 m 334 -79 l 403 -40 l 401 331 q 406 339 402 336 l 838 589 l 837 1044 l 332 751 l 334 -79 m 411 422 q 401 431 401 422 l 401 707 q 406 715 401 712 q 759 918 756 918 q 768 909 768 918 l 769 632 q 764 625 768 627 q 411 422 413 422 m 419 624 l 597 727 l 597 805 l 419 702 l 419 624 m 420 448 l 741 633 l 607 711 l 420 603 l 420 448 m 751 649 l 750 892 l 616 815 l 616 727 l 751 649 z "},"q":{"ha":1017,"x_min":160,"x_max":876,"o":"m 325 -104 l 322 -104 q 321 -103 322 -104 q 167 -14 320 -103 q 163 -7 163 -12 l 160 847 q 165 854 161 852 q 693 1158 690 1158 q 773 1113 696 1158 q 851 1067 851 1067 q 853 1065 852 1066 q 855 1061 854 1063 l 857 557 l 856 483 l 770 334 l 871 275 q 872 275 871 275 q 876 271 873 275 q 875 265 876 266 l 875 264 l 813 157 q 806 152 810 152 q 699 211 803 152 l 612 62 q 469 -22 612 60 q 325 -104 327 -104 m 315 -79 l 313 752 l 178 830 l 181 -1 l 315 -79 m 322 768 l 827 1059 l 693 1138 l 188 846 l 322 768 m 334 -79 l 598 73 l 688 228 q 695 233 690 233 q 802 174 697 233 l 854 264 l 752 322 q 747 330 747 325 q 838 490 747 332 l 837 1044 l 332 752 l 334 -79 m 412 46 q 403 56 403 46 l 401 707 q 406 715 401 713 q 759 918 758 918 q 768 909 767 918 l 770 478 l 769 478 l 769 477 q 701 358 703 361 l 700 358 q 698 356 699 357 q 694 356 696 356 q 691 357 692 357 q 589 415 690 357 l 536 325 l 638 267 q 643 258 643 264 q 609 198 643 256 q 574 139 575 140 q 494 92 573 138 q 412 46 414 46 m 538 467 l 598 570 l 597 805 l 419 702 l 420 513 q 425 521 422 517 q 434 526 427 526 q 538 467 437 525 m 420 262 l 467 343 l 420 371 l 420 262 m 421 71 l 550 146 l 420 221 l 421 71 m 565 159 l 621 256 l 519 313 q 515 321 515 316 q 573 425 515 323 l 436 504 l 420 476 l 420 392 l 485 355 q 489 347 489 352 q 428 238 489 343 l 565 159 m 692 378 l 747 475 l 610 555 l 555 458 l 692 378 m 751 494 l 750 893 l 616 815 l 616 572 l 751 494 z "},"r":{"ha":1017,"x_min":160,"x_max":875,"o":"m 325 -104 l 322 -104 q 321 -103 322 -104 q 168 -14 320 -103 q 163 -6 163 -12 l 160 847 q 165 854 161 852 q 693 1158 690 1158 q 773 1113 696 1158 q 852 1067 851 1067 l 852 1067 l 854 1064 q 857 583 855 1064 q 852 575 857 578 l 682 477 q 875 254 874 257 q 873 248 875 250 l 800 150 l 800 150 q 798 148 800 149 q 795 147 797 147 l 795 146 q 790 148 792 147 q 711 193 788 148 q 633 239 634 237 l 511 378 l 420 326 l 421 -45 q 416 -53 421 -50 q 325 -104 328 -104 m 315 -79 l 313 752 l 179 830 l 181 -1 l 315 -79 m 322 768 l 827 1060 l 693 1138 l 188 846 l 322 768 m 749 192 l 560 407 l 527 387 l 646 252 l 749 192 m 334 -79 l 403 -39 l 401 332 q 406 339 402 336 l 557 427 q 564 428 561 428 q 792 170 566 427 l 853 253 q 658 479 658 477 q 663 487 658 484 l 838 589 l 837 1044 l 332 752 l 334 -79 m 411 422 q 401 431 401 422 l 401 707 q 406 715 401 713 q 759 918 758 918 q 768 909 768 918 l 769 633 q 764 625 768 628 q 411 422 413 422 m 419 625 l 597 728 l 597 805 l 419 702 l 419 625 m 420 448 l 741 633 l 607 711 l 420 603 l 420 448 m 751 649 l 750 893 l 616 816 l 616 728 l 751 649 z "},"s":{"ha":1017,"x_min":160,"x_max":857,"o":"m 324 -104 l 321 -104 l 167 -14 q 162 -7 162 -12 l 162 94 q 167 102 163 99 l 598 351 l 598 429 q 323 271 326 271 q 165 361 321 271 q 161 370 161 364 l 160 846 q 164 854 161 851 q 692 1158 690 1158 q 851 1067 695 1158 l 852 1067 q 852 1066 852 1066 q 853 1065 852 1065 l 854 1060 q 855 959 855 1060 q 850 951 855 954 l 419 702 l 419 624 q 694 781 691 781 q 774 736 696 781 q 852 690 852 691 l 853 690 l 854 688 q 857 207 856 688 q 852 199 857 201 q 324 -104 328 -104 m 420 448 l 828 684 l 694 762 l 419 603 l 420 448 m 314 297 l 313 751 l 178 830 l 180 375 l 314 297 m 322 768 l 827 1059 l 692 1137 l 187 846 l 322 768 m 315 -79 l 315 -1 l 180 78 l 180 -1 l 315 -79 m 324 16 l 742 257 l 608 335 l 190 94 l 324 16 m 751 273 l 751 517 l 616 439 l 616 351 l 751 273 m 334 -79 l 839 212 l 838 667 q 410 422 413 422 q 401 431 402 422 q 400 707 401 608 q 405 715 401 712 l 837 964 l 836 1044 l 331 751 q 332 296 332 524 q 760 542 757 542 q 769 532 769 542 l 770 256 q 765 249 769 252 l 334 -1 l 334 -79 z "},"t":{"ha":1017,"x_min":160,"x_max":855,"o":"m 543 22 q 539 22 540 22 q 385 112 538 23 q 380 119 381 115 l 379 679 q 325 648 326 648 q 323 648 324 648 l 318 649 l 165 738 q 161 746 161 741 l 160 847 q 165 854 161 852 q 693 1158 690 1158 q 773 1113 696 1158 q 851 1067 851 1067 q 853 1065 852 1066 q 855 1061 854 1063 l 855 960 q 851 951 855 954 l 637 828 l 640 81 q 635 73 640 76 q 543 22 545 22 m 313 673 l 313 752 l 178 830 l 179 751 l 313 673 m 322 768 l 827 1059 l 693 1138 l 188 846 l 322 768 m 534 47 l 532 767 l 397 690 l 399 125 l 534 47 m 552 47 l 621 86 l 619 833 q 623 842 619 838 l 837 964 l 837 1044 l 332 752 l 332 673 q 541 792 538 792 q 550 783 550 792 l 552 47 z "},"u":{"ha":1017,"x_min":160,"x_max":857,"o":"m 325 -104 l 322 -104 l 167 -14 q 162 -6 163 -12 l 160 847 q 165 854 161 852 q 256 906 254 906 q 414 815 259 906 l 416 814 l 416 814 l 416 814 l 416 813 l 418 812 l 418 808 l 420 248 l 599 351 l 596 1099 l 597 1099 q 601 1106 597 1103 q 693 1158 690 1158 q 774 1112 696 1158 l 852 1067 l 852 1066 l 852 1066 l 852 1065 l 853 1065 l 854 1064 l 854 1063 l 854 1063 q 855 1061 854 1061 l 857 207 q 853 199 857 202 q 325 -104 327 -104 m 759 1020 l 827 1059 l 693 1138 l 624 1098 l 759 1020 m 751 273 l 749 1004 l 615 1082 l 617 351 l 751 273 m 420 71 l 743 257 l 608 335 l 420 227 l 420 71 m 315 -79 l 313 752 l 178 830 l 181 -1 l 315 -79 m 322 768 l 391 808 l 256 886 l 188 846 l 322 768 m 334 -79 l 839 212 l 837 1044 l 768 1004 l 770 256 q 765 249 769 252 q 412 46 414 46 q 407 47 409 46 q 402 56 403 50 l 400 791 l 332 752 l 334 -79 z "},"v":{"ha":1017,"x_min":160,"x_max":857,"o":"m 587 26 l 319 177 l 166 266 q 162 274 162 269 l 160 846 q 165 854 160 852 q 257 906 254 906 l 262 905 q 415 815 414 816 q 417 814 416 814 q 417 812 417 813 q 418 811 418 811 l 418 809 l 419 809 l 420 284 l 430 279 l 598 570 l 597 1099 q 602 1106 597 1103 q 693 1158 690 1158 q 774 1112 696 1158 q 852 1066 852 1067 q 853 1065 853 1066 q 854 1064 854 1065 q 857 487 855 1064 q 595 31 857 485 q 587 26 591 26 m 759 1020 l 828 1059 l 693 1138 l 625 1098 l 759 1020 m 751 494 l 749 1004 l 615 1082 l 616 572 l 751 494 m 583 190 l 748 475 l 611 555 l 446 269 l 583 190 m 315 201 l 313 752 l 179 830 l 180 279 l 315 201 m 323 768 l 391 808 l 257 886 l 188 846 l 323 768 m 583 47 l 838 490 l 837 1044 l 768 1004 l 770 477 q 681 323 769 475 q 592 170 593 171 q 587 168 590 168 q 407 269 584 168 q 402 277 402 271 l 401 791 l 332 752 l 333 190 l 583 47 z "},"w":{"ha":1017,"x_min":160,"x_max":857,"o":"m 325 -104 q 321 -104 321 -104 q 167 -14 320 -103 q 162 -7 163 -12 l 160 847 q 165 854 161 852 q 256 906 254 906 q 378 836 259 906 l 378 972 q 382 980 379 977 q 475 1031 472 1031 q 597 962 477 1031 l 596 1099 q 601 1106 597 1103 q 693 1158 690 1158 q 852 1067 694 1158 q 852 1066 852 1066 q 853 1064 852 1065 q 855 1061 854 1063 l 857 207 q 853 199 857 202 q 325 -104 327 -104 m 758 1020 l 827 1059 l 693 1138 l 624 1098 l 758 1020 m 751 273 l 749 1004 l 615 1082 l 615 951 q 633 941 633 941 q 634 939 633 941 q 637 936 635 938 l 638 338 l 751 273 m 639 197 l 742 257 l 639 317 l 639 197 m 541 894 l 609 933 l 475 1012 l 406 972 l 541 894 m 533 147 l 531 878 l 397 956 l 397 825 q 416 814 416 814 q 417 812 416 813 q 420 213 418 810 l 533 147 m 420 71 l 524 131 l 420 191 l 420 71 m 315 -79 l 313 752 l 178 830 l 181 -1 l 315 -79 m 322 768 l 391 808 l 256 886 l 188 846 l 322 768 m 334 -79 l 839 212 l 837 1044 l 768 1004 l 770 256 q 765 249 769 252 q 630 172 632 172 q 621 181 621 172 l 618 918 l 549 878 l 552 131 q 547 123 551 126 q 412 46 414 46 q 402 56 403 46 l 400 791 l 332 752 l 334 -79 z "},"x":{"ha":1017,"x_min":143,"x_max":874,"o":"m 380 -92 l 305 -78 l 150 12 q 145 20 145 15 q 369 539 145 22 l 144 795 l 143 798 l 143 802 l 144 806 l 217 903 q 224 907 220 907 q 304 862 227 907 q 383 816 382 817 l 385 815 l 454 736 l 628 1139 l 629 1139 l 629 1140 q 630 1142 629 1141 q 631 1142 631 1142 q 633 1144 631 1143 l 634 1144 l 634 1145 l 638 1145 l 675 1138 q 714 1130 713 1131 l 867 1041 l 867 1040 l 868 1040 l 870 1038 l 871 1038 l 871 1034 l 871 1029 l 648 514 l 871 259 q 874 254 873 256 q 836 199 874 250 l 800 150 q 797 148 798 148 q 796 148 797 148 q 794 146 795 147 l 788 147 l 632 238 l 563 317 l 389 -86 q 380 -92 385 -92 m 811 1052 l 706 1113 l 688 1116 l 793 1055 l 811 1052 m 582 589 l 778 1043 l 641 1122 l 467 720 l 582 589 m 302 724 l 364 806 l 227 886 l 165 803 l 302 724 m 488 488 l 299 704 l 196 764 l 385 548 l 488 488 m 303 -56 l 521 448 l 384 528 l 166 24 l 303 -56 m 748 192 l 588 374 l 571 336 l 645 252 l 748 192 m 374 -72 l 552 338 l 576 395 q 585 401 579 401 q 592 398 589 401 l 791 170 l 853 252 q 628 512 628 509 q 849 1026 628 514 l 795 1036 l 593 569 q 583 564 591 564 l 582 564 q 581 565 582 564 q 378 794 579 565 l 317 711 l 539 458 q 540 457 540 458 l 541 454 q 542 452 541 453 l 541 448 l 320 -62 l 374 -72 z "},"y":{"ha":1017,"x_min":160,"x_max":857,"o":"m 543 22 l 541 22 l 538 22 l 538 23 l 538 23 l 385 112 q 380 120 380 115 l 380 303 l 328 273 l 326 272 q 319 273 321 272 l 319 273 l 319 273 l 166 362 q 161 370 161 365 l 160 847 q 165 854 161 852 q 256 906 254 906 q 337 861 259 906 l 415 814 l 416 814 l 416 813 l 417 813 l 418 812 l 418 809 l 419 625 l 597 728 l 596 1099 l 597 1099 l 597 1101 q 597 1103 597 1102 q 599 1105 598 1104 q 646 1132 600 1105 q 693 1158 691 1158 q 773 1113 695 1158 q 851 1067 851 1067 l 852 1066 l 852 1065 l 853 1065 l 854 1064 l 854 1061 l 855 1060 l 857 583 q 852 575 857 578 l 638 452 l 640 81 q 635 73 639 76 q 543 22 545 22 m 758 1020 l 827 1060 l 693 1138 l 624 1098 l 758 1020 m 750 649 l 749 1004 l 615 1082 l 616 728 l 750 649 m 420 448 l 741 633 l 607 711 l 419 603 l 420 448 m 314 297 l 313 752 l 178 830 l 180 375 l 314 297 m 322 768 l 391 808 l 256 886 l 188 846 l 322 768 m 534 47 l 532 391 l 399 313 l 399 125 l 534 47 m 552 47 l 621 87 l 620 457 q 625 465 620 463 l 838 589 l 837 1044 l 768 1004 l 769 633 l 768 629 q 590 525 766 627 q 410 422 413 422 q 401 431 401 422 l 400 791 l 332 752 l 332 297 l 537 415 q 542 416 539 416 q 551 407 551 416 l 552 47 z "},"z":{"ha":1017,"x_min":160,"x_max":858,"o":"m 325 -104 l 322 -104 l 168 -14 q 163 -7 163 -12 l 162 94 l 163 95 l 163 97 l 452 721 l 325 648 l 320 648 q 319 648 320 648 l 318 649 l 165 738 q 161 746 161 741 l 160 847 q 165 854 161 852 q 693 1158 690 1158 q 773 1113 696 1158 q 852 1067 851 1067 l 853 1065 q 854 1065 853 1065 l 855 1061 l 856 1009 q 854 956 856 957 l 566 332 q 695 406 692 406 q 776 360 698 406 l 854 314 l 855 313 q 856 313 855 313 l 857 311 l 857 307 l 858 207 q 853 199 858 202 q 325 -104 328 -104 m 453 90 l 830 307 l 695 386 l 552 303 l 453 90 m 313 673 l 313 752 l 179 830 l 179 751 l 313 673 m 322 768 l 827 1059 l 693 1138 l 188 846 l 322 768 m 315 -79 l 315 0 l 181 78 l 181 -1 l 315 -79 m 320 18 l 718 874 l 480 737 l 184 98 l 320 18 m 334 -79 l 839 212 l 839 292 l 435 58 l 430 58 l 430 59 l 429 59 q 424 67 424 62 q 837 961 424 69 l 837 1044 l 332 752 l 332 673 l 469 751 l 602 829 q 739 906 736 906 q 744 903 741 906 q 747 897 747 901 q 334 3 747 895 l 334 -79 z "},"|":{"ha":1017,"x_min":378,"x_max":640,"o":"m 543 21 l 541 21 l 385 111 q 380 119 381 114 l 378 972 q 383 979 379 977 q 475 1031 471 1031 q 633 941 477 1031 q 633 941 633 941 l 633 940 l 635 939 l 635 939 l 636 938 l 637 935 l 640 81 q 635 73 640 75 q 543 21 545 21 m 533 47 l 531 878 l 397 956 l 399 125 l 533 47 m 541 894 l 609 933 l 475 1012 l 406 972 l 541 894 m 552 46 l 621 86 l 618 918 l 549 878 l 552 46 z "},"–":{"ha":1017,"x_min":161,"x_max":857,"o":"m 323 271 l 321 271 l 166 361 q 161 369 161 364 l 161 471 q 165 477 161 475 q 694 781 692 781 q 774 736 696 781 l 852 690 l 854 690 l 854 689 l 855 688 l 856 683 l 857 583 q 852 574 857 578 q 323 271 326 271 m 314 296 l 314 375 l 179 454 l 180 374 l 314 296 m 323 391 l 828 683 l 694 761 l 189 469 l 323 391 m 332 296 l 838 588 l 838 667 l 332 375 l 332 296 z "},"—":{"ha":1017,"x_min":161,"x_max":857,"o":"m 323 271 l 321 271 l 166 361 q 161 369 161 364 l 161 471 q 165 477 161 475 q 694 781 692 781 q 774 736 696 781 l 852 690 l 854 690 l 854 689 l 855 688 l 856 683 l 857 583 q 852 574 857 578 q 323 271 326 271 m 314 296 l 314 375 l 179 454 l 180 374 l 314 296 m 323 391 l 828 683 l 694 761 l 189 469 l 323 391 m 332 296 l 838 588 l 838 667 l 332 375 l 332 296 z "},"€":{"ha":1017,"x_min":51,"x_max":857,"o":"m 324 -104 l 321 -104 l 166 -14 q 162 -6 162 -12 l 161 113 l 56 174 q 52 181 52 176 l 52 283 q 56 290 52 287 l 161 350 l 161 363 l 56 424 q 52 432 52 427 l 51 533 q 56 541 52 538 l 160 601 l 159 847 q 164 854 160 852 q 692 1158 690 1158 q 773 1113 695 1158 q 852 1065 850 1067 q 854 1061 854 1063 l 854 960 q 850 951 854 954 l 516 758 l 633 691 q 633 690 633 690 q 634 689 633 690 q 634 689 634 689 q 635 688 635 688 q 637 685 636 687 l 637 583 q 633 574 637 577 l 517 508 l 634 439 q 635 439 635 439 q 637 436 636 438 q 638 374 637 433 q 694 406 692 406 q 774 361 697 406 q 855 313 855 314 q 856 310 855 312 q 857 208 857 309 q 852 199 857 202 q 324 -104 327 -104 m 420 71 l 829 307 l 694 386 l 638 353 l 638 332 q 633 324 638 327 l 420 201 l 420 71 m 420 322 l 610 432 l 498 497 l 419 452 l 420 322 m 419 573 l 610 683 l 498 748 l 418 702 l 419 573 m 321 768 l 827 1059 l 692 1138 l 187 846 l 321 768 m 313 523 l 313 752 l 178 830 l 178 601 l 313 523 m 213 454 l 304 507 l 170 585 l 79 532 l 213 454 m 314 272 l 313 391 q 214 334 216 334 q 179 353 209 335 l 179 350 l 314 272 m 204 359 l 204 438 l 70 516 l 70 437 l 204 359 m 214 203 l 304 256 l 170 334 l 79 281 l 214 203 m 205 109 l 205 187 l 71 266 l 71 186 l 205 109 m 315 -79 l 314 140 q 214 83 217 83 q 180 102 212 83 l 180 -1 l 315 -79 m 333 -79 l 838 212 l 838 292 q 411 46 414 46 q 401 56 403 46 l 401 206 q 406 214 401 211 l 620 337 q 619 416 619 358 l 413 297 q 401 307 402 297 l 401 456 q 406 465 401 462 l 618 588 l 618 667 q 410 548 413 548 q 400 557 401 548 l 400 707 q 405 715 400 713 l 836 964 l 836 1044 l 331 752 l 332 506 q 327 498 331 501 l 222 438 l 222 359 q 323 416 320 416 q 332 406 332 416 l 332 255 q 328 248 332 250 l 223 187 l 223 109 q 323 165 321 165 q 332 155 332 165 l 333 -79 z "},"−":{"ha":1017,"x_min":161,"x_max":857,"o":"m 323 271 l 321 271 l 166 361 q 161 369 161 364 l 161 471 q 165 477 161 475 q 694 781 692 781 q 774 736 696 781 l 852 690 l 854 690 l 854 689 l 855 688 l 856 683 l 857 583 q 852 574 857 578 q 323 271 326 271 m 314 296 l 314 375 l 179 454 l 180 374 l 314 296 m 323 391 l 828 683 l 694 761 l 189 469 l 323 391 m 332 296 l 838 588 l 838 667 l 332 375 l 332 296 z "},"Ā":{"ha":1017,"x_min":160,"x_max":858,"o":"m 325 -104 q 323 -104 323 -104 l 320 -103 l 168 -14 q 163 -6 163 -12 l 160 847 q 165 854 161 852 l 325 947 l 252 989 q 248 997 248 992 l 247 1098 q 252 1105 248 1103 q 606 1308 603 1308 q 686 1263 608 1308 q 764 1217 764 1218 l 765 1216 l 766 1216 l 767 1213 l 767 1212 q 768 1211 767 1211 l 768 1116 l 851 1068 q 852 1067 851 1067 l 852 1067 l 853 1066 l 853 1065 l 854 1065 l 855 1061 l 858 208 q 853 199 858 202 l 764 148 q 758 149 760 148 l 757 149 l 757 149 l 604 238 q 599 246 600 241 l 599 429 l 420 326 l 421 -45 q 417 -52 421 -50 q 325 -104 328 -104 m 418 924 l 749 1115 l 749 1194 l 418 1003 l 418 924 m 409 1019 l 740 1210 l 606 1289 l 275 1097 l 409 1019 m 400 924 l 400 1003 l 265 1082 l 266 1002 l 400 924 m 315 -79 l 313 752 l 186 826 l 179 831 l 181 -1 l 315 -79 m 323 768 l 828 1060 l 760 1100 q 410 899 412 899 l 407 899 l 406 900 q 405 901 405 900 l 343 936 l 188 846 l 323 768 m 752 173 l 751 517 l 617 440 l 618 251 l 752 173 m 334 -79 l 403 -39 l 402 332 q 406 340 402 337 l 603 453 q 760 543 758 543 q 770 533 768 543 l 770 173 l 840 213 l 837 1044 l 332 752 q 334 -79 332 336 m 411 422 q 401 432 401 422 l 401 707 q 406 715 401 713 q 759 919 756 919 q 768 909 768 919 l 769 633 q 764 625 768 628 q 411 422 414 422 m 420 625 l 597 728 l 597 805 l 419 703 l 420 625 m 420 448 l 741 633 l 607 711 l 420 604 l 420 448 m 751 650 l 750 893 l 616 816 l 616 728 l 751 650 z "},"ā":{"ha":1017,"x_min":160,"x_max":858,"o":"m 325 -104 q 323 -104 323 -104 l 320 -103 l 168 -14 q 163 -6 163 -12 l 160 847 q 165 854 161 852 l 325 947 l 252 989 q 248 997 248 992 l 247 1098 q 252 1105 248 1103 q 606 1308 603 1308 q 686 1263 608 1308 q 764 1217 764 1218 l 765 1216 l 766 1216 l 767 1213 l 767 1212 q 768 1211 767 1211 l 768 1116 l 851 1068 q 852 1067 851 1067 l 852 1067 l 853 1066 l 853 1065 l 854 1065 l 855 1061 l 858 208 q 853 199 858 202 l 764 148 q 758 149 760 148 l 757 149 l 757 149 l 604 238 q 599 246 600 241 l 599 429 l 420 326 l 421 -45 q 417 -52 421 -50 q 325 -104 328 -104 m 418 924 l 749 1115 l 749 1194 l 418 1003 l 418 924 m 409 1019 l 740 1210 l 606 1289 l 275 1097 l 409 1019 m 400 924 l 400 1003 l 265 1082 l 266 1002 l 400 924 m 315 -79 l 313 752 l 186 826 l 179 831 l 181 -1 l 315 -79 m 323 768 l 828 1060 l 760 1100 q 410 899 412 899 l 407 899 l 406 900 q 405 901 405 900 l 343 936 l 188 846 l 323 768 m 752 173 l 751 517 l 617 440 l 618 251 l 752 173 m 334 -79 l 403 -39 l 402 332 q 406 340 402 337 l 603 453 q 760 543 758 543 q 770 533 768 543 l 770 173 l 840 213 l 837 1044 l 332 752 q 334 -79 332 336 m 411 422 q 401 432 401 422 l 401 707 q 406 715 401 713 q 759 919 756 919 q 768 909 768 919 l 769 633 q 764 625 768 628 q 411 422 414 422 m 420 625 l 597 728 l 597 805 l 419 703 l 420 625 m 420 448 l 741 633 l 607 711 l 420 604 l 420 448 m 751 650 l 750 893 l 616 816 l 616 728 l 751 650 z "},"Č":{"ha":1017,"x_min":160,"x_max":858,"o":"m 325 -104 q 321 -104 322 -104 l 320 -103 l 168 -14 q 160 846 160 -10 q 165 854 160 852 l 411 996 l 405 1000 l 252 1089 q 247 1097 247 1092 q 252 1105 247 1102 q 606 1308 603 1308 q 686 1263 608 1308 q 765 1216 764 1217 l 766 1213 l 767 1213 l 767 1211 l 768 1210 l 766 1205 l 728 1139 q 852 1066 851 1067 l 853 1065 l 854 1065 l 854 1063 l 855 1061 l 856 834 q 851 826 856 829 l 764 775 l 762 774 q 755 775 758 774 l 755 775 l 651 836 l 419 702 l 420 248 l 599 351 l 598 471 l 599 471 l 599 472 q 601 477 599 475 q 648 505 602 479 q 695 531 693 531 q 775 486 698 531 q 853 440 853 440 q 854 439 854 440 l 855 439 l 856 437 l 857 437 l 857 433 l 858 207 q 853 199 858 202 q 325 -104 328 -104 m 761 393 l 829 433 l 695 511 l 626 471 l 761 393 m 751 273 l 751 377 l 617 455 l 617 351 l 751 273 m 421 71 l 743 257 l 608 335 l 420 227 l 421 71 m 750 800 l 750 893 l 669 846 l 750 800 m 496 969 l 665 1065 l 733 1185 l 428 1008 l 496 969 m 409 1019 l 740 1210 l 606 1288 l 275 1097 l 409 1019 m 315 -79 l 313 752 l 179 830 l 181 -1 l 315 -79 m 323 768 l 828 1059 l 719 1123 l 680 1055 q 589 1001 678 1053 q 496 949 499 949 q 430 985 494 949 l 188 846 l 323 768 m 334 -79 l 840 212 l 839 416 l 770 377 l 770 256 q 768 251 770 253 q 591 148 766 250 q 414 46 416 47 q 403 56 403 46 l 401 707 q 406 715 401 713 q 759 918 757 918 q 768 909 768 918 l 768 800 l 838 839 l 837 1044 l 332 752 q 334 -79 332 336 z "},"č":{"ha":1017,"x_min":160,"x_max":858,"o":"m 325 -104 q 321 -104 322 -104 l 320 -103 l 168 -14 q 160 846 160 -10 q 165 854 160 852 l 411 996 l 405 1000 l 252 1089 q 247 1097 247 1092 q 252 1105 247 1102 q 606 1308 603 1308 q 686 1263 608 1308 q 765 1216 764 1217 l 766 1213 l 767 1213 l 767 1211 l 768 1210 l 766 1205 l 728 1139 q 852 1066 851 1067 l 853 1065 l 854 1065 l 854 1063 l 855 1061 l 856 834 q 851 826 856 829 l 764 775 l 762 774 q 755 775 758 774 l 755 775 l 651 836 l 419 702 l 420 248 l 599 351 l 598 471 l 599 471 l 599 472 q 601 477 599 475 q 648 505 602 479 q 695 531 693 531 q 775 486 698 531 q 853 440 853 440 q 854 439 854 440 l 855 439 l 856 437 l 857 437 l 857 433 l 858 207 q 853 199 858 202 q 325 -104 328 -104 m 761 393 l 829 433 l 695 511 l 626 471 l 761 393 m 751 273 l 751 377 l 617 455 l 617 351 l 751 273 m 421 71 l 743 257 l 608 335 l 420 227 l 421 71 m 750 800 l 750 893 l 669 846 l 750 800 m 496 969 l 665 1065 l 733 1185 l 428 1008 l 496 969 m 409 1019 l 740 1210 l 606 1288 l 275 1097 l 409 1019 m 315 -79 l 313 752 l 179 830 l 181 -1 l 315 -79 m 323 768 l 828 1059 l 719 1123 l 680 1055 q 589 1001 678 1053 q 496 949 499 949 q 430 985 494 949 l 188 846 l 323 768 m 334 -79 l 840 212 l 839 416 l 770 377 l 770 256 q 768 251 770 253 q 591 148 766 250 q 414 46 416 47 q 403 56 403 46 l 401 707 q 406 715 401 713 q 759 918 757 918 q 768 909 768 918 l 768 800 l 838 839 l 837 1044 l 332 752 q 334 -79 332 336 z "},"Ē":{"ha":1017,"x_min":160,"x_max":858,"o":"m 325 -104 l 322 -104 l 320 -103 l 168 -14 q 163 -6 163 -12 l 160 847 q 165 854 161 852 l 325 947 l 252 989 q 248 997 248 992 l 247 1098 q 252 1105 248 1103 q 605 1308 603 1308 q 686 1263 608 1308 q 764 1217 764 1218 q 765 1217 764 1217 l 765 1216 q 766 1216 766 1216 q 766 1215 766 1215 l 767 1212 l 767 1211 q 768 1116 768 1211 l 850 1068 l 852 1067 l 853 1066 l 853 1065 l 855 1063 l 856 960 q 851 951 855 954 l 419 703 l 419 625 q 694 782 692 782 q 774 737 696 782 q 852 691 852 692 l 853 691 l 854 690 l 854 690 l 855 688 l 856 685 l 857 685 l 857 584 q 852 576 857 578 l 420 326 l 420 249 q 695 406 692 406 q 853 316 698 406 l 854 315 l 855 314 l 855 313 l 856 313 l 857 310 l 858 208 q 853 199 858 202 q 325 -104 328 -104 m 421 72 l 830 308 l 695 386 l 420 227 l 421 72 m 420 448 l 829 684 l 694 762 l 420 604 l 420 448 m 418 924 l 749 1115 l 749 1194 l 418 1003 l 418 924 m 409 1019 l 740 1210 l 605 1289 l 275 1097 l 409 1019 m 400 924 l 400 1003 l 265 1082 l 266 1002 l 400 924 m 315 -79 l 313 752 l 179 831 l 181 -1 l 315 -79 m 322 768 l 827 1060 l 760 1100 q 409 899 411 899 l 407 899 l 343 936 l 188 846 l 322 768 m 334 -79 l 839 213 l 839 292 q 412 47 414 47 q 403 56 403 47 l 401 332 q 406 340 402 337 l 838 589 l 838 668 q 411 422 413 422 q 401 432 401 422 l 401 707 q 406 715 401 713 l 837 965 l 837 1044 l 332 752 l 334 -79 z "},"ē":{"ha":1017,"x_min":160,"x_max":858,"o":"m 325 -104 l 322 -104 l 320 -103 l 168 -14 q 163 -6 163 -12 l 160 847 q 165 854 161 852 l 325 947 l 252 989 q 248 997 248 992 l 247 1098 q 252 1105 248 1103 q 605 1308 603 1308 q 686 1263 608 1308 q 764 1217 764 1218 q 765 1217 764 1217 l 765 1216 q 766 1216 766 1216 q 766 1215 766 1215 l 767 1212 l 767 1211 q 768 1116 768 1211 l 850 1068 l 852 1067 l 853 1066 l 853 1065 l 855 1063 l 856 960 q 851 951 855 954 l 419 703 l 419 625 q 694 782 692 782 q 774 737 696 782 q 852 691 852 692 l 853 691 l 854 690 l 854 690 l 855 688 l 856 685 l 857 685 l 857 584 q 852 576 857 578 l 420 326 l 420 249 q 695 406 692 406 q 853 316 698 406 l 854 315 l 855 314 l 855 313 l 856 313 l 857 310 l 858 208 q 853 199 858 202 q 325 -104 328 -104 m 421 72 l 830 308 l 695 386 l 420 227 l 421 72 m 420 448 l 829 684 l 694 762 l 420 604 l 420 448 m 418 924 l 749 1115 l 749 1194 l 418 1003 l 418 924 m 409 1019 l 740 1210 l 605 1289 l 275 1097 l 409 1019 m 400 924 l 400 1003 l 265 1082 l 266 1002 l 400 924 m 315 -79 l 313 752 l 179 831 l 181 -1 l 315 -79 m 322 768 l 827 1060 l 760 1100 q 409 899 411 899 l 407 899 l 343 936 l 188 846 l 322 768 m 334 -79 l 839 213 l 839 292 q 412 47 414 47 q 403 56 403 47 l 401 332 q 406 340 402 337 l 838 589 l 838 668 q 411 422 413 422 q 401 432 401 422 l 401 707 q 406 715 401 713 l 837 965 l 837 1044 l 332 752 l 334 -79 z "},"Ģ":{"ha":1017,"x_min":160,"x_max":858,"o":"m 544 -179 l 541 -179 l 386 -89 q 381 -73 381 -85 q 322 -104 328 -104 l 322 -104 q 168 -14 320 -103 q 163 -6 163 -12 l 160 847 q 165 854 161 852 q 693 1158 690 1158 q 773 1113 696 1158 q 852 1067 851 1067 l 852 1067 l 854 1064 q 856 960 855 1064 q 851 951 855 954 l 419 702 l 420 248 l 599 351 l 599 429 q 586 422 587 422 q 428 513 584 422 q 423 521 424 515 l 423 622 q 428 629 424 627 q 694 782 692 782 q 852 691 697 782 q 854 690 854 690 q 855 688 854 689 q 856 687 855 687 l 856 685 l 857 685 l 858 207 q 853 199 858 202 l 562 31 l 635 -12 q 637 -13 637 -12 q 638 -15 637 -14 q 640 -17 640 -16 q 640 -19 640 -18 l 640 -119 q 635 -127 640 -125 q 544 -179 546 -179 m 576 448 l 576 527 l 441 605 l 442 526 l 576 448 m 585 543 l 829 684 l 694 762 l 451 621 l 585 543 m 421 71 l 743 257 l 608 335 l 420 227 l 421 71 m 751 273 l 751 517 l 617 439 l 617 351 l 751 273 m 315 -79 l 313 752 l 179 830 l 181 -1 l 315 -79 m 322 768 l 827 1059 l 693 1138 l 188 846 l 322 768 m 534 -154 l 534 -75 l 456 -30 l 400 -62 l 400 -75 l 534 -154 m 553 -154 l 622 -114 l 621 -35 l 553 -75 l 553 -154 m 543 -59 l 612 -19 l 544 20 l 475 -19 l 543 -59 m 334 -79 l 840 212 l 838 667 l 595 527 l 595 448 q 760 542 758 542 q 770 533 768 542 l 770 256 q 766 249 770 252 q 412 46 414 46 q 408 47 410 46 q 403 56 403 50 l 401 707 q 406 715 401 713 l 837 964 l 837 1044 l 332 752 q 334 -79 332 336 z "},"ģ":{"ha":1017,"x_min":160,"x_max":858,"o":"m 544 -179 l 541 -179 l 386 -89 q 381 -73 381 -85 q 322 -104 328 -104 l 322 -104 q 168 -14 320 -103 q 163 -6 163 -12 l 160 847 q 165 854 161 852 q 693 1158 690 1158 q 773 1113 696 1158 q 852 1067 851 1067 l 852 1067 l 854 1064 q 856 960 855 1064 q 851 951 855 954 l 419 702 l 420 248 l 599 351 l 599 429 q 586 422 587 422 q 428 513 584 422 q 423 521 424 515 l 423 622 q 428 629 424 627 q 694 782 692 782 q 852 691 697 782 q 854 690 854 690 q 855 688 854 689 q 856 687 855 687 l 856 685 l 857 685 l 858 207 q 853 199 858 202 l 562 31 l 635 -12 q 637 -13 637 -12 q 638 -15 637 -14 q 640 -17 640 -16 q 640 -19 640 -18 l 640 -119 q 635 -127 640 -125 q 544 -179 546 -179 m 576 448 l 576 527 l 441 605 l 442 526 l 576 448 m 585 543 l 829 684 l 694 762 l 451 621 l 585 543 m 421 71 l 743 257 l 608 335 l 420 227 l 421 71 m 751 273 l 751 517 l 617 439 l 617 351 l 751 273 m 315 -79 l 313 752 l 179 830 l 181 -1 l 315 -79 m 322 768 l 827 1059 l 693 1138 l 188 846 l 322 768 m 534 -154 l 534 -75 l 456 -30 l 400 -62 l 400 -75 l 534 -154 m 553 -154 l 622 -114 l 621 -35 l 553 -75 l 553 -154 m 543 -59 l 612 -19 l 544 20 l 475 -19 l 543 -59 m 334 -79 l 840 212 l 838 667 l 595 527 l 595 448 q 760 542 758 542 q 770 533 768 542 l 770 256 q 766 249 770 252 q 412 46 414 46 q 408 47 410 46 q 403 56 403 50 l 401 707 q 406 715 401 713 l 837 964 l 837 1044 l 332 752 q 334 -79 332 336 z "},"Ī":{"ha":1017,"x_min":160,"x_max":858,"o":"m 325 -104 l 322 -104 q 320 -103 321 -104 l 167 -14 q 163 -6 163 -12 l 162 95 q 167 102 163 100 l 380 226 l 379 680 l 327 649 l 325 648 l 319 648 l 319 649 l 318 649 l 165 739 q 160 746 161 741 l 160 847 q 165 854 161 852 l 325 947 l 252 989 q 247 997 248 992 l 247 1098 q 252 1105 248 1103 q 605 1308 603 1308 q 686 1263 608 1308 l 764 1217 q 764 1217 764 1217 q 765 1216 765 1217 l 766 1215 l 767 1212 l 768 1116 l 850 1068 l 852 1067 l 853 1066 l 854 1064 q 854 1063 854 1063 q 855 1063 854 1063 l 855 960 q 851 951 855 954 l 637 828 l 639 374 q 695 406 692 406 l 700 405 q 854 315 852 316 q 854 314 854 315 l 855 314 l 855 313 l 857 312 l 857 311 l 857 309 l 858 208 q 853 199 857 202 q 325 -104 328 -104 m 639 198 l 829 308 l 695 386 l 639 353 l 639 198 m 418 924 l 749 1115 l 749 1194 l 418 1003 l 418 924 m 409 1019 l 740 1210 l 605 1289 l 275 1097 l 409 1019 m 400 924 l 400 1003 l 265 1082 l 266 1002 l 400 924 m 313 673 l 313 752 l 178 831 l 179 751 l 313 673 m 322 768 l 827 1060 l 760 1100 q 410 899 411 899 l 406 899 l 406 900 l 343 936 l 188 846 l 322 768 m 315 -79 l 315 0 l 180 78 l 181 -1 l 315 -79 m 324 16 l 524 132 l 390 210 l 190 94 l 324 16 m 533 147 l 532 767 l 397 690 l 399 226 l 533 147 m 334 -79 l 839 213 l 839 292 q 632 173 633 173 q 630 172 631 172 q 621 182 621 172 l 619 833 q 623 842 619 839 l 837 965 l 837 1044 l 332 752 l 332 673 l 384 703 l 461 748 q 541 793 538 793 q 550 783 550 793 l 552 131 q 547 123 551 126 l 334 0 l 334 -79 z "},"ī":{"ha":1017,"x_min":160,"x_max":858,"o":"m 325 -104 l 322 -104 q 320 -103 321 -104 l 167 -14 q 163 -6 163 -12 l 162 95 q 167 102 163 100 l 380 226 l 379 680 l 327 649 l 325 648 l 319 648 l 319 649 l 318 649 l 165 739 q 160 746 161 741 l 160 847 q 165 854 161 852 l 325 947 l 252 989 q 247 997 248 992 l 247 1098 q 252 1105 248 1103 q 605 1308 603 1308 q 686 1263 608 1308 l 764 1217 q 764 1217 764 1217 q 765 1216 765 1217 l 766 1215 l 767 1212 l 768 1116 l 850 1068 l 852 1067 l 853 1066 l 854 1064 q 854 1063 854 1063 q 855 1063 854 1063 l 855 960 q 851 951 855 954 l 637 828 l 639 374 q 695 406 692 406 l 700 405 q 854 315 852 316 q 854 314 854 315 l 855 314 l 855 313 l 857 312 l 857 311 l 857 309 l 858 208 q 853 199 857 202 q 325 -104 328 -104 m 639 198 l 829 308 l 695 386 l 639 353 l 639 198 m 418 924 l 749 1115 l 749 1194 l 418 1003 l 418 924 m 409 1019 l 740 1210 l 605 1289 l 275 1097 l 409 1019 m 400 924 l 400 1003 l 265 1082 l 266 1002 l 400 924 m 313 673 l 313 752 l 178 831 l 179 751 l 313 673 m 322 768 l 827 1060 l 760 1100 q 410 899 411 899 l 406 899 l 406 900 l 343 936 l 188 846 l 322 768 m 315 -79 l 315 0 l 180 78 l 181 -1 l 315 -79 m 324 16 l 524 132 l 390 210 l 190 94 l 324 16 m 533 147 l 532 767 l 397 690 l 399 226 l 533 147 m 334 -79 l 839 213 l 839 292 q 632 173 633 173 q 630 172 631 172 q 621 182 621 172 l 619 833 q 623 842 619 839 l 837 965 l 837 1044 l 332 752 l 332 673 l 384 703 l 461 748 q 541 793 538 793 q 550 783 550 793 l 552 131 q 547 123 551 126 l 334 0 l 334 -79 z "},"Ķ":{"ha":1017,"x_min":160,"x_max":874,"o":"m 543 -179 l 540 -178 l 386 -89 q 381 -81 381 -86 l 381 -73 q 324 -104 327 -104 q 322 -104 323 -104 q 321 -103 321 -104 l 167 -14 q 162 -6 162 -12 l 160 847 q 164 854 160 852 q 256 906 254 906 q 337 861 259 906 q 415 815 414 816 l 415 814 q 416 813 416 814 l 417 813 q 418 811 417 812 q 419 655 418 809 q 631 1143 629 1141 q 633 1144 632 1144 l 633 1145 l 638 1145 q 714 1130 713 1131 l 868 1040 l 869 1040 q 870 1039 869 1039 q 871 1034 871 1038 l 872 1034 q 648 514 872 1031 q 874 254 874 257 q 798 149 874 250 l 798 149 q 795 147 796 147 q 793 147 794 147 q 749 170 790 147 q 633 239 633 237 l 510 378 l 420 326 l 420 48 q 477 79 475 79 q 558 34 480 79 q 637 -13 636 -12 q 640 -119 640 -17 q 635 -127 640 -125 q 543 -179 546 -179 m 812 1053 l 707 1114 l 688 1117 l 793 1056 l 812 1053 m 557 532 l 778 1043 l 642 1122 l 420 612 l 557 532 m 420 448 l 543 519 l 419 591 l 420 448 m 315 -79 l 313 752 l 178 830 l 180 -1 l 315 -79 m 322 768 l 391 808 l 256 886 l 187 846 l 322 768 m 553 -154 l 621 -114 l 621 -35 l 552 -75 l 553 -154 m 543 -59 l 612 -19 l 477 59 l 420 26 l 420 12 l 543 -59 m 534 -153 l 534 -75 l 421 -9 l 421 -45 q 416 -53 420 -50 l 399 -62 l 399 -75 l 534 -153 m 748 192 l 560 407 l 526 388 l 646 252 l 748 192 m 334 -79 l 402 -39 l 401 332 q 406 340 401 336 q 562 428 559 428 q 792 170 566 428 l 853 253 q 629 513 629 509 q 850 1026 629 514 l 795 1036 l 570 515 q 568 513 569 514 q 567 512 568 512 q 490 467 567 511 q 413 422 414 423 q 401 432 402 422 l 400 792 l 331 752 q 334 -79 333 336 z "},"ķ":{"ha":1017,"x_min":160,"x_max":874,"o":"m 543 -179 l 540 -178 l 386 -89 q 381 -81 381 -86 l 381 -73 q 324 -104 327 -104 q 322 -104 323 -104 q 321 -103 321 -104 l 167 -14 q 162 -6 162 -12 l 160 847 q 164 854 160 852 q 256 906 254 906 q 337 861 259 906 q 415 815 414 816 l 415 814 q 416 813 416 814 l 417 813 q 418 811 417 812 q 419 655 418 809 q 631 1143 629 1141 q 633 1144 632 1144 l 633 1145 l 638 1145 q 714 1130 713 1131 l 868 1040 l 869 1040 q 870 1039 869 1039 q 871 1034 871 1038 l 872 1034 q 648 514 872 1031 q 874 254 874 257 q 798 149 874 250 l 798 149 q 795 147 796 147 q 793 147 794 147 q 749 170 790 147 q 633 239 633 237 l 510 378 l 420 326 l 420 48 q 477 79 475 79 q 558 34 480 79 q 637 -13 636 -12 q 640 -119 640 -17 q 635 -127 640 -125 q 543 -179 546 -179 m 812 1053 l 707 1114 l 688 1117 l 793 1056 l 812 1053 m 557 532 l 778 1043 l 642 1122 l 420 612 l 557 532 m 420 448 l 543 519 l 419 591 l 420 448 m 315 -79 l 313 752 l 178 830 l 180 -1 l 315 -79 m 322 768 l 391 808 l 256 886 l 187 846 l 322 768 m 553 -154 l 621 -114 l 621 -35 l 552 -75 l 553 -154 m 543 -59 l 612 -19 l 477 59 l 420 26 l 420 12 l 543 -59 m 534 -153 l 534 -75 l 421 -9 l 421 -45 q 416 -53 420 -50 l 399 -62 l 399 -75 l 534 -153 m 748 192 l 560 407 l 526 388 l 646 252 l 748 192 m 334 -79 l 402 -39 l 401 332 q 406 340 401 336 q 562 428 559 428 q 792 170 566 428 l 853 253 q 629 513 629 509 q 850 1026 629 514 l 795 1036 l 570 515 q 568 513 569 514 q 567 512 568 512 q 490 467 567 511 q 413 422 414 423 q 401 432 402 422 l 400 792 l 331 752 q 334 -79 333 336 z "},"Ļ":{"ha":1017,"x_min":160,"x_max":858,"o":"m 543 -179 l 540 -178 q 539 -178 540 -178 l 538 -178 l 386 -89 q 381 -81 381 -86 l 381 -73 q 325 -104 327 -104 l 322 -104 l 320 -103 l 167 -14 q 163 -6 163 -12 l 160 847 q 165 854 161 852 q 256 906 254 906 q 337 861 259 906 l 416 814 l 418 812 l 418 809 l 420 248 q 695 406 692 406 q 775 360 698 406 q 854 315 853 315 q 855 313 855 315 l 857 309 l 858 208 q 853 199 857 202 l 562 31 l 635 -11 l 636 -12 l 637 -13 l 637 -14 q 638 -14 638 -14 q 639 -15 639 -14 l 640 -18 l 640 -119 q 635 -127 640 -125 q 543 -179 546 -179 m 421 72 l 829 308 l 695 386 l 420 227 l 421 72 m 315 -79 l 313 752 l 178 830 l 181 -1 l 315 -79 m 322 768 l 391 808 l 256 886 l 188 846 l 322 768 m 534 -153 l 534 -75 l 456 -30 l 399 -62 l 399 -75 l 534 -153 m 553 -154 l 621 -114 l 621 -35 l 553 -75 l 553 -154 m 543 -59 l 612 -19 l 544 21 l 475 -19 l 543 -59 m 334 -79 l 839 213 l 839 292 q 412 46 414 46 q 402 56 403 46 l 400 792 l 332 752 l 334 -79 z "},"ļ":{"ha":1017,"x_min":160,"x_max":858,"o":"m 543 -179 l 540 -178 q 539 -178 540 -178 l 538 -178 l 386 -89 q 381 -81 381 -86 l 381 -73 q 325 -104 327 -104 l 322 -104 l 320 -103 l 167 -14 q 163 -6 163 -12 l 160 847 q 165 854 161 852 q 256 906 254 906 q 337 861 259 906 l 416 814 l 418 812 l 418 809 l 420 248 q 695 406 692 406 q 775 360 698 406 q 854 315 853 315 q 855 313 855 315 l 857 309 l 858 208 q 853 199 857 202 l 562 31 l 635 -11 l 636 -12 l 637 -13 l 637 -14 q 638 -14 638 -14 q 639 -15 639 -14 l 640 -18 l 640 -119 q 635 -127 640 -125 q 543 -179 546 -179 m 421 72 l 829 308 l 695 386 l 420 227 l 421 72 m 315 -79 l 313 752 l 178 830 l 181 -1 l 315 -79 m 322 768 l 391 808 l 256 886 l 188 846 l 322 768 m 534 -153 l 534 -75 l 456 -30 l 399 -62 l 399 -75 l 534 -153 m 553 -154 l 621 -114 l 621 -35 l 553 -75 l 553 -154 m 543 -59 l 612 -19 l 544 21 l 475 -19 l 543 -59 m 334 -79 l 839 213 l 839 292 q 412 46 414 46 q 402 56 403 46 l 400 792 l 332 752 l 334 -79 z "},"Ņ":{"ha":1017,"x_min":160,"x_max":857,"o":"m 543 -179 q 541 -178 542 -179 l 538 -178 l 386 -89 q 381 -81 381 -86 l 381 -73 q 325 -104 327 -104 l 321 -104 l 321 -103 l 167 -14 q 162 -6 163 -12 l 160 847 q 165 854 161 852 q 256 906 254 906 q 338 861 259 906 l 414 816 l 414 815 l 417 813 l 598 577 l 596 1099 q 597 1099 597 1099 q 601 1106 597 1103 q 693 1158 690 1158 q 773 1113 696 1158 q 852 1067 851 1067 l 852 1065 l 853 1065 l 854 1064 l 854 1063 l 854 1063 l 854 1062 l 855 1061 l 857 208 q 853 199 857 202 l 765 149 l 761 148 l 760 148 l 680 193 q 601 240 602 239 l 420 477 l 421 48 q 477 79 475 79 l 482 78 q 636 -12 635 -11 l 637 -13 l 640 -18 l 640 -119 q 635 -127 640 -125 q 543 -179 546 -179 m 759 1020 l 827 1060 l 693 1138 l 624 1098 l 759 1020 m 751 377 l 749 1004 l 615 1082 l 616 553 l 751 377 m 315 -79 l 313 752 l 178 830 l 181 -1 l 315 -79 m 322 768 l 391 808 l 256 886 l 188 846 l 322 768 m 553 -154 l 621 -114 l 621 -35 l 552 -75 l 553 -154 m 543 -59 l 612 -19 l 477 59 l 421 26 l 421 12 l 543 -59 m 534 -154 l 534 -75 l 421 -9 l 421 -45 q 416 -53 421 -50 l 399 -62 l 399 -75 l 534 -154 m 725 189 l 419 587 l 420 507 l 614 253 l 725 189 m 334 -79 l 403 -39 l 402 32 l 401 615 q 410 624 401 624 q 417 621 414 624 l 764 169 l 839 212 l 837 1044 l 768 1004 l 770 350 q 760 340 769 340 l 757 341 q 676 444 749 349 l 407 795 l 332 752 l 334 -79 z "},"ņ":{"ha":1017,"x_min":160,"x_max":857,"o":"m 543 -179 q 541 -178 542 -179 l 538 -178 l 386 -89 q 381 -81 381 -86 l 381 -73 q 325 -104 327 -104 l 321 -104 l 321 -103 l 167 -14 q 162 -6 163 -12 l 160 847 q 165 854 161 852 q 256 906 254 906 q 338 861 259 906 l 414 816 l 414 815 l 417 813 l 598 577 l 596 1099 q 597 1099 597 1099 q 601 1106 597 1103 q 693 1158 690 1158 q 773 1113 696 1158 q 852 1067 851 1067 l 852 1065 l 853 1065 l 854 1064 l 854 1063 l 854 1063 l 854 1062 l 855 1061 l 857 208 q 853 199 857 202 l 765 149 l 761 148 l 760 148 l 680 193 q 601 240 602 239 l 420 477 l 421 48 q 477 79 475 79 l 482 78 q 636 -12 635 -11 l 637 -13 l 640 -18 l 640 -119 q 635 -127 640 -125 q 543 -179 546 -179 m 759 1020 l 827 1060 l 693 1138 l 624 1098 l 759 1020 m 751 377 l 749 1004 l 615 1082 l 616 553 l 751 377 m 315 -79 l 313 752 l 178 830 l 181 -1 l 315 -79 m 322 768 l 391 808 l 256 886 l 188 846 l 322 768 m 553 -154 l 621 -114 l 621 -35 l 552 -75 l 553 -154 m 543 -59 l 612 -19 l 477 59 l 421 26 l 421 12 l 543 -59 m 534 -154 l 534 -75 l 421 -9 l 421 -45 q 416 -53 421 -50 l 399 -62 l 399 -75 l 534 -154 m 725 189 l 419 587 l 420 507 l 614 253 l 725 189 m 334 -79 l 403 -39 l 402 32 l 401 615 q 410 624 401 624 q 417 621 414 624 l 764 169 l 839 212 l 837 1044 l 768 1004 l 770 350 q 760 340 769 340 l 757 341 q 676 444 749 349 l 407 795 l 332 752 l 334 -79 z "},"Š":{"ha":1017,"x_min":160,"x_max":858,"o":"m 325 -104 l 322 -104 l 320 -104 l 167 -14 q 163 -7 163 -12 l 162 94 q 167 102 163 99 l 599 351 l 598 429 q 326 272 327 272 q 323 271 325 271 l 322 271 l 321 272 l 319 273 l 166 361 q 161 370 161 364 l 160 847 q 165 854 161 851 l 411 996 l 404 1000 l 404 1000 l 252 1089 q 247 1097 247 1092 q 252 1105 247 1102 q 605 1308 603 1308 q 686 1262 608 1308 q 764 1216 764 1217 l 765 1216 l 766 1213 l 767 1208 q 766 1205 767 1206 l 728 1139 l 852 1067 l 852 1066 l 853 1065 l 854 1064 l 854 1063 l 854 1063 l 855 1061 l 855 959 q 851 951 855 954 l 419 702 l 419 624 q 694 781 692 781 q 774 736 696 781 q 852 690 852 691 l 854 690 l 854 689 l 855 688 l 856 684 l 857 684 l 858 207 q 853 199 857 201 q 325 -104 328 -104 m 420 447 l 829 684 l 694 762 l 419 603 l 420 447 m 496 968 l 665 1065 l 733 1184 l 427 1008 l 496 968 m 409 1019 l 740 1210 l 605 1288 l 275 1097 l 409 1019 m 315 296 l 313 751 l 178 830 l 180 375 l 315 296 m 322 768 l 827 1059 l 719 1122 l 679 1054 q 589 1000 678 1052 q 496 949 499 949 q 430 985 494 949 l 188 846 l 322 768 m 315 -79 l 315 -1 l 181 78 l 181 -1 l 315 -79 m 324 16 l 743 257 l 608 335 l 190 94 l 324 16 m 751 273 l 751 517 l 617 439 l 617 351 l 751 273 m 334 -79 l 839 212 l 838 667 q 413 422 414 422 q 411 422 412 422 q 401 431 401 422 l 401 707 q 406 715 401 712 l 837 964 l 837 1044 l 332 751 l 333 296 q 760 542 758 542 q 769 532 769 542 l 770 256 q 766 249 770 252 l 334 -1 l 334 -79 z "},"š":{"ha":1017,"x_min":160,"x_max":858,"o":"m 325 -104 l 322 -104 l 320 -104 l 167 -14 q 163 -7 163 -12 l 162 94 q 167 102 163 99 l 599 351 l 598 429 q 326 272 327 272 q 323 271 325 271 l 322 271 l 321 272 l 319 273 l 166 361 q 161 370 161 364 l 160 847 q 165 854 161 851 l 411 996 l 404 1000 l 404 1000 l 252 1089 q 247 1097 247 1092 q 252 1105 247 1102 q 605 1308 603 1308 q 686 1262 608 1308 q 764 1216 764 1217 l 765 1216 l 766 1213 l 767 1208 q 766 1205 767 1206 l 728 1139 l 852 1067 l 852 1066 l 853 1065 l 854 1064 l 854 1063 l 854 1063 l 855 1061 l 855 959 q 851 951 855 954 l 419 702 l 419 624 q 694 781 692 781 q 774 736 696 781 q 852 690 852 691 l 854 690 l 854 689 l 855 688 l 856 684 l 857 684 l 858 207 q 853 199 857 201 q 325 -104 328 -104 m 420 447 l 829 684 l 694 762 l 419 603 l 420 447 m 496 968 l 665 1065 l 733 1184 l 427 1008 l 496 968 m 409 1019 l 740 1210 l 605 1288 l 275 1097 l 409 1019 m 315 296 l 313 751 l 178 830 l 180 375 l 315 296 m 322 768 l 827 1059 l 719 1122 l 679 1054 q 589 1000 678 1052 q 496 949 499 949 q 430 985 494 949 l 188 846 l 322 768 m 315 -79 l 315 -1 l 181 78 l 181 -1 l 315 -79 m 324 16 l 743 257 l 608 335 l 190 94 l 324 16 m 751 273 l 751 517 l 617 439 l 617 351 l 751 273 m 334 -79 l 839 212 l 838 667 q 413 422 414 422 q 411 422 412 422 q 401 431 401 422 l 401 707 q 406 715 401 712 l 837 964 l 837 1044 l 332 751 l 333 296 q 760 542 758 542 q 769 532 769 542 l 770 256 q 766 249 770 252 l 334 -1 l 334 -79 z "},"Ū":{"ha":1017,"x_min":160,"x_max":858,"o":"m 325 -104 l 322 -104 l 168 -14 q 163 -7 163 -12 l 160 847 q 165 854 161 851 q 257 905 254 905 q 337 860 260 905 q 416 814 415 815 l 417 813 l 418 812 l 418 809 l 419 809 l 420 248 l 599 351 l 597 1005 l 414 900 q 407 899 412 899 q 406 899 407 899 l 405 900 l 252 989 q 248 997 248 991 l 247 1098 q 252 1105 248 1103 q 606 1308 603 1308 q 686 1262 608 1308 q 764 1217 764 1217 l 766 1214 q 767 1212 767 1213 l 768 1211 l 768 1116 l 851 1067 l 853 1065 q 854 1065 853 1065 l 855 1062 l 858 207 q 853 199 858 201 q 325 -104 328 -104 m 759 1020 l 828 1059 l 760 1099 l 690 1059 l 759 1020 m 751 273 l 749 1004 l 672 1048 l 615 1016 l 617 351 l 751 273 m 400 924 l 400 1003 l 265 1081 l 266 1002 l 400 924 m 409 1019 l 740 1210 l 606 1288 l 275 1097 l 409 1019 m 418 924 l 749 1115 l 749 1194 l 418 1003 l 418 924 m 421 71 l 743 257 l 608 335 l 420 227 l 421 71 m 315 -79 l 313 751 l 179 830 l 181 -1 l 315 -79 m 323 768 l 391 808 l 257 886 l 188 846 l 323 768 m 334 -79 l 840 212 l 837 1044 l 768 1004 l 770 256 q 766 249 770 252 q 412 46 414 46 q 403 55 403 46 l 401 791 l 332 751 l 334 -79 z "},"ū":{"ha":1017,"x_min":160,"x_max":858,"o":"m 325 -104 l 322 -104 l 168 -14 q 163 -7 163 -12 l 160 847 q 165 854 161 851 q 257 905 254 905 q 337 860 260 905 q 416 814 415 815 l 417 813 l 418 812 l 418 809 l 419 809 l 420 248 l 599 351 l 597 1005 l 414 900 q 407 899 412 899 q 406 899 407 899 l 405 900 l 252 989 q 248 997 248 991 l 247 1098 q 252 1105 248 1103 q 606 1308 603 1308 q 686 1262 608 1308 q 764 1217 764 1217 l 766 1214 q 767 1212 767 1213 l 768 1211 l 768 1116 l 851 1067 l 853 1065 q 854 1065 853 1065 l 855 1062 l 858 207 q 853 199 858 201 q 325 -104 328 -104 m 759 1020 l 828 1059 l 760 1099 l 690 1059 l 759 1020 m 751 273 l 749 1004 l 672 1048 l 615 1016 l 617 351 l 751 273 m 400 924 l 400 1003 l 265 1081 l 266 1002 l 400 924 m 409 1019 l 740 1210 l 606 1288 l 275 1097 l 409 1019 m 418 924 l 749 1115 l 749 1194 l 418 1003 l 418 924 m 421 71 l 743 257 l 608 335 l 420 227 l 421 71 m 315 -79 l 313 751 l 179 830 l 181 -1 l 315 -79 m 323 768 l 391 808 l 257 886 l 188 846 l 323 768 m 334 -79 l 840 212 l 837 1044 l 768 1004 l 770 256 q 766 249 770 252 q 412 46 414 46 q 403 55 403 46 l 401 791 l 332 751 l 334 -79 z "},"Ž":{"ha":1017,"x_min":160,"x_max":857,"o":"m 324 -104 l 321 -104 q 167 -14 320 -103 q 162 -7 162 -12 q 163 97 162 96 l 452 721 l 325 648 l 321 648 q 165 738 317 649 q 160 745 160 741 l 160 847 q 164 854 160 851 l 411 996 l 251 1089 q 247 1097 247 1092 q 251 1105 247 1102 q 605 1308 602 1308 q 686 1263 608 1308 q 766 1214 766 1216 q 767 1211 766 1212 l 767 1208 l 728 1139 l 851 1067 l 852 1067 q 852 1066 852 1066 q 853 1065 852 1065 q 854 1062 853 1064 q 855 1009 855 1060 q 854 956 855 957 l 565 332 q 695 406 692 406 q 775 360 697 406 q 854 314 853 315 q 856 311 856 314 q 857 310 857 311 q 857 207 857 309 q 852 199 857 201 q 324 -104 327 -104 m 453 90 l 829 307 l 695 385 l 551 302 l 453 90 m 496 969 l 664 1065 l 732 1184 l 427 1008 l 496 969 m 409 1019 l 739 1210 l 605 1288 l 274 1097 l 409 1019 m 313 673 l 313 751 l 178 830 l 178 751 l 313 673 m 322 768 l 827 1059 l 718 1123 l 679 1055 q 588 1000 677 1052 q 496 949 498 949 q 429 985 494 949 l 187 846 l 322 768 m 315 -79 l 315 -1 l 180 78 l 180 -1 l 315 -79 m 320 18 l 718 874 l 479 737 l 183 98 l 320 18 m 334 -79 l 839 212 l 839 291 q 429 58 435 58 l 429 59 q 423 67 423 62 q 837 961 423 69 l 836 1044 l 331 751 l 332 673 q 738 906 735 906 q 744 903 741 906 q 747 897 747 901 q 334 3 747 895 l 334 -79 z "},"ž":{"ha":1017,"x_min":160,"x_max":857,"o":"m 324 -104 l 321 -104 q 167 -14 320 -103 q 162 -7 162 -12 q 163 97 162 96 l 452 721 l 325 648 l 321 648 q 165 738 317 649 q 160 745 160 741 l 160 847 q 164 854 160 851 l 411 996 l 251 1089 q 247 1097 247 1092 q 251 1105 247 1102 q 605 1308 602 1308 q 686 1263 608 1308 q 766 1214 766 1216 q 767 1211 766 1212 l 767 1208 l 728 1139 l 851 1067 l 852 1067 q 852 1066 852 1066 q 853 1065 852 1065 q 854 1062 853 1064 q 855 1009 855 1060 q 854 956 855 957 l 565 332 q 695 406 692 406 q 775 360 697 406 q 854 314 853 315 q 856 311 856 314 q 857 310 857 311 q 857 207 857 309 q 852 199 857 201 q 324 -104 327 -104 m 453 90 l 829 307 l 695 385 l 551 302 l 453 90 m 496 969 l 664 1065 l 732 1184 l 427 1008 l 496 969 m 409 1019 l 739 1210 l 605 1288 l 274 1097 l 409 1019 m 313 673 l 313 751 l 178 830 l 178 751 l 313 673 m 322 768 l 827 1059 l 718 1123 l 679 1055 q 588 1000 677 1052 q 496 949 498 949 q 429 985 494 949 l 187 846 l 322 768 m 315 -79 l 315 -1 l 180 78 l 180 -1 l 315 -79 m 320 18 l 718 874 l 479 737 l 183 98 l 320 18 m 334 -79 l 839 212 l 839 291 q 429 58 435 58 l 429 59 q 423 67 423 62 q 837 961 423 69 l 836 1044 l 331 751 l 332 673 q 738 906 735 906 q 744 903 741 906 q 747 897 747 901 q 334 3 747 895 l 334 -79 z "},"Ä":{"ha":1017,"x_min":160,"x_max":858,"o":"m 325 -104 l 322 -104 q 321 -104 322 -104 l 321 -104 q 320 -103 320 -104 l 167 -14 q 163 -6 163 -12 l 160 847 q 165 854 161 852 l 368 972 l 296 1014 q 291 1022 291 1017 l 290 1123 q 295 1131 291 1128 q 387 1182 385 1182 q 465 1138 389 1182 l 465 1223 q 469 1231 465 1228 q 562 1282 559 1282 q 642 1237 564 1282 q 720 1192 720 1192 q 721 1191 721 1191 q 722 1190 722 1191 l 724 1186 l 724 1141 l 852 1067 l 852 1066 l 853 1065 l 854 1064 l 854 1063 l 854 1063 l 855 1061 l 858 207 q 853 199 857 202 q 763 148 764 148 q 761 147 762 147 l 760 148 l 758 148 l 758 149 l 756 149 l 604 237 q 599 245 599 240 l 598 429 l 420 326 l 421 -45 q 416 -53 421 -50 q 325 -104 328 -104 m 637 1050 l 705 1090 l 705 1168 l 636 1128 l 637 1050 m 627 1145 l 696 1185 l 562 1263 l 492 1223 l 627 1145 m 618 1050 l 618 1128 l 484 1207 l 484 1128 l 618 1050 m 462 949 l 531 989 l 531 1067 l 462 1028 l 462 949 m 452 1044 l 522 1084 l 387 1162 l 318 1122 l 452 1044 m 444 949 l 444 1028 l 309 1106 l 309 1027 l 444 949 m 315 -79 l 313 752 l 178 830 l 181 -1 l 315 -79 m 322 768 l 827 1059 l 724 1120 l 724 1084 q 720 1076 724 1079 q 627 1025 629 1025 l 625 1025 q 625 1025 625 1025 l 623 1025 l 562 1061 l 549 1055 l 549 983 q 545 975 549 978 q 452 924 456 924 l 449 924 l 449 925 l 387 961 l 188 846 l 322 768 m 752 173 l 751 517 l 617 439 l 617 251 l 752 173 m 334 -79 l 403 -39 l 401 331 q 406 339 402 336 l 603 452 l 603 453 q 760 542 758 542 q 764 541 762 542 q 769 533 769 538 l 770 173 l 839 212 l 837 1044 l 332 752 l 334 -79 m 411 422 q 401 431 401 422 l 401 707 q 406 715 401 713 q 759 918 756 918 q 768 909 767 918 l 769 632 q 764 625 768 627 q 411 422 414 422 m 419 625 l 597 727 l 597 805 l 419 702 l 419 625 m 420 448 l 741 633 l 607 711 l 419 603 l 420 448 m 751 649 l 750 893 l 616 816 l 616 727 l 751 649 z "},"ä":{"ha":1017,"x_min":160,"x_max":858,"o":"m 325 -104 l 322 -104 q 321 -104 322 -104 l 321 -104 q 320 -103 320 -104 l 167 -14 q 163 -6 163 -12 l 160 847 q 165 854 161 852 l 368 972 l 296 1014 q 291 1022 291 1017 l 290 1123 q 295 1131 291 1128 q 387 1182 385 1182 q 465 1138 389 1182 l 465 1223 q 469 1231 465 1228 q 562 1282 559 1282 q 642 1237 564 1282 q 720 1192 720 1192 q 721 1191 721 1191 q 722 1190 722 1191 l 724 1186 l 724 1141 l 852 1067 l 852 1066 l 853 1065 l 854 1064 l 854 1063 l 854 1063 l 855 1061 l 858 207 q 853 199 857 202 q 763 148 764 148 q 761 147 762 147 l 760 148 l 758 148 l 758 149 l 756 149 l 604 237 q 599 245 599 240 l 598 429 l 420 326 l 421 -45 q 416 -53 421 -50 q 325 -104 328 -104 m 637 1050 l 705 1090 l 705 1168 l 636 1128 l 637 1050 m 627 1145 l 696 1185 l 562 1263 l 492 1223 l 627 1145 m 618 1050 l 618 1128 l 484 1207 l 484 1128 l 618 1050 m 462 949 l 531 989 l 531 1067 l 462 1028 l 462 949 m 452 1044 l 522 1084 l 387 1162 l 318 1122 l 452 1044 m 444 949 l 444 1028 l 309 1106 l 309 1027 l 444 949 m 315 -79 l 313 752 l 178 830 l 181 -1 l 315 -79 m 322 768 l 827 1059 l 724 1120 l 724 1084 q 720 1076 724 1079 q 627 1025 629 1025 l 625 1025 q 625 1025 625 1025 l 623 1025 l 562 1061 l 549 1055 l 549 983 q 545 975 549 978 q 452 924 456 924 l 449 924 l 449 925 l 387 961 l 188 846 l 322 768 m 752 173 l 751 517 l 617 439 l 617 251 l 752 173 m 334 -79 l 403 -39 l 401 331 q 406 339 402 336 l 603 452 l 603 453 q 760 542 758 542 q 764 541 762 542 q 769 533 769 538 l 770 173 l 839 212 l 837 1044 l 332 752 l 334 -79 m 411 422 q 401 431 401 422 l 401 707 q 406 715 401 713 q 759 918 756 918 q 768 909 767 918 l 769 632 q 764 625 768 627 q 411 422 414 422 m 419 625 l 597 727 l 597 805 l 419 702 l 419 625 m 420 448 l 741 633 l 607 711 l 419 603 l 420 448 m 751 649 l 750 893 l 616 816 l 616 727 l 751 649 z "},"Ë":{"ha":1017,"x_min":160,"x_max":858,"o":"m 325 -104 l 322 -104 l 322 -104 l 167 -14 q 163 -6 163 -12 l 160 847 q 165 854 161 852 l 368 972 l 295 1014 q 291 1022 291 1017 l 290 1123 q 295 1131 291 1128 q 387 1182 385 1182 q 465 1138 389 1182 l 465 1226 q 466 1228 466 1227 q 469 1231 467 1228 q 562 1283 559 1283 q 720 1192 564 1283 q 721 1191 721 1192 l 722 1191 l 722 1189 l 723 1189 q 724 1141 724 1185 l 852 1067 l 852 1066 q 853 1064 853 1065 q 855 1062 854 1063 l 855 960 q 851 951 855 954 l 419 702 l 419 625 q 694 782 692 782 q 775 736 696 782 q 854 689 853 690 q 857 583 857 684 q 852 575 857 578 l 420 326 l 420 248 q 695 406 692 406 q 775 360 698 406 q 854 315 853 315 l 854 314 q 856 313 855 314 q 856 312 856 313 q 857 310 856 312 q 858 207 857 309 q 853 199 857 202 q 325 -104 328 -104 m 421 71 l 829 307 l 695 386 l 420 227 l 421 71 m 420 448 l 829 684 l 694 762 l 419 603 l 420 448 m 637 1050 l 705 1090 l 705 1168 l 636 1129 l 637 1050 m 627 1145 l 696 1185 l 562 1263 l 492 1223 l 627 1145 m 618 1050 l 618 1129 l 484 1207 l 484 1128 l 618 1050 m 462 949 l 531 989 l 531 1068 l 462 1028 l 462 949 m 452 1044 l 522 1084 l 387 1162 l 318 1122 l 452 1044 m 444 949 l 444 1028 l 309 1106 l 309 1027 l 444 949 m 315 -79 l 313 752 l 178 830 l 181 -1 l 315 -79 m 322 768 l 827 1059 l 724 1120 l 724 1084 q 720 1076 724 1079 q 627 1025 629 1025 l 625 1025 l 562 1061 l 549 1055 l 549 983 q 545 975 549 978 q 453 924 456 924 q 387 961 449 925 l 188 846 l 322 768 m 334 -79 l 839 212 l 839 292 q 412 46 414 46 q 402 56 403 46 l 401 331 q 406 339 401 336 l 838 589 l 838 667 q 410 422 413 422 q 404 425 407 422 q 401 707 401 428 q 405 715 401 713 l 837 964 l 837 1044 l 332 752 l 334 -79 z "},"ë":{"ha":1017,"x_min":160,"x_max":858,"o":"m 325 -104 l 322 -104 l 322 -104 l 167 -14 q 163 -6 163 -12 l 160 847 q 165 854 161 852 l 368 972 l 295 1014 q 291 1022 291 1017 l 290 1123 q 295 1131 291 1128 q 387 1182 385 1182 q 465 1138 389 1182 l 465 1226 q 466 1228 466 1227 q 469 1231 467 1228 q 562 1283 559 1283 q 720 1192 564 1283 q 721 1191 721 1192 l 722 1191 l 722 1189 l 723 1189 q 724 1141 724 1185 l 852 1067 l 852 1066 q 853 1064 853 1065 q 855 1062 854 1063 l 855 960 q 851 951 855 954 l 419 702 l 419 625 q 694 782 692 782 q 775 736 696 782 q 854 689 853 690 q 857 583 857 684 q 852 575 857 578 l 420 326 l 420 248 q 695 406 692 406 q 775 360 698 406 q 854 315 853 315 l 854 314 q 856 313 855 314 q 856 312 856 313 q 857 310 856 312 q 858 207 857 309 q 853 199 857 202 q 325 -104 328 -104 m 421 71 l 829 307 l 695 386 l 420 227 l 421 71 m 420 448 l 829 684 l 694 762 l 419 603 l 420 448 m 637 1050 l 705 1090 l 705 1168 l 636 1129 l 637 1050 m 627 1145 l 696 1185 l 562 1263 l 492 1223 l 627 1145 m 618 1050 l 618 1129 l 484 1207 l 484 1128 l 618 1050 m 462 949 l 531 989 l 531 1068 l 462 1028 l 462 949 m 452 1044 l 522 1084 l 387 1162 l 318 1122 l 452 1044 m 444 949 l 444 1028 l 309 1106 l 309 1027 l 444 949 m 315 -79 l 313 752 l 178 830 l 181 -1 l 315 -79 m 322 768 l 827 1059 l 724 1120 l 724 1084 q 720 1076 724 1079 q 627 1025 629 1025 l 625 1025 l 562 1061 l 549 1055 l 549 983 q 545 975 549 978 q 453 924 456 924 q 387 961 449 925 l 188 846 l 322 768 m 334 -79 l 839 212 l 839 292 q 412 46 414 46 q 402 56 403 46 l 401 331 q 406 339 401 336 l 838 589 l 838 667 q 410 422 413 422 q 404 425 407 422 q 401 707 401 428 q 405 715 401 713 l 837 964 l 837 1044 l 332 752 l 334 -79 z "},"Ï":{"ha":1017,"x_min":160,"x_max":858,"o":"m 325 -104 l 322 -104 l 168 -14 q 163 -7 163 -12 l 163 97 l 163 98 l 164 98 q 380 225 164 100 l 379 679 l 326 648 q 319 648 321 648 l 319 649 l 318 649 l 165 738 q 161 746 161 741 l 160 846 q 161 846 160 846 l 161 847 q 165 854 161 852 l 368 971 l 296 1014 q 291 1022 291 1017 l 291 1123 q 295 1130 291 1128 q 387 1182 385 1182 q 465 1138 390 1182 l 465 1225 l 466 1225 q 467 1227 466 1227 q 514 1256 468 1230 q 562 1282 559 1282 q 642 1237 564 1282 q 720 1192 720 1192 l 722 1191 l 722 1190 l 722 1190 l 724 1187 l 724 1185 l 724 1185 l 724 1141 l 851 1067 l 854 1064 l 855 1061 l 856 959 q 851 951 856 954 l 637 828 l 639 374 q 695 406 694 406 q 776 360 698 406 l 854 315 l 854 315 l 854 314 l 855 314 l 855 313 l 857 312 l 858 307 l 858 207 q 853 199 858 202 q 325 -104 328 -104 m 640 197 l 830 307 l 695 386 l 639 353 l 640 197 m 637 1050 l 706 1090 l 705 1168 l 637 1128 l 637 1050 m 627 1145 l 696 1185 l 562 1263 l 493 1223 l 627 1145 m 618 1050 l 618 1128 l 484 1207 l 484 1128 l 618 1050 m 463 949 l 531 989 l 531 1067 l 462 1028 l 463 949 m 453 1044 l 522 1084 l 387 1162 l 318 1122 l 453 1044 m 444 949 l 444 1028 l 309 1106 l 309 1027 l 444 949 m 313 673 l 313 752 l 179 830 l 179 751 l 313 673 m 323 768 l 828 1059 l 724 1120 l 724 1084 q 720 1076 724 1079 q 628 1025 630 1025 l 625 1025 l 562 1061 l 549 1055 l 549 983 q 545 975 549 978 q 453 924 456 924 l 450 924 q 449 925 450 924 q 387 961 448 925 l 188 846 l 323 768 m 315 -79 l 315 0 l 181 78 l 181 -1 l 315 -79 m 325 16 l 524 131 l 390 209 l 190 94 l 325 16 m 534 147 l 532 767 l 398 690 l 399 225 l 534 147 m 334 -79 l 840 212 l 839 292 l 633 172 l 630 172 q 621 181 621 172 l 619 833 q 624 841 619 838 l 838 964 l 837 1044 l 332 752 q 332 673 332 693 q 541 792 538 792 q 550 783 550 792 l 552 130 q 547 123 551 125 l 334 0 l 334 -79 z "},"ï":{"ha":1017,"x_min":160,"x_max":858,"o":"m 325 -104 l 322 -104 l 168 -14 q 163 -7 163 -12 l 163 97 l 163 98 l 164 98 q 380 225 164 100 l 379 679 l 326 648 q 319 648 321 648 l 319 649 l 318 649 l 165 738 q 161 746 161 741 l 160 846 q 161 846 160 846 l 161 847 q 165 854 161 852 l 368 971 l 296 1014 q 291 1022 291 1017 l 291 1123 q 295 1130 291 1128 q 387 1182 385 1182 q 465 1138 390 1182 l 465 1225 l 466 1225 q 467 1227 466 1227 q 514 1256 468 1230 q 562 1282 559 1282 q 642 1237 564 1282 q 720 1192 720 1192 l 722 1191 l 722 1190 l 722 1190 l 724 1187 l 724 1185 l 724 1185 l 724 1141 l 851 1067 l 854 1064 l 855 1061 l 856 959 q 851 951 856 954 l 637 828 l 639 374 q 695 406 694 406 q 776 360 698 406 l 854 315 l 854 315 l 854 314 l 855 314 l 855 313 l 857 312 l 858 307 l 858 207 q 853 199 858 202 q 325 -104 328 -104 m 640 197 l 830 307 l 695 386 l 639 353 l 640 197 m 637 1050 l 706 1090 l 705 1168 l 637 1128 l 637 1050 m 627 1145 l 696 1185 l 562 1263 l 493 1223 l 627 1145 m 618 1050 l 618 1128 l 484 1207 l 484 1128 l 618 1050 m 463 949 l 531 989 l 531 1067 l 462 1028 l 463 949 m 453 1044 l 522 1084 l 387 1162 l 318 1122 l 453 1044 m 444 949 l 444 1028 l 309 1106 l 309 1027 l 444 949 m 313 673 l 313 752 l 179 830 l 179 751 l 313 673 m 323 768 l 828 1059 l 724 1120 l 724 1084 q 720 1076 724 1079 q 628 1025 630 1025 l 625 1025 l 562 1061 l 549 1055 l 549 983 q 545 975 549 978 q 453 924 456 924 l 450 924 q 449 925 450 924 q 387 961 448 925 l 188 846 l 323 768 m 315 -79 l 315 0 l 181 78 l 181 -1 l 315 -79 m 325 16 l 524 131 l 390 209 l 190 94 l 325 16 m 534 147 l 532 767 l 398 690 l 399 225 l 534 147 m 334 -79 l 840 212 l 839 292 l 633 172 l 630 172 q 621 181 621 172 l 619 833 q 624 841 619 838 l 838 964 l 837 1044 l 332 752 q 332 673 332 693 q 541 792 538 792 q 550 783 550 792 l 552 130 q 547 123 551 125 l 334 0 l 334 -79 z "},"Ö":{"ha":1017,"x_min":160,"x_max":857,"o":"m 324 -104 l 321 -104 l 320 -103 l 319 -103 l 167 -14 q 162 -6 162 -12 l 160 847 q 164 854 160 852 l 368 972 l 295 1015 q 290 1022 290 1017 l 290 1124 q 295 1131 291 1128 q 387 1182 384 1182 q 465 1138 389 1182 l 465 1224 q 469 1232 465 1229 q 561 1283 559 1283 q 642 1238 564 1283 q 720 1192 720 1192 l 722 1190 l 722 1188 l 723 1188 l 723 1186 q 724 1141 724 1185 q 852 1067 851 1067 l 852 1066 l 852 1065 l 854 1065 l 854 1061 q 855 1060 855 1061 l 857 208 q 852 199 857 202 q 324 -104 327 -104 m 636 1050 l 705 1090 l 705 1169 l 636 1129 l 636 1050 m 627 1145 l 696 1185 l 561 1263 l 492 1223 l 627 1145 m 618 1050 l 618 1129 l 484 1207 l 484 1128 l 618 1050 m 462 949 l 530 989 l 530 1068 l 462 1028 l 462 949 m 452 1044 l 522 1084 l 387 1162 l 318 1122 l 452 1044 m 444 949 l 443 1028 l 309 1107 l 309 1027 l 444 949 m 315 -79 l 313 752 l 178 830 l 180 -1 l 315 -79 m 322 768 l 827 1060 l 724 1120 l 724 1084 q 719 1076 724 1080 q 627 1025 629 1025 l 625 1025 q 623 1026 623 1025 l 561 1062 l 549 1055 l 549 984 q 545 976 549 979 q 452 924 454 924 l 448 925 l 448 926 l 387 961 l 187 846 l 322 768 m 334 -79 l 839 213 l 836 1044 l 331 752 l 334 -79 m 412 47 q 402 56 402 47 l 400 708 q 405 715 400 713 q 759 919 756 919 q 768 909 768 919 l 770 256 q 765 250 769 252 q 412 47 414 47 m 420 249 l 598 351 l 597 805 l 418 703 l 420 249 m 420 72 l 742 258 l 608 336 l 420 227 l 420 72 m 751 273 l 749 893 l 615 816 l 616 351 l 751 273 z "},"ö":{"ha":1017,"x_min":160,"x_max":857,"o":"m 324 -104 l 321 -104 l 320 -103 l 319 -103 l 167 -14 q 162 -6 162 -12 l 160 847 q 164 854 160 852 l 368 972 l 295 1015 q 290 1022 290 1017 l 290 1124 q 295 1131 291 1128 q 387 1182 384 1182 q 465 1138 389 1182 l 465 1224 q 469 1232 465 1229 q 561 1283 559 1283 q 642 1238 564 1283 q 720 1192 720 1192 l 722 1190 l 722 1188 l 723 1188 l 723 1186 q 724 1141 724 1185 q 852 1067 851 1067 l 852 1066 l 852 1065 l 854 1065 l 854 1061 q 855 1060 855 1061 l 857 208 q 852 199 857 202 q 324 -104 327 -104 m 636 1050 l 705 1090 l 705 1169 l 636 1129 l 636 1050 m 627 1145 l 696 1185 l 561 1263 l 492 1223 l 627 1145 m 618 1050 l 618 1129 l 484 1207 l 484 1128 l 618 1050 m 462 949 l 530 989 l 530 1068 l 462 1028 l 462 949 m 452 1044 l 522 1084 l 387 1162 l 318 1122 l 452 1044 m 444 949 l 443 1028 l 309 1107 l 309 1027 l 444 949 m 315 -79 l 313 752 l 178 830 l 180 -1 l 315 -79 m 322 768 l 827 1060 l 724 1120 l 724 1084 q 719 1076 724 1080 q 627 1025 629 1025 l 625 1025 q 623 1026 623 1025 l 561 1062 l 549 1055 l 549 984 q 545 976 549 979 q 452 924 454 924 l 448 925 l 448 926 l 387 961 l 187 846 l 322 768 m 334 -79 l 839 213 l 836 1044 l 331 752 l 334 -79 m 412 47 q 402 56 402 47 l 400 708 q 405 715 400 713 q 759 919 756 919 q 768 909 768 919 l 770 256 q 765 250 769 252 q 412 47 414 47 m 420 249 l 598 351 l 597 805 l 418 703 l 420 249 m 420 72 l 742 258 l 608 336 l 420 227 l 420 72 m 751 273 l 749 893 l 615 816 l 616 351 l 751 273 z "},"Ü":{"ha":1017,"x_min":160,"x_max":857,"o":"m 325 -104 l 321 -104 q 321 -103 321 -103 l 167 -14 q 162 -6 163 -12 l 160 847 q 165 854 161 852 q 256 906 254 906 q 338 861 259 906 l 415 815 q 416 814 416 815 q 416 814 416 814 l 418 812 l 418 809 l 420 249 l 598 351 l 597 1042 l 549 1069 l 549 984 q 545 976 549 979 l 457 926 q 450 924 455 924 l 295 1015 q 290 1022 291 1017 l 290 1125 l 291 1125 q 292 1127 291 1126 q 339 1156 293 1129 q 387 1182 385 1182 q 465 1138 389 1182 l 465 1223 l 465 1224 q 467 1228 465 1226 q 468 1231 467 1230 q 513 1257 469 1232 q 562 1283 559 1283 q 643 1238 564 1283 l 720 1192 l 720 1192 l 722 1191 l 722 1190 l 722 1189 l 723 1189 l 723 1187 l 724 1186 l 724 1141 l 852 1067 q 852 1066 852 1067 l 854 1065 l 854 1064 q 854 1063 854 1063 l 854 1062 l 855 1061 l 857 208 q 853 199 857 202 q 325 -104 327 -104 m 759 1020 l 827 1060 l 724 1120 l 724 1084 q 720 1076 724 1080 l 690 1060 l 759 1020 m 751 273 l 749 1004 l 672 1049 q 629 1025 631 1025 l 627 1025 q 615 1031 624 1025 l 617 351 l 751 273 m 637 1050 l 705 1090 l 705 1169 l 636 1129 l 637 1050 m 627 1145 l 696 1185 l 562 1263 l 492 1223 l 627 1145 m 444 949 l 444 1028 l 309 1107 l 309 1027 l 444 949 m 452 1044 l 522 1084 l 387 1162 l 318 1122 l 452 1044 m 462 949 l 531 989 l 530 1068 l 462 1028 l 462 949 m 618 1050 l 618 1129 l 484 1207 l 484 1128 l 618 1050 m 420 72 l 742 258 l 608 336 l 420 227 l 420 72 m 315 -79 l 313 752 l 178 830 l 181 -1 l 315 -79 m 322 768 l 391 808 l 256 886 l 188 846 l 322 768 m 334 -79 l 839 213 l 837 1044 l 768 1004 l 770 256 q 765 250 769 252 q 412 47 414 47 q 407 47 409 47 q 402 56 403 51 l 400 792 l 332 752 l 334 -79 z "},"ü":{"ha":1017,"x_min":160,"x_max":857,"o":"m 325 -104 l 321 -104 q 321 -103 321 -103 l 167 -14 q 162 -6 163 -12 l 160 847 q 165 854 161 852 q 256 906 254 906 q 338 861 259 906 l 415 815 q 416 814 416 815 q 416 814 416 814 l 418 812 l 418 809 l 420 249 l 598 351 l 597 1042 l 549 1069 l 549 984 q 545 976 549 979 l 457 926 q 450 924 455 924 l 295 1015 q 290 1022 291 1017 l 290 1125 l 291 1125 q 292 1127 291 1126 q 339 1156 293 1129 q 387 1182 385 1182 q 465 1138 389 1182 l 465 1223 l 465 1224 q 467 1228 465 1226 q 468 1231 467 1230 q 513 1257 469 1232 q 562 1283 559 1283 q 643 1238 564 1283 l 720 1192 l 720 1192 l 722 1191 l 722 1190 l 722 1189 l 723 1189 l 723 1187 l 724 1186 l 724 1141 l 852 1067 q 852 1066 852 1067 l 854 1065 l 854 1064 q 854 1063 854 1063 l 854 1062 l 855 1061 l 857 208 q 853 199 857 202 q 325 -104 327 -104 m 759 1020 l 827 1060 l 724 1120 l 724 1084 q 720 1076 724 1080 l 690 1060 l 759 1020 m 751 273 l 749 1004 l 672 1049 q 629 1025 631 1025 l 627 1025 q 615 1031 624 1025 l 617 351 l 751 273 m 637 1050 l 705 1090 l 705 1169 l 636 1129 l 637 1050 m 627 1145 l 696 1185 l 562 1263 l 492 1223 l 627 1145 m 444 949 l 444 1028 l 309 1107 l 309 1027 l 444 949 m 452 1044 l 522 1084 l 387 1162 l 318 1122 l 452 1044 m 462 949 l 531 989 l 530 1068 l 462 1028 l 462 949 m 618 1050 l 618 1129 l 484 1207 l 484 1128 l 618 1050 m 420 72 l 742 258 l 608 336 l 420 227 l 420 72 m 315 -79 l 313 752 l 178 830 l 181 -1 l 315 -79 m 322 768 l 391 808 l 256 886 l 188 846 l 322 768 m 334 -79 l 839 213 l 837 1044 l 768 1004 l 770 256 q 765 250 769 252 q 412 47 414 47 q 407 47 409 47 q 402 56 403 51 l 400 792 l 332 752 l 334 -79 z "},"¡":{"ha":1017,"x_min":378,"x_max":639,"o":"m 543 21 l 540 21 l 539 22 l 538 22 l 385 111 q 380 119 380 114 l 378 797 q 383 804 379 802 l 434 833 l 383 863 q 378 871 378 866 l 378 972 q 382 979 379 977 q 475 1031 472 1031 q 555 986 477 1031 q 633 940 633 941 l 635 939 l 635 937 l 636 937 l 636 935 q 637 935 637 935 l 637 833 q 633 825 637 827 l 581 795 l 633 765 q 633 764 633 765 l 635 764 l 635 763 l 635 763 l 636 761 l 637 761 l 637 758 l 637 758 l 639 80 q 635 73 639 75 q 543 21 546 21 m 550 798 l 618 838 l 618 917 l 549 877 l 550 798 m 541 893 l 609 933 l 475 1011 l 406 971 l 541 893 m 531 798 l 531 877 l 397 956 l 397 876 l 531 798 m 534 46 l 532 702 l 397 780 l 399 124 l 534 46 m 541 718 l 610 758 l 563 785 q 543 773 544 773 l 541 773 q 538 773 538 773 q 537 774 537 774 q 536 774 536 774 q 452 823 536 774 l 406 795 l 541 718 m 552 46 l 621 85 l 619 741 l 550 702 l 552 46 z "},"¿":{"ha":1017,"x_min":160,"x_max":857,"o":"m 323 -104 l 321 -104 q 319 -104 321 -104 l 319 -103 l 166 -14 q 161 -7 161 -12 l 160 471 q 165 478 161 475 l 378 601 l 378 798 q 382 804 378 802 l 433 834 l 382 864 q 378 871 378 867 l 377 973 q 382 980 378 977 q 473 1031 471 1031 q 554 986 476 1031 q 632 941 632 941 l 633 941 q 634 939 633 939 q 635 936 635 937 q 636 833 636 934 q 631 825 636 828 l 581 795 l 633 765 q 634 764 634 764 q 635 763 635 764 q 635 761 635 763 q 637 625 636 760 q 693 656 691 656 q 774 611 696 656 q 852 565 852 566 q 854 562 853 564 q 857 207 856 559 q 852 199 857 201 q 323 -104 326 -104 m 759 518 l 828 558 l 693 636 l 637 604 l 637 589 l 759 518 m 751 273 l 750 503 l 637 568 l 637 457 q 633 449 637 452 l 616 439 l 616 351 l 751 273 m 420 71 l 741 257 l 607 335 l 419 227 l 420 71 m 419 248 l 597 351 l 597 429 l 419 326 l 419 248 m 549 799 l 618 838 l 618 918 l 549 878 l 549 799 m 539 894 l 608 933 l 474 1012 l 405 972 l 539 894 m 530 799 l 530 878 l 396 956 l 396 877 l 530 799 m 540 718 l 609 758 l 562 785 q 541 774 543 774 q 537 774 538 774 q 536 774 536 774 q 452 823 535 774 l 406 796 l 540 718 m 531 523 l 530 702 l 396 781 l 397 601 l 531 523 m 315 -79 l 313 376 l 178 454 l 180 -1 l 315 -79 m 322 391 l 522 507 l 387 585 l 188 470 l 322 391 m 333 -79 l 838 212 l 837 542 l 768 503 l 769 256 q 764 249 768 252 q 411 46 413 46 q 401 55 401 46 l 401 331 q 406 339 401 336 l 618 463 l 618 742 l 549 702 l 550 507 q 545 499 549 502 l 332 376 l 333 -79 z "},"÷":{"ha":1017,"x_min":161,"x_max":857,"o":"m 543 271 q 434 333 540 271 l 328 272 q 321 271 326 271 q 321 272 321 271 l 319 272 l 166 361 q 161 369 162 364 l 161 472 l 162 472 q 392 608 163 475 q 384 613 388 610 q 380 621 380 615 l 379 722 q 384 728 380 726 q 475 781 473 781 q 584 719 478 781 q 694 781 691 781 q 774 736 696 781 q 853 690 852 690 q 854 688 854 690 q 855 687 854 688 q 856 686 855 686 l 856 684 q 857 583 857 684 q 852 574 857 577 l 626 444 l 635 439 q 636 437 635 439 q 638 434 637 435 q 639 331 639 432 q 634 323 639 326 q 543 271 544 271 m 541 643 l 610 682 l 475 760 l 406 721 l 541 643 m 551 547 l 619 587 l 619 667 l 550 627 l 551 547 m 532 548 l 532 627 l 397 705 l 397 626 l 532 548 m 314 296 l 314 375 l 180 454 l 180 374 l 314 296 m 323 391 l 829 683 l 694 761 l 602 708 q 636 686 635 689 q 637 582 637 683 q 633 574 637 576 q 541 522 545 523 q 410 597 538 522 l 189 469 l 323 391 m 533 297 l 532 376 l 520 383 l 452 344 l 533 297 m 542 392 l 610 431 l 607 433 l 538 394 l 542 392 m 551 297 l 620 336 l 620 416 l 551 376 l 551 297 m 333 296 l 838 588 l 838 667 l 332 375 l 333 296 z "},"¢":{"ha":1017,"x_min":160,"x_max":857,"o":"m 324 -104 l 321 -104 l 166 -14 q 162 -6 162 -12 l 160 596 q 165 604 161 601 l 378 726 l 378 848 q 382 854 378 852 q 474 907 472 907 q 583 845 477 907 q 693 907 691 907 q 773 862 696 907 q 852 816 851 817 l 853 814 l 854 813 l 854 812 l 854 811 q 855 810 855 811 l 855 709 q 851 701 855 703 l 419 451 l 420 248 q 694 406 692 406 q 776 360 697 406 l 853 315 l 854 313 l 855 312 l 855 311 l 856 311 l 857 309 l 857 207 q 852 199 857 202 l 639 76 l 639 -44 q 634 -52 639 -50 l 545 -104 l 540 -104 l 434 -42 q 324 -104 326 -104 m 533 -79 l 533 15 l 452 -32 l 533 -79 m 333 -79 q 542 40 540 40 q 551 31 551 40 l 552 -79 l 621 -39 l 621 81 q 625 89 621 86 l 838 212 l 838 292 q 411 46 414 46 q 401 56 403 46 l 401 456 q 405 465 401 462 l 837 714 l 837 793 q 628 673 630 673 q 618 683 618 673 l 618 792 l 549 753 l 550 633 q 545 625 549 627 l 332 501 l 333 -79 m 315 -79 l 313 501 l 178 579 l 180 -1 l 315 -79 m 322 517 l 522 633 l 387 711 l 188 595 l 322 517 m 531 648 l 531 753 l 397 831 l 397 726 l 531 648 m 637 699 l 827 809 l 693 887 l 601 834 q 633 815 633 816 q 634 815 633 815 q 634 814 634 814 q 635 813 635 814 q 635 812 635 813 q 636 811 635 812 q 636 810 636 811 q 636 809 636 810 q 637 699 637 808 m 540 768 l 609 808 l 474 886 l 406 846 l 540 768 m 420 71 l 829 307 l 694 386 l 420 227 l 420 71 z "},"#":{"ha":1017,"x_min":161,"x_max":857,"o":"m 433 -41 q 276 48 430 -41 q 271 56 271 52 l 271 175 l 166 236 q 161 244 161 239 l 161 345 q 166 353 162 350 l 271 413 l 271 426 l 165 487 q 161 495 161 490 l 161 596 q 165 603 161 601 l 270 663 l 269 910 q 273 917 270 914 q 366 968 363 968 q 488 899 368 968 l 487 1036 l 488 1036 q 492 1043 488 1040 q 584 1095 581 1095 q 664 1049 586 1095 q 743 1003 742 1004 l 744 1002 l 745 1000 l 745 998 l 746 998 l 746 878 l 851 817 q 852 816 852 817 l 852 816 l 853 814 l 854 814 l 854 813 l 855 810 l 856 810 l 856 709 q 851 701 856 703 l 747 640 l 747 627 l 852 566 l 853 565 q 854 564 854 565 l 854 564 l 855 563 l 855 562 l 856 562 l 856 559 l 857 558 l 857 458 q 852 450 857 452 l 747 389 l 748 144 q 744 136 748 138 q 654 84 655 85 q 652 84 653 84 l 648 85 l 648 85 l 647 85 l 530 154 l 530 18 q 526 10 530 13 q 433 -41 437 -41 m 443 -16 l 511 23 l 511 269 q 515 277 511 274 q 651 353 648 353 q 661 345 659 353 l 661 109 l 730 149 l 729 395 q 734 403 729 400 l 838 463 l 838 542 q 738 486 741 486 q 729 495 729 486 l 728 646 q 733 653 728 650 l 838 713 l 838 793 q 737 736 740 736 q 728 745 728 736 l 728 981 l 659 941 l 659 695 q 654 687 659 690 q 519 610 522 610 q 510 620 510 610 l 509 854 l 440 814 l 441 568 q 437 562 440 564 l 332 501 l 332 422 q 432 478 429 478 q 441 469 441 478 l 441 317 q 437 311 441 313 l 333 250 l 333 172 q 433 228 430 228 q 442 218 442 228 l 443 -16 m 642 109 l 642 328 l 530 263 l 530 175 l 642 109 m 323 266 l 414 318 l 279 397 l 189 344 l 323 266 m 323 517 l 414 569 l 279 647 l 189 595 l 323 517 m 422 585 l 422 814 l 288 892 l 288 663 l 422 585 m 528 635 l 631 695 l 528 755 l 528 635 m 650 956 l 718 996 l 584 1074 l 515 1035 l 650 956 m 641 711 l 640 941 l 506 1019 l 506 888 q 524 877 524 878 q 525 877 524 877 q 525 876 525 877 q 526 875 526 876 q 527 874 526 875 q 527 873 527 874 q 528 872 528 873 q 528 871 528 871 q 528 777 528 871 l 641 711 m 431 830 l 500 870 l 366 948 l 296 909 l 431 830 m 314 422 l 313 500 l 179 578 l 179 500 l 314 422 m 423 334 l 423 453 q 323 397 326 397 l 318 397 l 289 415 l 289 412 l 423 334 m 315 171 l 314 250 l 180 328 l 180 249 l 315 171 m 425 -17 l 424 202 q 323 146 326 146 l 319 147 l 290 164 l 290 62 l 425 -17 m 747 762 l 828 808 l 746 856 l 747 762 m 747 511 l 829 557 l 747 605 l 747 511 m 520 360 q 511 369 511 360 l 510 519 q 515 528 511 525 q 650 604 648 604 q 660 595 659 604 l 660 445 q 655 437 660 439 q 520 360 523 360 m 529 385 l 642 450 l 641 578 l 529 514 l 529 385 z "},"&":{"ha":1017,"x_min":160,"x_max":856,"o":"m 410 46 q 401 55 402 46 l 400 331 q 405 339 400 336 q 759 542 757 542 q 768 532 768 542 l 768 254 q 764 249 767 251 q 410 46 413 46 m 419 248 l 597 351 l 597 429 l 418 326 l 419 248 m 420 71 l 741 257 l 606 335 l 419 227 l 420 71 m 750 273 l 749 517 l 615 439 l 616 351 l 750 273 m 323 -104 l 320 -104 l 320 -104 l 319 -104 l 165 -15 q 161 -7 161 -12 l 160 471 q 164 478 160 475 l 269 538 l 268 909 q 273 917 269 914 q 583 1095 580 1095 q 664 1049 585 1095 l 741 1004 l 742 1003 q 743 1002 742 1002 l 743 1002 l 743 1002 l 745 998 l 745 896 q 734 884 745 890 l 851 816 l 851 815 l 852 814 l 853 813 l 853 812 l 854 812 l 854 811 l 854 810 l 856 207 q 852 199 856 201 q 323 -104 326 -104 m 758 769 l 827 808 l 715 873 l 646 833 l 758 769 m 528 510 l 740 633 l 606 711 l 527 666 l 528 510 m 527 687 l 596 727 l 596 805 l 527 765 l 527 687 m 749 649 l 749 753 l 628 823 l 614 815 l 614 727 l 749 649 m 430 831 l 717 996 l 583 1075 l 296 909 l 430 831 m 422 460 l 420 814 l 286 892 l 288 538 l 422 460 m 314 -79 l 313 376 l 178 454 l 180 -1 l 314 -79 m 322 391 l 412 444 l 278 522 l 187 470 l 322 391 m 332 -79 l 838 212 l 836 793 l 767 753 l 768 632 q 763 625 767 627 q 518 485 521 485 q 509 492 511 485 l 509 770 q 513 778 509 775 l 726 901 l 726 981 l 439 814 l 440 443 q 435 436 439 438 l 331 376 l 332 -79 z "},"~":{"ha":1017,"x_min":160,"x_max":857,"o":"m 323 146 l 321 146 l 166 237 q 161 244 161 239 l 160 596 l 161 596 q 165 604 161 601 q 475 781 473 781 q 597 711 477 781 l 597 848 q 602 855 597 853 q 693 907 690 907 q 851 817 696 907 q 852 815 852 816 q 854 814 853 814 q 855 811 854 813 l 857 458 q 852 450 857 453 q 542 272 544 272 q 539 273 541 272 q 537 273 538 273 l 420 342 l 420 206 q 415 198 420 201 q 323 146 326 146 m 759 769 l 828 809 l 693 887 l 625 847 l 759 769 m 750 524 l 749 753 l 615 831 l 616 701 q 634 690 633 690 q 634 689 634 690 q 635 689 635 689 q 636 687 635 688 q 637 589 637 686 l 750 524 m 637 448 l 741 508 l 637 568 l 637 448 m 314 172 l 313 501 l 179 579 l 180 250 l 314 172 m 323 517 l 610 683 l 475 761 l 188 595 l 323 517 m 532 298 l 532 516 l 419 451 l 420 363 l 532 298 m 333 172 l 401 212 l 401 456 q 406 465 401 462 q 541 542 538 542 q 550 532 550 542 l 551 298 l 838 463 l 837 793 l 768 753 l 769 507 q 768 507 768 507 q 764 500 768 503 l 631 423 q 619 432 621 423 q 618 667 619 584 l 332 501 l 333 172 z "},"`":{"ha":1017,"x_min":203,"x_max":637,"o":"m 366 994 l 522 1084 l 387 1162 l 231 1072 l 366 994 m 453 944 l 609 1034 l 540 1074 l 384 983 l 453 944 m 453 924 q 208 1064 448 924 q 203 1072 203 1067 q 208 1080 203 1078 l 385 1182 q 391 1181 389 1182 q 632 1042 402 1176 q 637 1034 635 1040 q 632 1027 636 1029 l 632 1026 q 453 924 456 924 z "},"´":{"ha":1017,"x_min":292,"x_max":725,"o":"m 454 924 q 452 925 453 924 q 450 926 451 926 l 297 1015 q 292 1023 292 1017 q 359 1141 292 1025 q 382 1180 381 1179 q 471 1232 384 1181 q 563 1283 561 1283 q 644 1238 566 1283 q 723 1192 722 1193 q 724 1189 724 1191 q 725 1183 725 1187 l 724 1181 l 724 1181 l 637 1030 q 546 976 635 1028 q 454 924 457 924 m 479 959 l 623 1042 l 691 1160 l 548 1078 l 479 959 m 542 1095 l 698 1185 l 563 1263 l 407 1173 l 542 1095 m 451 947 l 529 1081 l 392 1160 l 314 1026 l 451 947 z "},"£":{"ha":1017,"x_min":160,"x_max":857,"o":"m 323 -104 l 321 -104 l 319 -104 l 319 -104 l 166 -14 q 161 -7 161 -12 l 161 95 q 165 102 161 99 l 270 162 l 270 300 l 165 361 q 160 370 160 364 l 160 471 q 165 477 161 475 l 269 538 l 268 910 q 273 917 269 914 q 692 1158 689 1158 q 772 1112 694 1158 l 850 1066 l 852 1065 l 852 1065 l 852 1065 l 854 1061 l 854 833 q 850 826 854 829 q 758 774 760 774 q 756 774 757 774 l 755 774 q 754 775 755 775 l 753 775 l 650 836 l 527 765 l 528 626 l 633 564 l 634 564 l 635 562 l 636 561 l 636 559 q 637 559 637 559 l 637 457 q 633 449 637 452 l 528 389 l 528 311 q 694 406 691 406 q 851 315 696 406 l 852 314 l 854 313 l 854 313 l 854 313 l 856 309 l 857 207 q 852 199 856 201 q 323 -104 327 -104 m 529 134 l 829 307 l 694 385 l 528 290 l 529 134 m 528 510 l 609 557 l 528 605 l 528 510 m 749 800 l 749 892 l 668 846 l 749 800 m 430 831 l 826 1059 l 692 1137 l 296 909 l 430 831 m 422 460 l 421 814 l 286 893 l 288 538 l 422 460 m 322 391 l 413 444 l 278 522 l 188 470 l 322 391 m 423 84 l 422 328 l 327 273 q 322 271 325 271 l 320 272 l 288 290 l 288 162 l 423 84 m 313 296 l 313 376 l 178 454 l 178 375 l 313 296 m 314 -79 l 314 -1 l 180 78 l 180 -1 l 314 -79 m 323 16 l 414 68 l 279 146 l 189 94 l 323 16 m 332 -79 l 838 212 l 838 291 q 519 109 522 109 q 510 118 511 109 l 509 394 q 514 402 510 399 l 618 463 l 618 541 q 519 485 521 485 q 509 494 509 485 l 509 770 q 513 778 509 775 q 758 918 755 918 q 767 909 767 918 l 767 800 l 836 839 l 836 1044 l 439 814 l 440 444 q 436 436 440 439 l 332 376 l 332 296 q 431 353 429 353 q 441 344 441 353 l 441 68 q 437 60 441 62 l 332 -1 l 332 -79 z "},"µ":{"ha":1017,"x_min":160,"x_max":857,"o":"m 324 -232 l 321 -231 l 167 -142 q 162 -134 163 -139 l 160 594 q 165 602 161 599 q 257 653 254 653 q 337 608 259 653 l 415 562 l 416 562 l 416 562 l 416 562 l 416 561 l 417 561 l 418 559 l 418 557 l 418 556 l 419 556 l 420 246 l 598 349 q 597 846 597 597 l 597 848 q 602 853 598 851 q 693 905 690 905 l 698 904 q 852 814 850 815 l 853 813 l 853 812 l 854 812 l 854 810 l 855 808 l 857 205 q 852 197 857 200 l 420 -52 l 421 -172 q 416 -180 421 -178 q 324 -232 327 -232 m 759 767 l 827 807 l 693 885 l 624 845 l 759 767 m 751 271 l 749 751 l 615 829 l 616 349 l 751 271 m 420 69 l 742 255 l 607 333 l 420 225 l 420 69 m 315 -207 l 313 499 l 179 577 l 180 -128 l 315 -207 m 322 515 l 391 555 l 257 633 l 188 593 l 322 515 m 334 -207 l 403 -167 l 402 -47 q 407 -39 402 -41 l 838 210 l 837 791 l 768 751 l 770 255 l 769 254 q 765 247 769 250 q 411 44 414 44 q 402 54 402 44 l 401 539 l 332 499 l 334 -207 z "},"™":{"ha":1017,"x_min":161,"x_max":856,"o":"m 433 376 l 430 377 l 430 378 l 429 378 l 275 467 q 271 475 271 469 l 271 677 l 165 739 q 161 746 161 741 l 161 848 q 165 854 161 852 q 693 1158 691 1158 q 774 1113 696 1158 q 852 1067 852 1067 l 852 1067 l 853 1067 l 854 1065 q 854 1065 854 1065 l 854 1064 q 855 1063 854 1063 l 855 1061 q 856 1060 856 1061 l 856 960 q 850 951 856 954 q 838 944 844 948 l 839 615 q 834 607 838 610 l 563 450 l 558 450 l 530 467 l 530 436 q 525 429 530 431 q 433 376 435 376 m 323 768 l 828 1060 l 694 1138 l 188 846 l 323 768 m 314 673 l 313 752 l 179 831 l 179 751 l 314 673 m 424 402 l 423 705 q 323 648 326 648 l 321 648 q 320 649 320 648 q 319 649 319 649 q 318 649 319 649 q 289 667 318 649 l 290 480 l 424 402 m 551 475 l 550 778 l 529 766 l 530 488 l 551 475 m 442 402 l 511 441 l 510 770 q 515 779 510 776 q 559 803 557 803 q 568 794 568 803 l 570 475 l 638 515 l 637 844 q 644 854 637 849 q 650 856 648 856 q 660 846 659 856 l 661 528 l 729 568 l 728 897 q 735 906 728 902 q 741 908 739 908 q 751 899 749 908 l 751 581 l 820 620 l 819 949 q 824 957 819 954 l 838 965 l 838 1044 l 332 752 l 332 673 q 432 730 429 730 q 441 720 441 730 l 442 402 z "},"{":{"ha":1017,"x_min":161,"x_max":857,"o":"m 433 -42 l 430 -41 l 276 48 q 271 56 271 51 l 271 300 l 165 361 q 161 370 161 364 l 161 471 q 165 478 161 475 l 270 538 l 269 910 q 273 917 270 914 q 693 1158 690 1158 q 773 1112 695 1158 q 851 1067 851 1067 q 852 1066 852 1067 l 852 1066 l 853 1065 q 854 1064 853 1064 l 854 1063 q 854 1063 854 1063 l 854 1060 q 855 959 855 1060 q 850 951 855 954 l 528 765 l 529 311 q 695 406 692 406 q 775 360 697 406 q 854 315 853 315 l 854 314 q 854 313 854 314 l 856 312 l 857 309 l 857 309 l 857 309 l 857 207 q 852 199 857 201 q 433 -42 436 -42 m 530 134 l 829 307 l 695 385 l 530 290 l 530 134 m 431 831 l 827 1059 l 692 1137 l 296 909 l 431 831 m 423 460 l 422 814 l 288 892 l 288 538 l 423 460 m 323 391 l 414 444 l 279 522 l 189 470 l 323 391 m 314 296 l 314 376 l 180 454 l 180 375 l 314 296 m 425 -16 l 423 328 q 323 271 326 271 l 321 272 q 320 272 321 272 q 319 273 320 272 l 319 273 l 289 290 l 290 62 l 425 -16 m 443 -16 l 839 212 l 839 291 q 521 109 523 109 q 511 118 511 109 l 509 770 q 514 778 509 775 l 837 964 l 836 1044 l 440 814 l 441 444 q 437 436 441 439 l 332 376 l 332 296 q 433 353 430 353 q 441 344 441 353 l 443 -16 z "},"}":{"ha":1017,"x_min":160,"x_max":857,"o":"m 325 -104 l 321 -104 l 167 -14 q 162 -6 163 -12 l 162 95 q 167 102 163 100 l 490 288 l 488 742 q 322 648 325 648 q 165 738 319 648 q 160 746 161 741 l 160 847 q 165 854 161 852 q 584 1095 581 1095 q 742 1004 587 1095 q 743 1003 743 1004 l 744 1003 l 745 1001 l 745 1001 l 745 999 l 746 999 l 747 753 q 854 690 853 691 q 855 688 854 688 q 857 583 856 684 q 852 575 857 578 l 747 515 l 748 144 q 744 136 748 139 q 325 -104 327 -104 m 747 637 l 829 684 l 747 731 l 747 637 m 313 673 l 313 752 l 178 830 l 178 751 l 313 673 m 322 768 l 718 997 l 584 1075 l 188 846 l 322 768 m 315 -79 l 315 0 l 180 78 l 181 -1 l 315 -79 m 324 16 l 633 195 l 498 273 l 190 94 l 324 16 m 642 210 l 641 830 l 507 753 l 508 288 l 642 210 m 334 -79 l 730 150 l 729 520 q 733 528 729 526 l 838 589 l 838 668 q 738 612 741 612 q 728 621 728 612 l 728 981 l 332 752 l 332 673 q 650 856 647 856 q 659 846 658 856 l 661 195 q 656 186 661 189 l 334 0 l 334 -79 z "},"¥":{"ha":1017,"x_min":160,"x_max":857,"o":"m 324 21 l 322 21 l 167 111 q 162 119 163 114 l 162 220 q 167 227 163 225 l 239 269 l 166 312 q 161 319 162 315 l 161 421 q 166 428 162 425 l 217 457 l 165 487 q 161 495 161 490 l 160 847 l 161 848 q 165 854 161 852 q 257 906 254 906 q 337 861 259 906 q 415 815 415 815 q 416 814 416 815 l 416 814 q 417 812 417 813 q 418 811 418 811 l 418 809 l 419 808 l 419 750 l 597 852 l 597 1099 q 602 1106 597 1103 q 693 1158 690 1158 q 773 1113 696 1158 q 852 1067 851 1067 l 852 1067 l 854 1064 q 857 709 855 1064 q 852 701 856 703 l 801 671 q 855 637 854 640 l 856 637 l 857 533 q 852 525 857 528 l 780 483 l 854 440 l 854 439 q 856 438 855 439 q 857 437 856 437 l 857 435 q 857 332 857 435 q 852 325 857 328 l 639 201 l 640 81 q 635 73 640 76 l 545 22 l 541 22 q 539 23 541 22 q 435 83 538 23 q 324 21 327 21 m 639 323 l 829 433 l 761 473 l 639 401 l 639 323 m 638 524 l 829 633 l 782 661 l 638 577 l 638 524 m 759 1020 l 827 1060 l 693 1138 l 624 1098 l 759 1020 m 750 774 l 749 1004 l 615 1082 l 616 852 l 750 774 m 420 573 l 741 759 l 606 837 l 419 728 l 420 573 m 322 768 l 391 808 l 257 886 l 188 846 l 322 768 m 314 422 l 313 752 l 179 830 l 180 500 l 314 422 m 323 342 l 524 457 l 477 484 q 323 397 326 397 q 235 447 319 398 l 189 420 l 323 342 m 532 473 l 532 516 l 495 495 l 532 473 m 315 247 l 315 326 l 180 404 l 180 325 l 315 247 m 315 46 l 315 125 l 180 203 l 180 124 l 315 46 m 324 141 l 524 256 l 456 296 q 324 222 326 222 q 258 258 319 222 l 190 219 l 324 141 m 533 273 l 533 340 l 474 307 l 533 273 m 534 47 l 534 140 l 453 94 l 534 47 m 334 46 q 543 165 540 165 q 552 156 552 165 l 552 47 l 621 87 l 621 207 q 625 214 621 212 l 839 338 l 839 417 q 629 298 632 298 q 625 299 627 298 q 621 307 621 302 l 620 407 q 625 415 621 412 l 838 538 l 838 617 q 629 498 631 498 q 620 507 620 498 l 620 583 q 624 591 620 588 l 838 714 l 837 1044 l 768 1004 l 769 759 q 764 751 768 753 q 410 548 412 548 q 401 557 401 548 l 401 792 l 332 752 l 332 422 q 542 542 539 542 q 551 532 551 542 l 551 457 q 547 449 551 452 l 333 326 l 333 247 q 542 366 540 366 q 551 357 551 366 l 551 256 q 547 248 551 252 l 334 125 l 334 46 z "},"<":{"ha":1017,"x_min":143,"x_max":857,"o":"m 568 161 q 433 237 566 161 l 301 313 l 148 401 q 143 410 143 404 q 275 640 143 412 l 406 866 l 408 869 l 408 869 l 550 951 q 694 1032 692 1032 q 774 987 696 1032 q 852 941 852 942 l 853 940 l 854 940 l 854 939 l 854 938 l 855 938 l 855 936 l 856 935 l 856 834 q 851 826 856 829 l 610 686 l 442 397 l 451 391 q 695 531 692 531 q 775 486 698 531 q 854 439 853 440 l 855 439 l 857 434 l 857 332 q 852 325 857 328 q 568 161 571 161 m 604 302 l 829 433 l 695 511 l 469 381 l 604 302 m 566 783 l 828 935 l 694 1013 l 432 861 l 566 783 m 302 333 l 554 769 l 417 849 l 165 413 l 302 333 m 568 182 l 839 338 l 839 417 l 609 284 l 606 283 q 606 283 606 283 l 600 283 q 600 284 600 284 l 425 384 q 420 391 420 387 q 421 396 420 394 q 595 698 422 398 q 838 840 596 700 l 838 918 l 573 766 q 318 324 332 347 l 568 182 z "},">":{"ha":1017,"x_min":160,"x_max":874,"o":"m 323 21 q 321 21 322 21 q 320 22 321 22 l 319 22 l 166 111 q 161 119 162 114 l 161 220 q 166 228 162 225 l 408 367 l 575 657 l 566 662 q 322 523 325 523 l 320 523 l 165 613 q 160 621 161 616 l 160 722 q 165 729 161 726 l 447 892 l 450 892 q 454 890 452 892 l 716 741 q 870 651 870 652 q 872 650 871 651 q 873 648 873 649 q 874 647 873 647 q 874 643 874 646 q 873 642 873 642 q 873 641 873 641 q 873 640 873 640 q 612 187 873 640 q 468 103 610 185 q 323 21 326 21 m 313 548 l 313 627 l 178 705 l 178 626 l 313 548 m 322 643 l 584 794 l 449 872 l 188 721 l 322 643 m 564 284 l 729 570 l 591 648 l 427 363 l 564 284 m 315 47 l 314 125 l 180 203 l 180 125 l 315 47 m 323 141 l 549 271 l 414 350 l 189 220 l 323 141 m 333 46 l 597 199 l 852 641 q 810 665 849 642 l 602 783 l 332 627 l 332 548 q 566 682 564 682 q 746 581 569 682 q 751 572 751 578 l 575 267 l 572 264 l 572 264 l 333 125 l 333 46 z "},"À":{"ha":1017,"x_min":160,"x_max":858,"o":"m 325 -104 l 322 -104 q 320 -103 321 -104 l 168 -14 q 163 -6 163 -12 l 160 847 q 165 854 161 852 l 368 971 l 208 1064 q 203 1072 203 1067 q 208 1080 203 1078 l 382 1181 l 385 1181 l 385 1182 l 389 1182 l 391 1181 q 562 1083 477 1133 q 693 1158 690 1158 q 773 1113 696 1158 q 852 1067 851 1067 q 853 1066 852 1066 q 853 1065 853 1066 l 854 1064 l 854 1064 l 854 1063 l 855 1061 l 858 208 q 853 199 857 202 l 766 149 l 764 148 l 758 148 q 758 149 758 149 l 757 149 l 604 238 q 599 245 599 241 l 598 429 l 420 326 l 421 -45 q 416 -53 421 -50 q 325 -104 328 -104 m 453 944 l 609 1034 l 540 1074 l 384 983 l 453 944 m 366 994 l 522 1084 l 387 1162 l 231 1072 l 366 994 m 322 768 l 827 1060 l 693 1138 l 580 1072 l 632 1042 q 636 1036 635 1040 l 637 1034 q 633 1026 636 1029 l 632 1026 l 544 975 q 453 924 455 924 q 448 925 450 924 l 386 961 l 188 846 l 322 768 m 752 173 l 751 517 l 617 439 l 617 251 l 752 173 m 334 -79 l 403 -39 l 401 332 q 406 339 402 336 q 760 543 758 543 q 769 533 769 543 l 770 173 l 839 212 l 837 1044 l 332 752 l 334 -79 m 315 -79 l 313 752 l 178 830 l 181 -1 l 315 -79 m 411 422 q 401 432 401 422 l 401 707 q 406 715 401 713 q 759 918 756 918 q 768 909 768 918 l 769 633 q 764 625 769 628 q 411 422 413 422 m 419 625 l 597 728 l 597 805 l 419 702 l 419 625 m 751 649 l 750 893 l 616 816 l 616 728 l 751 649 m 420 448 l 741 633 l 607 711 l 419 604 l 420 448 z "},"à":{"ha":1017,"x_min":160,"x_max":858,"o":"m 325 -104 l 322 -104 q 320 -103 321 -104 l 168 -14 q 163 -6 163 -12 l 160 847 q 165 854 161 852 l 368 971 l 208 1064 q 203 1072 203 1067 q 208 1080 203 1078 l 382 1181 l 385 1181 l 385 1182 l 389 1182 l 391 1181 q 562 1083 477 1133 q 693 1158 690 1158 q 773 1113 696 1158 q 852 1067 851 1067 q 853 1066 852 1066 q 853 1065 853 1066 l 854 1064 l 854 1064 l 854 1063 l 855 1061 l 858 208 q 853 199 857 202 l 766 149 l 764 148 l 758 148 q 758 149 758 149 l 757 149 l 604 238 q 599 245 599 241 l 598 429 l 420 326 l 421 -45 q 416 -53 421 -50 q 325 -104 328 -104 m 453 944 l 609 1034 l 540 1074 l 384 983 l 453 944 m 366 994 l 522 1084 l 387 1162 l 231 1072 l 366 994 m 322 768 l 827 1060 l 693 1138 l 580 1072 l 632 1042 q 636 1036 635 1040 l 637 1034 q 633 1026 636 1029 l 632 1026 l 544 975 q 453 924 455 924 q 448 925 450 924 l 386 961 l 188 846 l 322 768 m 752 173 l 751 517 l 617 439 l 617 251 l 752 173 m 334 -79 l 403 -39 l 401 332 q 406 339 402 336 q 760 543 758 543 q 769 533 769 543 l 770 173 l 839 212 l 837 1044 l 332 752 l 334 -79 m 315 -79 l 313 752 l 178 830 l 181 -1 l 315 -79 m 411 422 q 401 432 401 422 l 401 707 q 406 715 401 713 q 759 918 756 918 q 768 909 768 918 l 769 633 q 764 625 769 628 q 411 422 413 422 m 419 625 l 597 728 l 597 805 l 419 702 l 419 625 m 751 649 l 750 893 l 616 816 l 616 728 l 751 649 m 420 448 l 741 633 l 607 711 l 419 604 l 420 448 z "},"È":{"ha":1017,"x_min":160,"x_max":857,"o":"m 325 -104 l 321 -104 l 321 -103 l 167 -14 q 162 -6 163 -12 l 160 847 q 165 854 161 852 l 368 971 l 208 1064 q 203 1072 203 1067 q 208 1080 203 1078 l 385 1182 l 389 1182 q 562 1083 408 1173 q 693 1158 690 1158 q 774 1112 696 1158 q 853 1065 852 1067 q 854 1063 854 1063 l 855 960 q 850 951 855 954 l 419 702 l 419 625 q 694 782 691 782 q 774 736 696 782 q 853 690 852 690 q 855 688 854 689 q 857 583 856 684 q 852 575 857 578 l 420 326 l 420 248 q 695 406 692 406 q 775 360 698 406 q 855 313 853 315 q 857 309 857 311 l 857 208 q 853 199 857 202 q 325 -104 327 -104 m 453 944 l 609 1034 l 540 1074 l 384 983 l 453 944 m 366 994 l 522 1084 l 387 1162 l 231 1072 l 366 994 m 322 768 l 827 1060 l 693 1138 l 580 1072 l 632 1042 q 637 1034 636 1039 q 632 1026 636 1029 q 453 924 455 924 q 386 961 450 924 l 188 846 l 322 768 m 334 -79 l 839 212 l 839 292 q 412 46 414 46 q 402 56 404 46 l 401 332 q 406 339 401 336 l 838 589 l 838 668 q 410 422 413 422 q 401 432 401 422 l 401 707 q 405 715 401 713 l 837 965 l 837 1044 l 332 752 l 334 -79 m 420 448 l 829 684 l 694 762 l 419 604 l 420 448 m 420 71 l 829 307 l 695 386 l 420 227 l 420 71 m 315 -79 l 313 752 l 178 830 l 181 -1 l 315 -79 z "},"è":{"ha":1017,"x_min":160,"x_max":857,"o":"m 325 -104 l 321 -104 l 321 -103 l 167 -14 q 162 -6 163 -12 l 160 847 q 165 854 161 852 l 368 971 l 208 1064 q 203 1072 203 1067 q 208 1080 203 1078 l 385 1182 l 389 1182 q 562 1083 408 1173 q 693 1158 690 1158 q 774 1112 696 1158 q 853 1065 852 1067 q 854 1063 854 1063 l 855 960 q 850 951 855 954 l 419 702 l 419 625 q 694 782 691 782 q 774 736 696 782 q 853 690 852 690 q 855 688 854 689 q 857 583 856 684 q 852 575 857 578 l 420 326 l 420 248 q 695 406 692 406 q 775 360 698 406 q 855 313 853 315 q 857 309 857 311 l 857 208 q 853 199 857 202 q 325 -104 327 -104 m 453 944 l 609 1034 l 540 1074 l 384 983 l 453 944 m 366 994 l 522 1084 l 387 1162 l 231 1072 l 366 994 m 322 768 l 827 1060 l 693 1138 l 580 1072 l 632 1042 q 637 1034 636 1039 q 632 1026 636 1029 q 453 924 455 924 q 386 961 450 924 l 188 846 l 322 768 m 334 -79 l 839 212 l 839 292 q 412 46 414 46 q 402 56 404 46 l 401 332 q 406 339 401 336 l 838 589 l 838 668 q 410 422 413 422 q 401 432 401 422 l 401 707 q 405 715 401 713 l 837 965 l 837 1044 l 332 752 l 334 -79 m 420 448 l 829 684 l 694 762 l 419 604 l 420 448 m 420 71 l 829 307 l 695 386 l 420 227 l 420 71 m 315 -79 l 313 752 l 178 830 l 181 -1 l 315 -79 z "},"Ì":{"ha":1017,"x_min":160,"x_max":857,"o":"m 325 -104 l 321 -104 l 321 -103 l 167 -14 q 162 -6 163 -12 l 162 95 q 167 102 163 100 l 380 225 l 379 679 q 325 648 326 648 q 322 648 323 648 l 321 648 l 321 648 l 319 648 l 165 738 q 160 746 160 741 l 160 847 q 165 854 161 852 l 368 971 l 208 1064 q 203 1072 203 1067 q 208 1080 203 1078 l 385 1182 l 389 1182 l 391 1181 q 561 1083 477 1133 q 693 1158 690 1158 q 773 1113 695 1158 q 852 1067 851 1067 q 852 1066 852 1066 l 852 1065 l 853 1065 l 854 1064 l 854 1063 l 854 1063 l 854 1061 l 855 1060 l 855 960 q 850 951 855 954 l 637 828 l 638 374 q 695 406 693 406 q 775 360 698 406 q 854 315 853 315 l 855 313 l 856 312 l 857 311 l 857 310 l 857 309 l 857 208 q 853 199 857 202 q 325 -104 327 -104 m 453 944 l 609 1034 l 540 1074 l 384 983 l 453 944 m 365 994 l 522 1084 l 387 1162 l 231 1072 l 365 994 m 322 768 l 827 1060 l 693 1138 l 580 1072 l 632 1042 q 636 1036 635 1040 l 637 1034 q 632 1026 636 1029 l 543 975 q 453 924 455 924 q 448 925 450 924 l 386 961 l 188 846 l 322 768 m 313 673 l 313 752 l 178 830 l 178 751 l 313 673 m 334 -79 l 839 212 l 839 292 q 630 172 632 172 q 621 182 621 172 l 618 833 q 623 842 618 839 l 837 965 l 837 1044 l 332 752 l 332 673 q 541 792 538 792 q 550 783 550 792 l 551 131 q 547 123 551 126 l 334 0 l 334 -79 m 639 197 l 829 307 l 695 386 l 638 353 l 639 197 m 324 16 l 524 131 l 389 210 l 190 94 l 324 16 m 533 147 l 532 767 l 397 690 l 399 225 l 533 147 m 315 -79 l 315 0 l 180 78 l 181 -1 l 315 -79 z "},"ì":{"ha":1017,"x_min":160,"x_max":857,"o":"m 325 -104 l 321 -104 l 321 -103 l 167 -14 q 162 -6 163 -12 l 162 95 q 167 102 163 100 l 380 225 l 379 679 q 325 648 326 648 q 322 648 323 648 l 321 648 l 321 648 l 319 648 l 165 738 q 160 746 160 741 l 160 847 q 165 854 161 852 l 368 971 l 208 1064 q 203 1072 203 1067 q 208 1080 203 1078 l 385 1182 l 389 1182 l 391 1181 q 561 1083 477 1133 q 693 1158 690 1158 q 773 1113 695 1158 q 852 1067 851 1067 q 852 1066 852 1066 l 852 1065 l 853 1065 l 854 1064 l 854 1063 l 854 1063 l 854 1061 l 855 1060 l 855 960 q 850 951 855 954 l 637 828 l 638 374 q 695 406 693 406 q 775 360 698 406 q 854 315 853 315 l 855 313 l 856 312 l 857 311 l 857 310 l 857 309 l 857 208 q 853 199 857 202 q 325 -104 327 -104 m 453 944 l 609 1034 l 540 1074 l 384 983 l 453 944 m 365 994 l 522 1084 l 387 1162 l 231 1072 l 365 994 m 322 768 l 827 1060 l 693 1138 l 580 1072 l 632 1042 q 636 1036 635 1040 l 637 1034 q 632 1026 636 1029 l 543 975 q 453 924 455 924 q 448 925 450 924 l 386 961 l 188 846 l 322 768 m 313 673 l 313 752 l 178 830 l 178 751 l 313 673 m 334 -79 l 839 212 l 839 292 q 630 172 632 172 q 621 182 621 172 l 618 833 q 623 842 618 839 l 837 965 l 837 1044 l 332 752 l 332 673 q 541 792 538 792 q 550 783 550 792 l 551 131 q 547 123 551 126 l 334 0 l 334 -79 m 639 197 l 829 307 l 695 386 l 638 353 l 639 197 m 324 16 l 524 131 l 389 210 l 190 94 l 324 16 m 533 147 l 532 767 l 397 690 l 399 225 l 533 147 m 315 -79 l 315 0 l 180 78 l 181 -1 l 315 -79 z "},"Ò":{"ha":1017,"x_min":160,"x_max":858,"o":"m 325 -104 l 321 -104 l 321 -103 l 167 -14 q 163 -6 163 -12 l 160 847 q 165 854 161 852 l 368 971 l 208 1064 q 203 1072 203 1067 q 208 1080 203 1078 l 382 1181 l 385 1181 l 385 1182 l 389 1182 l 391 1181 q 562 1083 477 1133 q 693 1158 690 1158 q 773 1113 696 1158 q 852 1067 851 1067 l 853 1065 l 854 1064 q 854 1063 854 1064 l 855 1061 l 858 208 q 853 199 857 202 q 325 -104 328 -104 m 453 944 l 609 1034 l 540 1074 l 384 983 l 453 944 m 366 994 l 522 1084 l 387 1162 l 231 1072 l 366 994 m 322 768 l 827 1060 l 693 1138 l 580 1072 l 632 1042 q 636 1036 635 1040 l 637 1034 q 632 1026 636 1029 l 544 975 q 453 924 455 924 q 448 925 450 924 l 386 961 l 188 846 l 322 768 m 334 -79 l 839 212 l 837 1044 l 332 752 l 334 -79 m 315 -79 l 313 752 l 178 830 l 181 -1 l 315 -79 m 412 46 q 402 56 404 46 l 401 707 q 406 715 401 713 q 759 918 756 918 q 768 909 767 918 l 770 257 q 766 249 770 252 q 412 46 414 46 m 420 248 l 599 351 l 597 805 l 419 702 l 420 248 m 751 273 l 750 893 l 616 816 l 617 351 l 751 273 m 421 71 l 743 257 l 608 335 l 420 227 l 421 71 z "},"ò":{"ha":1017,"x_min":160,"x_max":858,"o":"m 325 -104 l 321 -104 l 321 -103 l 167 -14 q 163 -6 163 -12 l 160 847 q 165 854 161 852 l 368 971 l 208 1064 q 203 1072 203 1067 q 208 1080 203 1078 l 382 1181 l 385 1181 l 385 1182 l 389 1182 l 391 1181 q 562 1083 477 1133 q 693 1158 690 1158 q 773 1113 696 1158 q 852 1067 851 1067 l 853 1065 l 854 1064 q 854 1063 854 1064 l 855 1061 l 858 208 q 853 199 857 202 q 325 -104 328 -104 m 453 944 l 609 1034 l 540 1074 l 384 983 l 453 944 m 366 994 l 522 1084 l 387 1162 l 231 1072 l 366 994 m 322 768 l 827 1060 l 693 1138 l 580 1072 l 632 1042 q 636 1036 635 1040 l 637 1034 q 632 1026 636 1029 l 544 975 q 453 924 455 924 q 448 925 450 924 l 386 961 l 188 846 l 322 768 m 334 -79 l 839 212 l 837 1044 l 332 752 l 334 -79 m 315 -79 l 313 752 l 178 830 l 181 -1 l 315 -79 m 412 46 q 402 56 404 46 l 401 707 q 406 715 401 713 q 759 918 756 918 q 768 909 767 918 l 770 257 q 766 249 770 252 q 412 46 414 46 m 420 248 l 599 351 l 597 805 l 419 702 l 420 248 m 751 273 l 750 893 l 616 816 l 617 351 l 751 273 m 421 71 l 743 257 l 608 335 l 420 227 l 421 71 z "},"Ù":{"ha":1017,"x_min":160,"x_max":858,"o":"m 325 -104 l 321 -104 q 320 -103 321 -103 l 167 -14 q 163 -6 163 -12 l 160 847 q 165 854 161 852 q 256 906 254 906 q 337 861 259 906 q 415 815 415 815 q 416 814 416 815 l 416 814 l 417 813 q 418 812 417 812 l 418 812 q 418 809 418 811 l 418 808 q 420 248 419 808 l 599 351 l 597 1006 q 453 924 456 924 q 361 975 450 924 l 208 1064 q 203 1072 203 1067 q 208 1080 203 1078 l 385 1182 l 389 1182 l 391 1181 q 597 1063 494 1122 l 597 1099 q 601 1106 597 1103 q 693 1158 690 1158 q 773 1113 696 1158 q 852 1067 851 1067 l 853 1065 l 854 1064 l 854 1064 l 854 1063 l 855 1061 l 858 208 q 853 199 857 202 q 325 -104 328 -104 m 366 994 l 522 1084 l 387 1162 l 231 1072 l 366 994 m 453 944 l 609 1034 l 540 1074 l 384 983 l 453 944 m 751 273 l 749 1004 l 615 1082 l 615 1052 l 632 1042 q 634 1040 633 1041 q 635 1039 635 1040 q 637 1036 636 1038 l 637 1034 q 633 1026 636 1029 l 615 1017 l 617 351 l 751 273 m 759 1020 l 827 1060 l 693 1138 l 624 1098 l 759 1020 m 421 71 l 743 257 l 608 335 l 420 227 l 421 71 m 334 -79 l 839 212 l 837 1044 l 768 1004 l 770 257 q 766 249 770 252 q 412 46 414 46 q 403 56 403 46 l 400 792 l 332 752 l 334 -79 m 322 768 l 391 808 l 256 886 l 188 846 l 322 768 m 315 -79 l 313 752 l 178 830 l 181 -1 l 315 -79 z "},"ù":{"ha":1017,"x_min":160,"x_max":858,"o":"m 325 -104 l 321 -104 q 320 -103 321 -103 l 167 -14 q 163 -6 163 -12 l 160 847 q 165 854 161 852 q 256 906 254 906 q 337 861 259 906 q 415 815 415 815 q 416 814 416 815 l 416 814 l 417 813 q 418 812 417 812 l 418 812 q 418 809 418 811 l 418 808 q 420 248 419 808 l 599 351 l 597 1006 q 453 924 456 924 q 361 975 450 924 l 208 1064 q 203 1072 203 1067 q 208 1080 203 1078 l 385 1182 l 389 1182 l 391 1181 q 597 1063 494 1122 l 597 1099 q 601 1106 597 1103 q 693 1158 690 1158 q 773 1113 696 1158 q 852 1067 851 1067 l 853 1065 l 854 1064 l 854 1064 l 854 1063 l 855 1061 l 858 208 q 853 199 857 202 q 325 -104 328 -104 m 366 994 l 522 1084 l 387 1162 l 231 1072 l 366 994 m 453 944 l 609 1034 l 540 1074 l 384 983 l 453 944 m 751 273 l 749 1004 l 615 1082 l 615 1052 l 632 1042 q 634 1040 633 1041 q 635 1039 635 1040 q 637 1036 636 1038 l 637 1034 q 633 1026 636 1029 l 615 1017 l 617 351 l 751 273 m 759 1020 l 827 1060 l 693 1138 l 624 1098 l 759 1020 m 421 71 l 743 257 l 608 335 l 420 227 l 421 71 m 334 -79 l 839 212 l 837 1044 l 768 1004 l 770 257 q 766 249 770 252 q 412 46 414 46 q 403 56 403 46 l 400 792 l 332 752 l 334 -79 m 322 768 l 391 808 l 256 886 l 188 846 l 322 768 m 315 -79 l 313 752 l 178 830 l 181 -1 l 315 -79 z "},"Á":{"ha":1017,"x_min":160,"x_max":857,"o":"m 324 -104 l 322 -104 q 320 -103 321 -104 l 167 -14 q 162 -6 163 -12 l 160 847 q 165 854 161 852 l 368 972 l 295 1015 q 290 1023 290 1017 l 379 1177 l 382 1181 l 471 1232 q 562 1283 559 1283 q 642 1238 564 1283 q 721 1192 720 1192 l 722 1189 l 723 1189 l 723 1188 l 724 1185 l 724 1183 l 722 1180 l 706 1152 l 850 1068 l 853 1065 q 854 1065 853 1065 l 854 1061 q 855 1061 854 1061 l 857 208 q 852 199 857 202 l 763 148 q 758 149 759 148 l 756 149 l 604 238 q 599 246 599 241 l 598 429 l 420 326 l 421 -45 q 416 -53 421 -50 q 324 -104 327 -104 m 751 173 l 751 517 l 616 439 l 617 251 l 751 173 m 334 -79 l 403 -39 l 401 332 q 406 340 401 337 q 760 543 758 543 q 769 533 769 543 l 770 173 l 839 213 l 837 1044 l 332 752 l 334 -79 m 315 -79 l 313 752 l 178 830 l 181 -1 l 315 -79 m 478 959 l 621 1041 l 689 1160 l 547 1078 l 478 959 m 540 1095 l 696 1185 l 562 1263 l 405 1173 l 540 1095 m 450 946 l 527 1081 l 390 1160 l 313 1025 l 450 946 m 322 768 l 827 1060 l 696 1136 l 635 1029 q 545 976 634 1027 q 453 924 455 924 q 450 925 451 924 q 449 925 449 925 q 448 926 448 925 l 387 961 l 188 846 l 322 768 m 410 422 q 401 432 401 422 l 400 707 q 405 715 401 713 q 759 918 756 918 q 768 909 768 918 l 769 633 q 764 625 768 628 q 410 422 413 422 m 419 625 l 597 728 l 597 805 l 419 703 l 419 625 m 750 650 l 749 893 l 616 816 l 616 728 l 750 650 m 420 448 l 741 633 l 606 711 l 419 604 l 420 448 z "},"á":{"ha":1017,"x_min":160,"x_max":857,"o":"m 324 -104 l 322 -104 q 320 -103 321 -104 l 167 -14 q 162 -6 163 -12 l 160 847 q 165 854 161 852 l 368 972 l 295 1015 q 290 1023 290 1017 l 379 1177 l 382 1181 l 471 1232 q 562 1283 559 1283 q 642 1238 564 1283 q 721 1192 720 1192 l 722 1189 l 723 1189 l 723 1188 l 724 1185 l 724 1183 l 722 1180 l 706 1152 l 850 1068 l 853 1065 q 854 1065 853 1065 l 854 1061 q 855 1061 854 1061 l 857 208 q 852 199 857 202 l 763 148 q 758 149 759 148 l 756 149 l 604 238 q 599 246 599 241 l 598 429 l 420 326 l 421 -45 q 416 -53 421 -50 q 324 -104 327 -104 m 751 173 l 751 517 l 616 439 l 617 251 l 751 173 m 334 -79 l 403 -39 l 401 332 q 406 340 401 337 q 760 543 758 543 q 769 533 769 543 l 770 173 l 839 213 l 837 1044 l 332 752 l 334 -79 m 315 -79 l 313 752 l 178 830 l 181 -1 l 315 -79 m 478 959 l 621 1041 l 689 1160 l 547 1078 l 478 959 m 540 1095 l 696 1185 l 562 1263 l 405 1173 l 540 1095 m 450 946 l 527 1081 l 390 1160 l 313 1025 l 450 946 m 322 768 l 827 1060 l 696 1136 l 635 1029 q 545 976 634 1027 q 453 924 455 924 q 450 925 451 924 q 449 925 449 925 q 448 926 448 925 l 387 961 l 188 846 l 322 768 m 410 422 q 401 432 401 422 l 400 707 q 405 715 401 713 q 759 918 756 918 q 768 909 768 918 l 769 633 q 764 625 768 628 q 410 422 413 422 m 419 625 l 597 728 l 597 805 l 419 703 l 419 625 m 750 650 l 749 893 l 616 816 l 616 728 l 750 650 m 420 448 l 741 633 l 606 711 l 419 604 l 420 448 z "},"É":{"ha":1017,"x_min":160,"x_max":857,"o":"m 324 -104 q 321 -103 321 -104 l 167 -14 q 162 -6 162 -12 l 160 847 q 164 854 160 852 l 368 972 l 295 1015 q 290 1023 290 1017 q 381 1180 378 1177 l 381 1181 q 562 1283 559 1283 q 642 1238 564 1283 q 720 1192 720 1192 l 721 1192 l 722 1188 l 723 1188 q 724 1185 723 1186 l 723 1183 q 706 1152 722 1180 q 853 1065 852 1067 q 855 960 855 1061 q 850 951 855 954 l 419 703 l 419 625 q 694 782 691 782 q 852 691 696 782 l 852 690 q 854 689 854 690 q 855 687 854 688 q 857 583 856 685 q 852 576 856 578 l 420 326 l 420 249 q 695 406 692 406 q 776 360 697 406 q 856 312 854 315 q 857 308 857 310 l 857 208 q 852 199 857 202 q 324 -104 327 -104 m 334 -79 l 839 213 l 839 292 q 412 47 414 47 q 402 56 402 47 l 401 332 q 406 340 401 337 l 838 589 l 838 668 q 410 422 413 422 q 401 432 402 422 l 400 707 q 405 715 401 713 l 837 965 l 836 1044 l 331 752 l 334 -79 m 315 -79 l 313 752 l 178 830 l 180 -1 l 315 -79 m 478 959 l 621 1041 l 689 1160 l 547 1078 l 478 959 m 540 1095 l 696 1185 l 562 1263 l 405 1173 l 540 1095 m 449 946 l 527 1081 l 390 1160 l 312 1025 l 449 946 m 322 768 l 827 1060 l 696 1136 l 635 1029 q 545 976 634 1027 q 452 924 455 924 q 450 925 451 924 q 449 925 449 925 q 387 961 448 925 l 187 846 l 322 768 m 420 448 l 828 684 l 694 762 l 419 604 l 420 448 m 420 72 l 829 308 l 695 386 l 420 227 l 420 72 z "},"é":{"ha":1017,"x_min":160,"x_max":857,"o":"m 324 -104 q 321 -103 321 -104 l 167 -14 q 162 -6 162 -12 l 160 847 q 164 854 160 852 l 368 972 l 295 1015 q 290 1023 290 1017 q 381 1180 378 1177 l 381 1181 q 562 1283 559 1283 q 642 1238 564 1283 q 720 1192 720 1192 l 721 1192 l 722 1188 l 723 1188 q 724 1185 723 1186 l 723 1183 q 706 1152 722 1180 q 853 1065 852 1067 q 855 960 855 1061 q 850 951 855 954 l 419 703 l 419 625 q 694 782 691 782 q 852 691 696 782 l 852 690 q 854 689 854 690 q 855 687 854 688 q 857 583 856 685 q 852 576 856 578 l 420 326 l 420 249 q 695 406 692 406 q 776 360 697 406 q 856 312 854 315 q 857 308 857 310 l 857 208 q 852 199 857 202 q 324 -104 327 -104 m 334 -79 l 839 213 l 839 292 q 412 47 414 47 q 402 56 402 47 l 401 332 q 406 340 401 337 l 838 589 l 838 668 q 410 422 413 422 q 401 432 402 422 l 400 707 q 405 715 401 713 l 837 965 l 836 1044 l 331 752 l 334 -79 m 315 -79 l 313 752 l 178 830 l 180 -1 l 315 -79 m 478 959 l 621 1041 l 689 1160 l 547 1078 l 478 959 m 540 1095 l 696 1185 l 562 1263 l 405 1173 l 540 1095 m 449 946 l 527 1081 l 390 1160 l 312 1025 l 449 946 m 322 768 l 827 1060 l 696 1136 l 635 1029 q 545 976 634 1027 q 452 924 455 924 q 450 925 451 924 q 449 925 449 925 q 387 961 448 925 l 187 846 l 322 768 m 420 448 l 828 684 l 694 762 l 419 604 l 420 448 m 420 72 l 829 308 l 695 386 l 420 227 l 420 72 z "},"Í":{"ha":1017,"x_min":160,"x_max":857,"o":"m 324 -104 q 321 -103 321 -104 l 319 -103 l 167 -14 q 162 -6 162 -12 l 162 95 q 167 102 163 100 l 380 226 l 379 680 l 325 648 q 318 649 320 648 l 317 649 l 165 738 q 160 746 160 741 l 160 847 q 164 854 160 852 l 368 972 l 295 1015 q 290 1023 290 1017 l 378 1177 q 380 1179 380 1179 q 381 1181 381 1180 l 382 1181 l 471 1232 q 561 1283 559 1283 q 642 1238 564 1283 q 720 1192 720 1192 l 721 1192 l 722 1188 q 723 1185 723 1187 l 724 1185 l 723 1183 l 723 1183 l 722 1180 l 706 1152 q 851 1067 851 1067 l 852 1066 l 852 1065 l 854 1065 l 854 1061 l 855 960 q 850 951 855 954 l 637 828 l 638 374 q 694 406 692 406 q 775 361 697 406 q 853 315 853 315 l 854 314 l 855 313 q 856 313 855 313 l 857 309 l 857 308 l 857 208 q 852 199 857 202 q 324 -104 327 -104 m 334 -79 l 839 213 l 838 292 q 629 173 632 173 q 621 182 621 173 l 618 833 q 623 842 618 839 l 837 965 l 836 1044 l 331 752 l 332 673 q 541 793 538 793 q 550 783 549 793 l 551 132 q 547 123 551 126 l 333 0 l 334 -79 m 324 16 l 524 132 l 389 210 l 189 94 l 324 16 m 533 147 l 531 767 l 397 690 l 399 226 l 533 147 m 315 -79 l 315 0 l 180 78 l 180 -1 l 315 -79 m 478 959 l 621 1041 l 689 1160 l 547 1078 l 478 959 m 540 1095 l 696 1185 l 561 1263 l 405 1173 l 540 1095 m 449 946 l 527 1081 l 390 1160 l 312 1025 l 449 946 m 322 768 l 827 1060 l 696 1136 l 635 1029 q 545 976 634 1027 q 452 924 455 924 q 450 925 450 924 l 448 925 l 448 926 l 387 961 l 187 846 l 322 768 m 313 673 l 313 752 l 178 830 l 178 751 l 313 673 m 639 197 l 644 201 l 829 308 l 694 386 l 638 353 l 639 197 z "},"í":{"ha":1017,"x_min":160,"x_max":857,"o":"m 324 -104 q 321 -103 321 -104 l 319 -103 l 167 -14 q 162 -6 162 -12 l 162 95 q 167 102 163 100 l 380 226 l 379 680 l 325 648 q 318 649 320 648 l 317 649 l 165 738 q 160 746 160 741 l 160 847 q 164 854 160 852 l 368 972 l 295 1015 q 290 1023 290 1017 l 378 1177 q 380 1179 380 1179 q 381 1181 381 1180 l 382 1181 l 471 1232 q 561 1283 559 1283 q 642 1238 564 1283 q 720 1192 720 1192 l 721 1192 l 722 1188 q 723 1185 723 1187 l 724 1185 l 723 1183 l 723 1183 l 722 1180 l 706 1152 q 851 1067 851 1067 l 852 1066 l 852 1065 l 854 1065 l 854 1061 l 855 960 q 850 951 855 954 l 637 828 l 638 374 q 694 406 692 406 q 775 361 697 406 q 853 315 853 315 l 854 314 l 855 313 q 856 313 855 313 l 857 309 l 857 308 l 857 208 q 852 199 857 202 q 324 -104 327 -104 m 334 -79 l 839 213 l 838 292 q 629 173 632 173 q 621 182 621 173 l 618 833 q 623 842 618 839 l 837 965 l 836 1044 l 331 752 l 332 673 q 541 793 538 793 q 550 783 549 793 l 551 132 q 547 123 551 126 l 333 0 l 334 -79 m 324 16 l 524 132 l 389 210 l 189 94 l 324 16 m 533 147 l 531 767 l 397 690 l 399 226 l 533 147 m 315 -79 l 315 0 l 180 78 l 180 -1 l 315 -79 m 478 959 l 621 1041 l 689 1160 l 547 1078 l 478 959 m 540 1095 l 696 1185 l 561 1263 l 405 1173 l 540 1095 m 449 946 l 527 1081 l 390 1160 l 312 1025 l 449 946 m 322 768 l 827 1060 l 696 1136 l 635 1029 q 545 976 634 1027 q 452 924 455 924 q 450 925 450 924 l 448 925 l 448 926 l 387 961 l 187 846 l 322 768 m 313 673 l 313 752 l 178 830 l 178 751 l 313 673 m 639 197 l 644 201 l 829 308 l 694 386 l 638 353 l 639 197 z "},"Ó":{"ha":1017,"x_min":160,"x_max":857,"o":"m 324 -104 q 321 -103 321 -104 l 167 -14 q 162 -6 163 -12 l 160 847 q 165 854 161 852 l 368 972 l 295 1015 q 290 1023 290 1017 q 381 1180 378 1177 l 381 1181 q 562 1283 559 1283 q 642 1238 564 1283 q 721 1192 720 1192 q 724 1183 723 1187 q 723 1182 723 1183 q 706 1152 723 1181 q 853 1065 852 1067 q 857 208 855 1061 q 852 199 857 202 q 324 -104 327 -104 m 315 -79 l 313 752 l 178 830 l 180 -1 l 315 -79 m 478 959 l 621 1041 l 689 1160 l 547 1078 l 478 959 m 540 1095 l 696 1185 l 562 1263 l 405 1173 l 540 1095 m 449 946 l 527 1081 l 390 1160 l 312 1025 l 449 946 m 322 768 l 827 1060 l 696 1136 l 635 1029 q 545 976 634 1027 q 452 924 455 924 q 450 925 451 924 q 449 925 449 925 q 387 961 448 925 l 187 846 l 322 768 m 334 -79 l 839 213 l 836 1044 l 332 752 l 334 -79 m 412 47 q 402 56 402 47 l 400 707 q 405 715 401 713 q 759 918 756 918 q 763 917 761 918 q 768 909 768 914 l 770 257 q 765 250 770 252 q 412 47 415 47 m 420 249 l 598 351 l 597 805 l 419 703 l 420 249 m 751 273 l 749 893 l 616 816 l 616 351 l 751 273 m 420 72 l 742 257 l 608 336 l 420 227 l 420 72 z "},"ó":{"ha":1017,"x_min":160,"x_max":857,"o":"m 324 -104 q 321 -103 321 -104 l 167 -14 q 162 -6 163 -12 l 160 847 q 165 854 161 852 l 368 972 l 295 1015 q 290 1023 290 1017 q 381 1180 378 1177 l 381 1181 q 562 1283 559 1283 q 642 1238 564 1283 q 721 1192 720 1192 q 724 1183 723 1187 q 723 1182 723 1183 q 706 1152 723 1181 q 853 1065 852 1067 q 857 208 855 1061 q 852 199 857 202 q 324 -104 327 -104 m 315 -79 l 313 752 l 178 830 l 180 -1 l 315 -79 m 478 959 l 621 1041 l 689 1160 l 547 1078 l 478 959 m 540 1095 l 696 1185 l 562 1263 l 405 1173 l 540 1095 m 449 946 l 527 1081 l 390 1160 l 312 1025 l 449 946 m 322 768 l 827 1060 l 696 1136 l 635 1029 q 545 976 634 1027 q 452 924 455 924 q 450 925 451 924 q 449 925 449 925 q 387 961 448 925 l 187 846 l 322 768 m 334 -79 l 839 213 l 836 1044 l 332 752 l 334 -79 m 412 47 q 402 56 402 47 l 400 707 q 405 715 401 713 q 759 918 756 918 q 763 917 761 918 q 768 909 768 914 l 770 257 q 765 250 770 252 q 412 47 415 47 m 420 249 l 598 351 l 597 805 l 419 703 l 420 249 m 751 273 l 749 893 l 616 816 l 616 351 l 751 273 m 420 72 l 742 257 l 608 336 l 420 227 l 420 72 z "},"Ú":{"ha":1017,"x_min":160,"x_max":857,"o":"m 325 -104 l 322 -104 l 320 -103 l 167 -14 q 162 -6 163 -12 l 160 847 q 165 854 161 852 q 256 906 254 906 q 338 861 259 906 l 415 815 q 416 814 416 815 q 416 814 416 814 l 418 812 l 418 809 l 420 249 l 598 351 l 597 1006 q 453 924 455 924 q 450 925 451 924 l 448 926 l 295 1015 q 291 1022 291 1017 q 379 1177 291 1025 l 382 1181 l 471 1232 q 562 1283 559 1283 q 642 1238 564 1283 q 721 1192 720 1192 q 722 1190 722 1190 q 723 1188 723 1189 l 724 1185 l 724 1183 l 722 1180 l 706 1152 q 852 1067 850 1068 q 852 1066 852 1067 l 854 1065 l 854 1062 l 854 1061 l 855 1061 l 857 208 q 853 199 857 202 q 325 -104 327 -104 m 315 -79 l 313 752 l 178 830 l 181 -1 l 315 -79 m 322 768 l 391 808 l 256 886 l 188 846 l 322 768 m 334 -79 l 839 213 l 837 1044 l 768 1004 l 770 257 q 765 250 770 252 q 412 47 414 47 q 402 56 404 47 l 400 792 l 332 752 l 334 -79 m 758 1020 l 827 1060 l 696 1136 l 662 1076 l 758 1020 m 540 1095 l 696 1185 l 562 1263 l 406 1173 l 540 1095 m 450 946 l 527 1081 l 390 1160 l 313 1025 l 450 946 m 478 959 l 621 1041 l 689 1160 l 547 1078 l 478 959 m 751 273 l 749 1004 l 653 1060 q 632 1026 634 1027 l 615 1017 l 617 351 l 751 273 m 420 72 l 742 257 l 608 336 l 420 227 l 420 72 z "},"ú":{"ha":1017,"x_min":160,"x_max":857,"o":"m 325 -104 l 322 -104 l 320 -103 l 167 -14 q 162 -6 163 -12 l 160 847 q 165 854 161 852 q 256 906 254 906 q 338 861 259 906 l 415 815 q 416 814 416 815 q 416 814 416 814 l 418 812 l 418 809 l 420 249 l 598 351 l 597 1006 q 453 924 455 924 q 450 925 451 924 l 448 926 l 295 1015 q 291 1022 291 1017 q 379 1177 291 1025 l 382 1181 l 471 1232 q 562 1283 559 1283 q 642 1238 564 1283 q 721 1192 720 1192 q 722 1190 722 1190 q 723 1188 723 1189 l 724 1185 l 724 1183 l 722 1180 l 706 1152 q 852 1067 850 1068 q 852 1066 852 1067 l 854 1065 l 854 1062 l 854 1061 l 855 1061 l 857 208 q 853 199 857 202 q 325 -104 327 -104 m 315 -79 l 313 752 l 178 830 l 181 -1 l 315 -79 m 322 768 l 391 808 l 256 886 l 188 846 l 322 768 m 334 -79 l 839 213 l 837 1044 l 768 1004 l 770 257 q 765 250 770 252 q 412 47 414 47 q 402 56 404 47 l 400 792 l 332 752 l 334 -79 m 758 1020 l 827 1060 l 696 1136 l 662 1076 l 758 1020 m 540 1095 l 696 1185 l 562 1263 l 406 1173 l 540 1095 m 450 946 l 527 1081 l 390 1160 l 313 1025 l 450 946 m 478 959 l 621 1041 l 689 1160 l 547 1078 l 478 959 m 751 273 l 749 1004 l 653 1060 q 632 1026 634 1027 l 615 1017 l 617 351 l 751 273 m 420 72 l 742 257 l 608 336 l 420 227 l 420 72 z "},"§":{"ha":1017,"x_min":160,"x_max":857,"o":"m 411 297 q 401 306 401 297 l 401 456 q 406 465 401 462 q 760 667 757 667 q 768 658 768 667 l 769 508 q 764 500 769 503 q 411 297 413 297 m 420 322 l 741 508 l 629 572 l 420 451 l 420 322 m 751 524 l 750 642 l 648 583 l 751 524 m 543 21 q 541 22 541 21 l 538 22 l 385 111 q 380 119 380 114 l 380 178 q 326 146 327 146 q 323 146 325 146 l 320 146 l 320 147 l 319 147 l 166 236 q 161 244 161 239 l 160 848 q 164 854 161 852 q 475 1031 472 1031 q 555 986 477 1031 q 633 941 633 941 l 633 941 l 634 939 l 635 939 l 635 938 l 636 935 l 637 935 l 637 876 q 693 907 692 907 q 774 862 696 907 q 852 816 852 817 l 852 816 l 852 815 l 853 815 l 853 814 l 854 814 l 855 811 l 856 808 l 857 207 q 852 199 857 201 q 543 21 545 21 m 419 572 l 828 808 l 693 887 l 637 854 l 637 833 q 632 825 637 828 l 418 702 l 419 572 m 315 172 l 313 752 l 178 830 l 180 250 l 315 172 m 322 768 l 609 933 l 475 1012 l 187 846 l 322 768 m 533 47 l 533 125 l 412 196 l 399 188 l 399 125 l 533 47 m 543 142 l 742 257 l 630 321 l 431 206 l 543 142 m 751 273 l 751 391 l 649 332 l 751 273 m 552 47 l 839 212 l 837 793 q 410 548 412 548 q 401 557 401 548 l 400 707 q 405 715 400 712 l 618 838 l 618 918 l 331 752 l 333 172 q 760 416 758 416 q 764 415 762 416 q 769 408 769 412 l 770 257 q 765 249 770 252 l 551 125 l 552 47 z "},"©":{"ha":1017,"x_min":160,"x_max":858,"o":"m 412 46 q 402 55 404 46 l 401 707 q 406 715 401 712 q 759 918 756 918 q 768 911 766 917 q 770 256 768 910 q 766 249 770 251 q 412 46 414 46 m 450 622 l 701 766 l 616 816 l 419 702 l 419 640 l 450 622 m 547 364 l 702 453 l 567 531 l 547 519 l 547 364 m 598 534 l 598 585 l 547 556 l 547 541 l 567 551 q 598 534 570 551 m 460 214 l 711 358 l 711 437 q 538 339 541 339 q 530 346 532 339 q 528 561 529 347 q 533 569 529 566 l 710 671 l 710 751 l 459 606 l 460 214 m 442 214 l 441 606 l 419 618 l 420 226 l 442 214 m 421 71 l 743 257 l 658 306 q 450 189 454 189 q 449 189 450 189 q 448 189 448 189 l 420 205 l 421 71 m 751 273 l 750 892 l 635 826 l 726 773 q 727 770 726 772 q 729 666 728 768 q 724 658 728 661 l 616 596 l 616 524 q 727 458 727 459 q 728 458 728 458 q 730 353 730 454 q 725 345 730 347 l 676 317 l 751 273 m 325 -104 q 167 -15 321 -104 q 163 -7 163 -12 l 160 847 q 165 854 161 851 q 693 1158 690 1158 q 774 1112 696 1158 q 852 1066 852 1067 q 854 1065 853 1065 q 855 1062 854 1062 l 858 207 q 853 199 857 201 q 325 -104 328 -104 m 315 -79 l 313 751 l 178 830 l 181 -1 l 315 -79 m 322 768 l 827 1059 l 693 1137 l 188 846 l 322 768 m 334 -79 l 839 212 l 837 1044 l 332 751 l 334 -79 z "},"®":{"ha":1017,"x_min":160,"x_max":857,"o":"m 325 -104 l 321 -104 l 167 -14 q 163 -6 163 -12 l 160 847 q 165 854 161 852 q 693 1158 690 1158 q 773 1113 696 1158 q 853 1066 851 1067 q 855 1063 854 1064 q 857 208 855 1062 q 853 199 857 202 q 325 -104 327 -104 m 315 -79 l 313 752 l 178 830 l 181 -1 l 315 -79 m 322 768 l 827 1060 l 693 1138 l 188 846 l 322 768 m 334 -79 l 839 212 l 837 1044 l 332 752 l 334 -79 m 412 46 q 402 56 404 46 q 401 707 402 382 q 405 715 401 713 q 758 918 756 918 q 768 911 766 918 q 770 257 768 910 q 766 249 770 252 q 412 46 414 46 m 450 622 l 701 767 l 616 816 l 419 702 l 419 640 l 450 622 m 460 214 l 530 254 q 529 405 529 306 q 534 413 529 410 l 557 427 q 564 428 560 428 q 664 316 566 427 l 726 399 q 658 479 658 475 q 663 487 658 484 l 711 515 l 710 751 l 459 606 l 460 214 m 621 338 l 560 407 l 547 399 l 547 380 l 621 338 m 547 322 l 580 340 l 547 359 l 547 322 m 442 214 l 441 606 l 419 618 l 420 227 l 442 214 m 420 71 l 743 257 l 673 297 l 672 296 l 671 296 q 670 294 671 295 q 669 293 669 293 q 667 293 668 293 q 665 292 667 292 q 662 293 663 292 q 661 293 661 293 q 598 330 661 294 l 548 300 l 548 248 q 543 240 548 243 l 453 189 l 451 189 q 449 189 450 189 q 448 189 448 189 q 420 205 447 189 l 420 71 m 751 273 l 749 893 l 635 827 q 726 773 725 774 q 728 770 727 772 q 729 510 728 769 q 724 502 729 505 l 682 477 q 747 399 746 403 q 745 393 747 396 l 684 312 l 751 273 m 538 496 q 528 505 530 496 l 528 562 q 533 570 528 567 q 579 596 572 591 q 633 625 630 625 q 635 625 634 625 q 638 623 635 625 q 641 618 640 622 l 642 557 q 637 551 640 553 q 538 496 541 496 m 547 521 l 614 559 l 584 577 l 547 556 l 547 521 m 623 576 l 623 600 l 602 588 l 623 576 z "},"Æ":{"ha":1017,"x_min":160,"x_max":857,"o":"m 410 422 q 406 424 408 422 q 401 432 401 427 l 401 707 q 405 715 401 713 q 541 793 538 793 q 549 785 548 793 q 551 507 550 785 q 546 499 551 503 q 410 422 413 422 m 420 448 l 523 507 l 419 568 l 420 448 m 532 524 l 532 767 l 419 703 l 419 589 l 532 524 m 325 -104 l 322 -104 l 320 -103 l 167 -14 q 162 -6 163 -12 l 160 847 q 165 854 161 852 q 693 1158 690 1158 l 698 1157 q 852 1067 850 1068 q 852 1066 852 1067 l 854 1065 l 854 1063 l 854 1063 l 854 1061 l 855 1061 l 855 960 q 850 951 855 954 l 637 828 l 637 751 q 694 782 691 782 q 774 736 696 782 l 852 690 l 854 690 l 854 689 l 855 688 l 856 685 l 857 583 q 852 575 857 578 l 638 452 l 638 374 q 695 406 693 406 q 775 360 698 406 q 854 315 853 315 l 855 313 l 856 312 l 857 311 l 857 310 q 857 309 857 310 l 857 208 q 853 199 857 202 l 545 22 l 538 23 l 420 91 l 421 -45 q 419 -50 421 -47 l 416 -53 q 325 -104 327 -104 m 639 197 l 829 308 l 695 386 l 638 353 l 639 197 m 638 574 l 829 684 l 694 762 l 637 729 l 638 574 m 315 -79 l 313 752 l 178 830 l 181 -1 l 315 -79 m 322 768 l 827 1060 l 693 1138 l 188 846 l 322 768 m 534 47 l 532 391 l 420 326 l 420 113 l 534 47 m 334 -79 l 403 -39 l 401 332 q 406 340 401 337 q 542 416 539 416 q 551 407 551 416 l 552 47 l 839 213 l 839 292 q 630 172 632 172 q 621 182 621 172 l 620 457 q 625 465 620 463 l 838 589 l 838 668 q 629 549 631 549 q 619 557 621 549 l 618 833 q 623 842 618 839 l 837 965 l 837 1044 l 332 752 l 334 -79 z "},"æ":{"ha":1017,"x_min":160,"x_max":857,"o":"m 410 422 q 406 424 408 422 q 401 432 401 427 l 401 707 q 405 715 401 713 q 541 793 538 793 q 549 785 548 793 q 551 507 550 785 q 546 499 551 503 q 410 422 413 422 m 420 448 l 523 507 l 419 568 l 420 448 m 532 524 l 532 767 l 419 703 l 419 589 l 532 524 m 325 -104 l 322 -104 l 320 -103 l 167 -14 q 162 -6 163 -12 l 160 847 q 165 854 161 852 q 693 1158 690 1158 l 698 1157 q 852 1067 850 1068 q 852 1066 852 1067 l 854 1065 l 854 1063 l 854 1063 l 854 1061 l 855 1061 l 855 960 q 850 951 855 954 l 637 828 l 637 751 q 694 782 691 782 q 774 736 696 782 l 852 690 l 854 690 l 854 689 l 855 688 l 856 685 l 857 583 q 852 575 857 578 l 638 452 l 638 374 q 695 406 693 406 q 775 360 698 406 q 854 315 853 315 l 855 313 l 856 312 l 857 311 l 857 310 q 857 309 857 310 l 857 208 q 853 199 857 202 l 545 22 l 538 23 l 420 91 l 421 -45 q 419 -50 421 -47 l 416 -53 q 325 -104 327 -104 m 639 197 l 829 308 l 695 386 l 638 353 l 639 197 m 638 574 l 829 684 l 694 762 l 637 729 l 638 574 m 315 -79 l 313 752 l 178 830 l 181 -1 l 315 -79 m 322 768 l 827 1060 l 693 1138 l 188 846 l 322 768 m 534 47 l 532 391 l 420 326 l 420 113 l 534 47 m 334 -79 l 403 -39 l 401 332 q 406 340 401 337 q 542 416 539 416 q 551 407 551 416 l 552 47 l 839 213 l 839 292 q 630 172 632 172 q 621 182 621 172 l 620 457 q 625 465 620 463 l 838 589 l 838 668 q 629 549 631 549 q 619 557 621 549 l 618 833 q 623 842 618 839 l 837 965 l 837 1044 l 332 752 l 334 -79 z "},"Ӕ":{"ha":1017,"x_min":160,"x_max":857,"o":"m 410 422 q 406 424 408 422 q 401 432 401 427 l 401 707 q 405 715 401 713 q 541 793 538 793 q 549 785 548 793 q 551 507 550 785 q 546 499 551 503 q 410 422 413 422 m 420 448 l 523 507 l 419 568 l 420 448 m 532 524 l 532 767 l 419 703 l 419 589 l 532 524 m 325 -104 l 322 -104 l 320 -103 l 167 -14 q 162 -6 163 -12 l 160 847 q 165 854 161 852 q 693 1158 690 1158 l 698 1157 q 852 1067 850 1068 q 852 1066 852 1067 l 854 1065 l 854 1063 l 854 1063 l 854 1061 l 855 1061 l 855 960 q 850 951 855 954 l 637 828 l 637 751 q 694 782 691 782 q 774 736 696 782 l 852 690 l 854 690 l 854 689 l 855 688 l 856 685 l 857 583 q 852 575 857 578 l 638 452 l 638 374 q 695 406 693 406 q 775 360 698 406 q 854 315 853 315 l 855 313 l 856 312 l 857 311 l 857 310 q 857 309 857 310 l 857 208 q 853 199 857 202 l 545 22 l 538 23 l 420 91 l 421 -45 q 419 -50 421 -47 l 416 -53 q 325 -104 327 -104 m 639 197 l 829 308 l 695 386 l 638 353 l 639 197 m 638 574 l 829 684 l 694 762 l 637 729 l 638 574 m 315 -79 l 313 752 l 178 830 l 181 -1 l 315 -79 m 322 768 l 827 1060 l 693 1138 l 188 846 l 322 768 m 534 47 l 532 391 l 420 326 l 420 113 l 534 47 m 334 -79 l 403 -39 l 401 332 q 406 340 401 337 q 542 416 539 416 q 551 407 551 416 l 552 47 l 839 213 l 839 292 q 630 172 632 172 q 621 182 621 172 l 620 457 q 625 465 620 463 l 838 589 l 838 668 q 629 549 631 549 q 619 557 621 549 l 618 833 q 623 842 618 839 l 837 965 l 837 1044 l 332 752 l 334 -79 z "},"ӕ":{"ha":1017,"x_min":160,"x_max":857,"o":"m 410 422 q 406 424 408 422 q 401 432 401 427 l 401 707 q 405 715 401 713 q 541 793 538 793 q 549 785 548 793 q 551 507 550 785 q 546 499 551 503 q 410 422 413 422 m 420 448 l 523 507 l 419 568 l 420 448 m 532 524 l 532 767 l 419 703 l 419 589 l 532 524 m 325 -104 l 322 -104 l 320 -103 l 167 -14 q 162 -6 163 -12 l 160 847 q 165 854 161 852 q 693 1158 690 1158 l 698 1157 q 852 1067 850 1068 q 852 1066 852 1067 l 854 1065 l 854 1063 l 854 1063 l 854 1061 l 855 1061 l 855 960 q 850 951 855 954 l 637 828 l 637 751 q 694 782 691 782 q 774 736 696 782 l 852 690 l 854 690 l 854 689 l 855 688 l 856 685 l 857 583 q 852 575 857 578 l 638 452 l 638 374 q 695 406 693 406 q 775 360 698 406 q 854 315 853 315 l 855 313 l 856 312 l 857 311 l 857 310 q 857 309 857 310 l 857 208 q 853 199 857 202 l 545 22 l 538 23 l 420 91 l 421 -45 q 419 -50 421 -47 l 416 -53 q 325 -104 327 -104 m 639 197 l 829 308 l 695 386 l 638 353 l 639 197 m 638 574 l 829 684 l 694 762 l 637 729 l 638 574 m 315 -79 l 313 752 l 178 830 l 181 -1 l 315 -79 m 322 768 l 827 1060 l 693 1138 l 188 846 l 322 768 m 534 47 l 532 391 l 420 326 l 420 113 l 534 47 m 334 -79 l 403 -39 l 401 332 q 406 340 401 337 q 542 416 539 416 q 551 407 551 416 l 552 47 l 839 213 l 839 292 q 630 172 632 172 q 621 182 621 172 l 620 457 q 625 465 620 463 l 838 589 l 838 668 q 629 549 631 549 q 619 557 621 549 l 618 833 q 623 842 618 839 l 837 965 l 837 1044 l 332 752 l 334 -79 z "},"ß":{"ha":1017,"x_min":160,"x_max":858,"o":"m 325 -104 q 322 -104 322 -104 l 320 -103 l 168 -14 q 160 846 160 -10 l 161 847 q 165 854 161 852 q 584 1095 582 1095 q 665 1049 587 1095 q 743 1004 743 1004 l 743 1004 l 743 1003 l 744 1003 l 744 1002 l 745 1002 l 746 999 l 746 998 q 747 836 747 997 q 746 670 747 673 l 720 624 l 852 547 q 857 539 857 544 l 858 207 q 853 199 858 202 l 589 47 l 585 47 l 429 137 q 425 144 425 140 l 425 246 q 429 253 425 251 l 599 351 l 599 417 l 578 417 q 479 360 480 360 q 477 359 478 359 q 475 360 475 359 l 473 360 q 473 361 473 361 l 472 361 l 420 391 l 421 -45 q 417 -53 421 -50 q 325 -104 328 -104 m 315 -79 l 313 752 l 179 830 l 181 -1 l 315 -79 m 323 768 l 719 996 l 584 1075 l 188 846 l 323 768 m 420 638 l 475 734 l 419 702 l 420 638 m 564 534 l 638 663 l 501 743 l 427 614 l 564 534 m 642 682 l 641 830 l 513 756 l 642 682 m 467 385 l 467 464 l 420 492 l 420 412 l 467 385 m 476 480 l 549 522 l 420 597 l 420 513 l 476 480 m 578 72 l 577 151 l 443 229 l 443 150 l 578 72 m 587 167 l 743 257 l 608 335 l 452 245 l 587 167 m 752 273 l 751 417 l 617 417 l 617 351 l 752 273 m 334 -79 l 403 -39 l 401 407 q 401 707 401 588 q 406 715 401 713 q 651 855 648 855 l 652 855 q 659 848 658 852 l 660 665 l 572 514 l 572 514 l 486 464 l 486 385 q 574 435 574 435 q 761 436 575 435 q 767 433 764 436 q 770 257 770 431 l 770 256 q 766 249 770 252 l 595 151 l 596 72 l 840 212 l 838 534 l 702 613 q 698 621 698 616 q 729 677 698 624 l 728 981 l 332 752 q 334 -79 332 336 z "},"Ø":{"ha":1017,"x_min":160,"x_max":858,"o":"m 325 -104 q 323 -104 323 -104 l 320 -103 l 168 -14 q 163 -6 163 -12 l 160 847 q 165 854 161 852 q 693 1158 690 1158 q 773 1113 696 1158 q 852 1067 851 1067 q 852 1066 852 1067 q 853 1065 853 1066 q 854 1065 853 1065 l 854 1064 l 854 1064 l 855 1061 l 858 208 q 853 199 858 202 q 325 -104 328 -104 m 315 -79 l 313 752 l 179 830 l 181 -1 l 315 -79 m 322 768 l 828 1059 l 693 1138 l 188 846 l 322 768 m 334 -79 l 840 212 l 837 1044 l 332 752 l 334 -79 m 412 161 q 410 162 410 161 q 404 165 406 163 q 401 707 402 168 q 406 715 401 713 q 721 897 719 897 q 730 888 730 897 q 420 168 730 885 q 412 161 417 161 m 419 655 l 447 718 l 419 702 l 419 655 m 420 215 l 702 865 l 473 733 l 420 609 l 420 215 m 450 68 q 441 77 441 68 q 544 318 441 79 q 751 797 648 557 q 760 802 753 802 q 766 800 763 802 q 770 257 768 797 l 770 256 q 766 249 770 252 q 450 68 453 68 m 572 336 l 599 351 l 599 398 l 572 336 m 469 100 l 743 257 l 608 335 l 559 307 l 469 100 m 751 273 l 750 749 l 617 441 l 617 351 l 751 273 z "},"ø":{"ha":1017,"x_min":160,"x_max":858,"o":"m 325 -104 q 323 -104 323 -104 l 320 -103 l 168 -14 q 163 -6 163 -12 l 160 847 q 165 854 161 852 q 693 1158 690 1158 q 773 1113 696 1158 q 852 1067 851 1067 q 852 1066 852 1067 q 853 1065 853 1066 q 854 1065 853 1065 l 854 1064 l 854 1064 l 855 1061 l 858 208 q 853 199 858 202 q 325 -104 328 -104 m 315 -79 l 313 752 l 179 830 l 181 -1 l 315 -79 m 322 768 l 828 1059 l 693 1138 l 188 846 l 322 768 m 334 -79 l 840 212 l 837 1044 l 332 752 l 334 -79 m 412 161 q 410 162 410 161 q 404 165 406 163 q 401 707 402 168 q 406 715 401 713 q 721 897 719 897 q 730 888 730 897 q 420 168 730 885 q 412 161 417 161 m 419 655 l 447 718 l 419 702 l 419 655 m 420 215 l 702 865 l 473 733 l 420 609 l 420 215 m 450 68 q 441 77 441 68 q 544 318 441 79 q 751 797 648 557 q 760 802 753 802 q 766 800 763 802 q 770 257 768 797 l 770 256 q 766 249 770 252 q 450 68 453 68 m 572 336 l 599 351 l 599 398 l 572 336 m 469 100 l 743 257 l 608 335 l 559 307 l 469 100 m 751 273 l 750 749 l 617 441 l 617 351 l 751 273 z "},"¦":{"ha":1017,"x_min":378,"x_max":640,"o":"m 542 523 l 538 523 l 538 524 l 537 524 l 384 612 q 379 621 380 616 l 378 974 l 379 974 l 379 975 q 383 980 380 978 q 475 1031 473 1031 q 555 986 477 1031 l 633 941 l 634 940 l 635 939 l 636 938 l 637 935 q 638 583 637 758 q 633 574 638 577 q 542 523 545 523 m 551 548 l 619 587 l 618 918 l 549 878 l 551 548 m 541 893 l 609 933 l 475 1011 l 406 972 l 541 893 m 532 548 l 531 878 l 397 956 l 397 626 l 532 548 m 543 21 l 539 22 q 538 22 539 22 l 385 111 q 381 119 381 114 l 380 471 q 385 478 380 476 q 476 530 474 530 q 556 485 478 530 q 635 439 635 439 l 636 438 l 636 437 l 637 436 l 638 433 l 639 432 l 640 81 q 635 73 640 75 q 543 21 545 21 m 534 46 l 532 376 l 398 454 l 399 125 l 534 46 m 542 392 l 610 432 l 476 510 l 407 470 l 542 392 m 552 46 l 621 86 l 620 416 l 551 376 l 552 46 z "},"±":{"ha":1017,"x_min":160,"x_max":857,"o":"m 323 -104 q 321 -104 321 -104 l 319 -103 l 166 -14 q 161 -6 161 -12 l 161 94 q 161 94 161 94 l 161 95 q 165 102 161 100 l 392 233 q 384 237 388 235 q 379 245 379 239 l 379 302 q 325 272 326 272 q 322 271 323 271 l 319 272 l 165 361 q 160 370 161 364 l 160 471 q 165 478 161 475 l 378 602 l 378 849 q 382 854 379 852 q 474 907 471 907 q 631 816 477 907 l 633 815 l 635 813 l 635 812 l 635 812 l 635 812 l 636 809 l 636 750 q 693 782 690 782 l 698 781 q 852 690 850 692 q 852 690 852 690 l 853 690 l 854 687 l 854 686 l 855 684 l 855 583 q 850 575 855 578 l 637 452 l 637 374 q 694 406 691 406 q 774 360 696 406 q 853 315 852 315 l 854 313 l 855 312 l 856 307 l 857 207 q 852 199 857 202 q 323 -104 326 -104 m 637 574 l 827 684 l 693 762 l 636 729 l 637 574 m 540 768 l 608 808 l 474 886 l 405 846 l 540 768 m 531 523 l 530 753 l 396 831 l 397 602 l 531 523 m 313 297 l 313 376 l 178 454 l 179 375 l 313 297 m 322 392 l 522 507 l 387 585 l 188 470 l 322 392 m 551 172 l 619 212 l 618 457 q 623 465 618 463 l 837 589 l 837 667 q 627 548 630 548 q 618 555 621 548 l 618 792 l 549 753 l 549 506 q 545 499 549 502 l 332 376 l 332 297 l 384 327 q 541 416 538 416 q 549 409 547 416 q 551 172 550 408 m 532 172 l 532 391 l 397 313 l 397 250 l 532 172 m 314 -79 l 314 0 l 180 78 l 180 -1 l 314 -79 m 323 16 l 829 307 l 694 386 l 637 353 l 638 206 q 633 199 637 201 q 543 147 545 147 l 541 147 q 410 222 539 147 l 189 94 l 323 16 m 333 -79 l 838 212 l 838 292 l 332 0 l 333 -79 z "},"·":{"ha":1017,"x_min":379,"x_max":638,"o":"m 542 397 q 539 397 541 397 q 385 487 538 397 q 380 495 380 490 l 379 596 l 380 597 l 380 598 q 384 604 380 602 q 476 655 473 655 q 556 610 478 655 l 634 564 l 635 564 l 635 564 l 635 564 l 635 563 l 636 563 l 637 562 l 637 559 l 637 558 l 638 558 l 638 456 q 633 449 638 452 q 542 397 545 397 m 532 422 l 532 501 l 398 579 l 398 500 l 532 422 m 542 517 l 610 557 l 476 635 l 407 595 l 542 517 m 551 422 l 620 462 l 620 541 l 551 501 l 551 422 z "}}}
